<?xml version="1.0" encoding="UTF-8"?>
<svg version="1.1" xmlns="http://www.w3.org/2000/svg" width="512" height="512">
<path d="M0 0 C1.13634888 -0.00700928 2.27269775 -0.01401855 3.44348145 -0.02124023 C7.16317873 -0.0387084 10.88210296 -0.02724217 14.60180664 -0.01367188 C17.1996729 -0.01636867 19.79753818 -0.02025265 22.395401 -0.02526855 C27.82116317 -0.03114735 33.24663845 -0.02303363 38.67236328 -0.00390625 C44.9398451 0.01793373 51.2068078 0.01074745 57.47427744 -0.01121187 C63.52225219 -0.03155033 69.56997315 -0.0294019 75.61798286 -0.01768494 C78.18526851 -0.01501504 80.75256741 -0.0182966 83.31983757 -0.02760315 C86.89848166 -0.03773669 90.47611866 -0.02231436 94.0546875 0 C95.11706131 -0.00809692 96.17943512 -0.01619385 97.27400208 -0.02453613 C104.38080879 0.05775854 104.38080879 0.05775854 107.76319885 2.29992676 C109.07446289 4.51757812 109.07446289 4.51757812 109.07446289 8.51757812 C116.99446289 8.51757812 124.91446289 8.51757812 133.07446289 8.51757812 C133.40446289 6.86757813 133.73446289 5.21757813 134.07446289 3.51757812 C136.9066166 0.62813336 139.10170977 0.12869263 143.07446289 0.08398438 C144.03843994 0.07246338 145.00241699 0.06094238 145.99560547 0.04907227 C147.01162842 0.0593042 148.02765137 0.06953613 149.07446289 0.08007812 C150.63233521 0.09252563 150.63233521 0.09252563 152.22167969 0.10522461 C165.49617191 0.39762347 175.33843204 4.24993977 185.07446289 13.39648438 C191.56478523 20.32042739 199.07446289 32.77591793 199.07446289 42.51757812 C199.69192383 42.54335937 200.30938477 42.56914063 200.94555664 42.59570312 C209.53882316 43.17120347 217.05065846 45.59247443 223.43383789 51.58789062 C229.96590901 59.27085047 232.29586028 67.67425492 231.65649414 77.60351562 C230.4301883 85.85021666 226.76855384 93.29020425 219.98852539 98.33789062 C213.44549751 102.3705323 208.73091453 103.72690278 201.07446289 103.51757812 C201.03708008 104.3709375 200.99969727 105.22429687 200.96118164 106.10351562 C200.26691272 119.30823814 198.67113931 132.3956918 197.07446289 145.51757812 C198.2481543 145.72906494 198.2481543 145.72906494 199.44555664 145.94482422 C205.77657883 147.32414982 210.46248173 152.46971689 214.06665039 157.61132812 C216.76679307 162.71857475 217.41537444 167.58805716 217.35693359 173.28710938 C217.3520181 174.06125687 217.3471026 174.83540436 217.34203815 175.63301086 C217.14952944 186.87548906 215.7838612 198.03922267 214.55493164 209.20507812 C214.2925117 211.64398236 214.03066637 214.08294849 213.7693634 216.52197266 C213.22324029 221.59884286 212.6702804 226.6749075 212.11230469 231.75048828 C211.39988884 238.23597488 210.70475643 244.72317846 210.01467419 251.21107483 C209.47850096 256.23397922 208.93324951 261.25586654 208.3852787 266.27749634 C208.12536818 268.66926118 207.86823285 271.06132938 207.61400414 273.45370483 C207.25740711 276.79638997 206.88857538 280.13751127 206.51660156 283.47851562 C206.41517853 284.45221603 206.31375549 285.42591644 206.20925903 286.42912292 C204.85661654 298.29220783 201.99223582 307.89096601 192.59912109 315.80737305 C189.73739206 317.74591012 187.08646886 318.69824839 183.79321289 319.72851562 C182.72006836 320.06931152 181.64692383 320.41010742 180.54125977 320.76123047 C179.7272168 321.0108252 178.91317383 321.26041992 178.07446289 321.51757812 C178.02070496 322.06500168 177.96694702 322.61242523 177.91156006 323.17643738 C177.34306462 328.93825272 176.75570338 334.69793436 176.15795898 340.45678711 C175.93806707 342.59856011 175.72279081 344.74081272 175.51245117 346.88354492 C172.1332244 381.21232496 172.1332244 381.21232496 159.60961914 391.55273438 C150.10494185 398.51330255 140.98568851 399.69547671 129.44946289 399.76757812 C128.20036133 399.79851562 128.20036133 399.79851562 126.92602539 399.83007812 C122.17990313 399.8603082 118.84996994 399.72892895 115.07446289 396.51757812 C114.41446289 395.19757813 113.75446289 393.87757813 113.07446289 392.51757812 C105.48446289 392.18757813 97.89446289 391.85757812 90.07446289 391.51757812 C89.74446289 393.16757812 89.41446289 394.81757813 89.07446289 396.51757812 C84.73498067 399.48473313 81.11726565 399.89252861 75.94262695 399.88989258 C74.91202148 399.89536858 74.91202148 399.89536858 73.8605957 399.9009552 C71.60350317 399.90901827 69.3471386 399.89548104 67.09008789 399.88085938 C65.50836182 399.88034002 63.9266351 399.88086064 62.34490967 399.88237 C59.03298273 399.88228045 55.72130005 399.87189093 52.40942383 399.85375977 C48.18877973 399.83114772 43.96849446 399.83051697 39.74780655 399.83727741 C36.48074219 399.8406397 33.2137578 399.83394383 29.94670868 399.82414818 C28.3919695 399.82032912 26.83722137 399.81913411 25.28247833 399.82073402 C9.9355034 399.82337336 -2.22722956 398.59872375 -13.87866211 387.79101562 C-21.66748002 379.14007665 -23.0718308 367.80661566 -24.21459961 356.67382812 C-24.32274994 355.66412964 -24.43090027 354.65443115 -24.54232788 353.61413574 C-24.88368613 350.41581861 -25.21723053 347.21674333 -25.55053711 344.01757812 C-25.78179062 341.83783568 -26.01355621 339.6581475 -26.24584961 337.47851562 C-26.81167065 332.1588165 -27.37109319 326.83847441 -27.92553711 321.51757812 C-29.12919922 321.15732544 -29.12919922 321.15732544 -30.35717773 320.78979492 C-41.05702861 317.43677533 -41.05702861 317.43677533 -45.42553711 313.33007812 C-46.19897461 312.63527344 -46.97241211 311.94046875 -47.76928711 311.22460938 C-52.85810614 304.83592896 -54.54923515 297.83074102 -55.35131836 289.85351562 C-55.46429764 288.8533139 -55.57727692 287.85311218 -55.69367981 286.82260132 C-55.95909452 284.45709951 -56.21762275 282.09081958 -56.4710083 279.72399902 C-56.98879149 274.89240979 -57.54289151 270.06507446 -58.0949707 265.23730469 C-59.11115411 256.32554503 -60.10389452 247.41136744 -61.08309746 238.49547195 C-61.65553608 233.28423482 -62.231775 228.0734901 -62.81787109 222.86376953 C-63.39419265 217.74065174 -63.9607096 212.61653463 -64.52053261 207.49158859 C-64.73209307 205.56907969 -64.94688627 203.64692313 -65.16527367 201.72517776 C-66.23109717 192.32369467 -67.1096973 182.99549874 -67.15722656 173.52685547 C-67.16301066 172.79263681 -67.16879477 172.05841816 -67.17475414 171.30195045 C-67.10475866 162.90075963 -64.16329874 157.12541442 -58.57397461 151.02539062 C-55.16146272 147.90399349 -51.66696228 145.51757812 -46.92553711 145.51757812 C-47.10729492 143.92888916 -47.10729492 143.92888916 -47.29272461 142.30810547 C-47.74337626 138.36121987 -48.18960088 134.41384399 -48.63452148 130.46630859 C-48.82733265 128.76109444 -49.02132815 127.05601375 -49.21655273 125.35107422 C-49.49770048 122.8939003 -49.77452065 120.43627059 -50.05053711 117.97851562 C-50.13803223 117.22202728 -50.22552734 116.46553894 -50.31567383 115.68612671 C-50.76934515 111.60565209 -51.01657971 107.63156568 -50.92553711 103.51757812 C-51.87428711 103.60007812 -52.82303711 103.68257813 -53.80053711 103.76757812 C-60.23802155 103.75452035 -65.89133854 100.84763104 -71.17553711 97.39257812 C-79.19572996 89.00783106 -81.41340396 80.80807245 -81.19897461 69.54101562 C-80.83273381 61.70491295 -77.23578718 55.98477096 -71.99194336 50.31054688 C-65.18680331 44.40589795 -57.73047069 42.34825248 -48.92553711 42.51757812 C-48.68770508 41.64359375 -48.68770508 41.64359375 -48.44506836 40.75195312 C-44.30494894 26.20435117 -38.92513241 13.95040918 -25.41703892 5.86565399 C-17.0794554 1.35444108 -9.39797065 -0.07259526 0 0 Z " fill="#010101" transform="translate(180.925537109375,56.482421875)"/>
<path d="M0 0 C71.94 0 143.88 0 218 0 C218 6.24882439 217.96480802 11.50294233 217.125 17.5390625 C217.03621582 18.19079437 216.94743164 18.84252625 216.85595703 19.51400757 C216.57689806 21.5519289 216.28865697 23.58841852 216 25.625 C215.80667574 27.02465465 215.61396298 28.4243939 215.421875 29.82421875 C214.95495283 33.21714894 214.4797995 36.6088639 214 40 C213.27701092 40.00238835 212.55402184 40.00477671 211.80912399 40.00723743 C194.2242823 40.06635097 176.63958805 40.14187753 159.05489731 40.23571491 C150.55109648 40.28069725 142.04733776 40.32010624 133.54345703 40.34643555 C126.13222543 40.36939594 118.72112682 40.4027719 111.31000066 40.44870156 C107.38516208 40.47266036 103.46045542 40.49137165 99.53554535 40.49761391 C95.84188747 40.50365285 92.14856725 40.52360903 88.45503426 40.55427551 C86.45197092 40.56727324 84.44882878 40.56548255 82.44572449 40.5632782 C80.65788292 40.58208542 80.65788292 40.58208542 78.83392334 40.60127258 C77.79782803 40.60588155 76.76173271 40.61049051 75.69424057 40.61523914 C72.60956069 41.05575811 71.22272643 41.84692085 69 44 C68.44414861 46.20539888 68.44414861 46.20539888 68.625 48.5625 C68.64433594 49.74005859 68.64433594 49.74005859 68.6640625 50.94140625 C68.83010648 53.21943362 68.83010648 53.21943362 71 55 C73.7595 55.30424974 73.7595 55.30424974 77.04656982 55.2515564 C78.98135696 55.25963066 78.98135696 55.25963066 80.95523071 55.26786804 C82.3930058 55.2638534 83.83078046 55.25968247 85.26855469 55.25537109 C86.7763386 55.25811986 88.28412106 55.26179906 89.79190063 55.26634216 C93.04403386 55.27446714 96.29609827 55.27661934 99.54824066 55.27439499 C104.69166198 55.27156698 109.83494534 55.28589545 114.97833252 55.30337524 C129.60597653 55.35044879 144.23361178 55.37433904 158.86132812 55.38085938 C166.93620431 55.38461077 175.01092504 55.40264886 183.08573461 55.43595374 C188.19726355 55.45617248 193.30839165 55.45853543 198.41994429 55.44767356 C201.60410004 55.44506454 204.78802301 55.45908016 207.97211838 55.47775459 C209.44669369 55.4830729 210.92131197 55.48158589 212.39587021 55.47271919 C214.41239425 55.46157371 216.42901312 55.47739383 218.44549561 55.49447632 C220.13677645 55.49611062 220.13677645 55.49611062 221.86222458 55.49777794 C226.45243681 56.23247228 229.46110505 58.56723574 232.8125 61.6875 C236.29332682 68.46595223 234.85964203 76.88612734 234.03125 84.16796875 C233.85793655 85.79581299 233.85793655 85.79581299 233.68112183 87.45654297 C233.29741054 91.03469249 232.89936025 94.61106565 232.5 98.1875 C232.22554561 100.69370844 231.95162944 103.19997588 231.67822266 105.70629883 C231.24620024 109.65537181 230.81282745 113.60427586 230.3734436 117.55253601 C229.51078024 125.30795239 228.67150357 133.06528706 227.86158371 140.82639599 C227.26508679 146.54162819 226.65741251 152.25559086 226.04127884 157.96873951 C225.67037187 161.41170068 225.30477921 164.85503633 224.9519043 168.29989624 C224.55663688 172.15381624 224.13486999 176.00459159 223.7109375 179.85546875 C223.59748993 180.99983398 223.48404236 182.14419922 223.36715698 183.32324219 C222.7050402 189.13293982 222.14198145 193.56509263 218 198 C213.18309655 201.00600969 209.00378132 201.43018325 203.46032715 201.38768005 C202.19104441 201.39575836 202.19104441 201.39575836 200.89611959 201.40399987 C198.06796715 201.41827808 195.24028284 201.41117609 192.41210938 201.40405273 C190.38157271 201.40975632 188.35103926 201.41672053 186.32051086 201.42485046 C180.81026224 201.44279689 175.30017272 201.44161083 169.78990364 201.43590808 C165.18981385 201.4328188 160.58975475 201.43890568 155.98966932 201.44494683 C145.13875752 201.45899493 134.28792444 201.45742798 123.43701172 201.44604492 C112.24090175 201.43455933 101.04503119 201.44864624 89.84895277 201.4754414 C80.23606157 201.49758658 70.62324558 201.50423855 61.01033068 201.49836498 C55.26901039 201.49499189 49.52784364 201.4974342 43.7865448 201.51461601 C38.3889016 201.53006446 32.99161366 201.52615277 27.5939846 201.50731087 C25.61305497 201.50361939 23.63209914 201.50674968 21.65119362 201.51719666 C18.94694217 201.53036976 16.24387328 201.51889195 13.53967285 201.50120544 C12.75581632 201.51081045 11.97195979 201.52041546 11.16435003 201.53031152 C5.95954988 201.46027068 3.01874508 200.27432044 -1 197 C-4.76421348 192.56035616 -4.83873996 187.31995013 -5.39453125 181.73828125 C-5.50728394 180.70317917 -5.62003662 179.66807709 -5.73620605 178.60160828 C-6.10660703 175.17303913 -6.45959741 171.74291075 -6.8125 168.3125 C-7.06760186 165.91981487 -7.32372186 163.52723809 -7.58081055 161.13476562 C-8.33334802 154.09275986 -9.06562979 147.04875134 -9.79290771 140.00409698 C-10.07174018 137.30574781 -10.35181073 134.60752774 -10.63191509 131.90931034 C-12.97412579 109.34621607 -12.97412579 109.34621607 -14.08325195 98.4152832 C-14.20454468 97.22562454 -14.3258374 96.03596588 -14.45080566 94.81025696 C-14.67718739 92.58816083 -14.90206139 90.36591036 -15.12512207 88.14347839 C-15.60990615 83.39523119 -16.1463509 78.69933355 -17 74 C-17.49128235 69.61872793 -17.37977508 66.75955016 -15.375 62.75 C-12.30747261 59.19812618 -9.51816868 56.40102541 -4.70791626 55.63497925 C-1.95073818 55.49167464 0.78217375 55.47270389 3.54296875 55.49609375 C4.54838211 55.48667252 5.55379547 55.47725128 6.5896759 55.46754456 C9.78915989 55.43894597 12.9878986 55.43581562 16.1875 55.4375 C19.39770354 55.43389654 22.60736874 55.42443512 25.81745911 55.39674377 C27.81176398 55.37990579 29.80624697 55.37711829 31.80058289 55.38975525 C32.70194473 55.38287186 33.60330658 55.37598846 34.53198242 55.36889648 C35.72062141 55.37033913 35.72062141 55.37033913 36.93327332 55.37181091 C39.55668844 54.89984992 40.43472067 54.13330954 42 52 C42.57921311 47.26785128 42.57921311 47.26785128 40.625 43.125 C37.05511932 40.65354415 33.82913359 40.7993937 29.62109375 40.71875 C28.53019188 40.69113586 28.53019188 40.69113586 27.41725159 40.66296387 C24.29988511 40.58416867 21.18230117 40.51639957 18.06469727 40.44775391 C15.79171678 40.39614368 13.51892881 40.33885834 11.24609375 40.28125 C10.18049477 40.26088684 10.18049477 40.26088684 9.09336853 40.2401123 C4.11282987 40.11282987 4.11282987 40.11282987 3 39 C2.41208171 35.04400744 2.04481932 31.06259197 1.64282227 27.08374023 C1.44144377 25.10132341 1.22961428 23.11997711 1.01757812 21.13867188 C0.82131836 19.23118164 0.82131836 19.23118164 0.62109375 17.28515625 C0.5017749 16.12894775 0.38245605 14.97273926 0.25952148 13.78149414 C-0.05506609 9.19763061 0 4.59464582 0 0 Z " fill="#BE7952" transform="translate(147,160)"/>
<path d="M0 0 C56.76 0 113.52 0 172 0 C171.27281507 8.72621921 170.48203704 17.42004931 169.5625 26.125 C169.44068359 27.32253906 169.31886719 28.52007812 169.19335938 29.75390625 C166.88384562 51.60453894 166.88384562 51.60453894 159.5 58.25 C155.4222059 61.10445587 152.74103574 62.24079088 147.71875 62.2734375 C146.71199219 62.2940625 145.70523438 62.3146875 144.66796875 62.3359375 C142.55607145 62.36197816 140.4440634 62.38020807 138.33203125 62.390625 C137.32527344 62.41382813 136.31851563 62.43703125 135.28125 62.4609375 C134.36408203 62.46915527 133.44691406 62.47737305 132.50195312 62.48583984 C129.21621487 63.1610706 128.04546266 64.38321449 126 67 C125.505 68.98 125.505 68.98 125 71 C117.08 71 109.16 71 101 71 C100.34 69.35 99.68 67.7 99 66 C96.58448202 63.40787643 95.23481803 63.02630415 91.68083191 62.62818909 C90.34743643 62.61399627 89.01380635 62.61608367 87.68041992 62.63110352 C86.9498085 62.62733704 86.21919708 62.62357056 85.46644592 62.61968994 C83.88302581 62.61326425 82.29956711 62.61358118 80.71614647 62.61987495 C78.20587345 62.62899561 75.6963458 62.61874974 73.18611145 62.60325623 C66.05043694 62.56318923 58.91482102 62.56194996 51.77905273 62.56420898 C47.41060455 62.56426021 43.04255733 62.54502909 38.67421913 62.51487541 C36.20850476 62.50408366 33.74356689 62.51616187 31.27787781 62.52870178 C29.75449876 62.51979203 28.23112594 62.50971579 26.70776367 62.49829102 C26.02855865 62.50803452 25.34935364 62.51777802 24.64956665 62.52781677 C18.10369945 62.4303658 14.10560764 59.77806867 9.1875 55.625 C4.58508003 50.10209603 4.33687981 43.14955842 3.5 36.25 C3.37326904 35.23881104 3.24653809 34.22762207 3.1159668 33.18579102 C2.73577998 30.12479353 2.36600465 27.06272292 2 24 C1.83685303 22.64720947 1.83685303 22.64720947 1.67041016 21.26708984 C1.37827272 18.8245608 1.09309738 16.38137942 0.8125 13.9375 C0.72871094 13.21916992 0.64492187 12.50083984 0.55859375 11.76074219 C0.11755108 7.77805085 0 4.03465697 0 0 Z " fill="#E6E6E5" transform="translate(170,377)"/>
<path d="M0 0 C71.94 0 143.88 0 218 0 C218 6.24882439 217.96480802 11.50294233 217.125 17.5390625 C217.03621582 18.19079437 216.94743164 18.84252625 216.85595703 19.51400757 C216.57689806 21.5519289 216.28865697 23.58841852 216 25.625 C215.80667574 27.02465465 215.61396298 28.4243939 215.421875 29.82421875 C214.95495283 33.21714894 214.4797995 36.6088639 214 40 C213.27793271 40.00054477 212.55586542 40.00108953 211.8119173 40.00165081 C194.24337236 40.01661733 176.67510915 40.05905872 159.10670948 40.13209057 C150.6107426 40.16674556 142.11493806 40.19209675 133.61889648 40.19555664 C126.21382713 40.19859584 118.80904684 40.21908016 111.40408915 40.26052457 C107.48303376 40.28186058 103.56238938 40.29445231 99.64127541 40.28615379 C95.94990235 40.27861712 92.25936232 40.29441919 88.56814194 40.32806015 C86.56884136 40.34022417 84.56943826 40.32769852 82.57014465 40.31443787 C75.58240031 40.13971925 75.58240031 40.13971925 69.71806335 43.35371399 C67.87929114 45.94318991 67.87929114 45.94318991 67 49 C59.41 49 51.82 49 44 49 C43.01 47.02 42.02 45.04 41 43 C37.61803338 40.33382919 33.56125911 40.67094179 29.42578125 40.62109375 C28.70134323 40.60409927 27.97690521 40.5871048 27.23051453 40.56959534 C24.92459736 40.51660844 22.6186975 40.47621315 20.3125 40.4375 C17.99567902 40.39359628 15.67899812 40.3469656 13.36235046 40.29469299 C11.9223638 40.26268748 10.48225253 40.23581245 9.04206848 40.21446228 C4.11177743 40.11177743 4.11177743 40.11177743 3 39 C2.41208171 35.04400744 2.04481932 31.06259197 1.64282227 27.08374023 C1.44144377 25.10132341 1.22961428 23.11997711 1.01757812 21.13867188 C0.82131836 19.23118164 0.82131836 19.23118164 0.62109375 17.28515625 C0.5017749 16.12894775 0.38245605 14.97273926 0.25952148 13.78149414 C-0.05506609 9.19763061 0 4.59464582 0 0 Z " fill="#E6E6E5" transform="translate(147,160)"/>
<path d="M0 0 C0.92188938 -0.00644889 1.84377877 -0.01289778 2.7936042 -0.0195421 C4.31517286 -0.01489629 4.31517286 -0.01489629 5.86748028 -0.01015663 C6.94386798 -0.01468774 8.02025568 -0.01921886 9.1292612 -0.02388728 C12.75433944 -0.03659873 16.37926874 -0.03490655 20.00436687 -0.03325844 C22.5960284 -0.0392395 25.18768814 -0.04604406 27.77934551 -0.05361366 C34.09961912 -0.07023989 40.41985542 -0.07572396 46.74014906 -0.07683842 C51.87733176 -0.07778822 57.01450214 -0.08189509 62.15168095 -0.08823967 C76.71267628 -0.10585725 91.2736421 -0.11507785 105.83464817 -0.11357872 C106.61994245 -0.11349881 107.40523673 -0.1134189 108.21432781 -0.11333656 C109.39370571 -0.11321392 109.39370571 -0.11321392 110.59690943 -0.1130888 C123.33823977 -0.11227597 136.07945187 -0.13141163 148.82074801 -0.1596133 C161.89964392 -0.18833401 174.97848216 -0.20215401 188.05741042 -0.20042574 C195.40173183 -0.19976151 202.74592933 -0.20526806 210.09022236 -0.22678185 C216.9971938 -0.24688462 223.90389928 -0.2463282 230.81088352 -0.23174858 C233.34814746 -0.22965215 235.88542754 -0.2344107 238.42266369 -0.2464695 C241.88236317 -0.26184933 245.34115078 -0.25266084 248.80082989 -0.23720741 C250.3123603 -0.2526381 250.3123603 -0.2526381 251.85442668 -0.26838052 C257.7414028 -0.21014102 261.00774541 0.39772524 265.52463055 4.25726891 C268.40139899 7.25619312 268.99953865 9.44127097 269.08713055 13.56976891 C268.95153837 18.64091619 267.77677021 21.26986548 264.3254118 24.91742516 C258.97536738 28.89804389 253.48609486 28.54463455 247.09312725 28.52469444 C245.50048374 28.53149111 245.50048374 28.53149111 243.87566561 28.53842509 C240.31207668 28.55110192 236.74863994 28.54944659 233.18503094 28.54779625 C230.63248275 28.55377937 228.07993637 28.56058441 225.52739239 28.56815147 C219.31032432 28.58400121 213.09331216 28.59026072 206.87622578 28.59137623 C201.82299626 28.59232684 196.76977925 28.59643779 191.71655369 28.60277748 C177.38872468 28.62038707 163.06092561 28.62961662 148.7330857 28.62811653 C147.96087021 28.62803662 147.18865471 28.62795671 146.39303875 28.62787437 C145.61988028 28.62779261 144.84672181 28.62771085 144.05013429 28.62762661 C131.51585915 28.62681345 118.9817041 28.64595943 106.4474637 28.67415111 C93.57642662 28.70287188 80.70544813 28.7166919 67.83437818 28.71496356 C60.60857536 28.71429945 53.38289849 28.71980097 46.15712452 28.74131966 C39.36338397 28.76142224 32.56995384 28.76086612 25.77618504 28.74628639 C23.28084583 28.74419011 20.7854902 28.7489476 18.29017925 28.76100731 C14.88750946 28.77638902 11.48576659 28.76719756 8.08311749 28.75174522 C7.09235858 28.76203235 6.10159967 28.77231948 5.08081776 28.78291833 C-1.92866919 28.71242388 -5.00130726 27.25215011 -10.28786945 22.69476891 C-13.11560434 19.27172141 -12.8616325 14.98780641 -12.8308382 10.76898766 C-12.25005736 6.66522852 -10.47622578 5.04876316 -7.47536945 2.25726891 C-4.32263444 0.15544556 -3.59489855 0.00635007 0 0 Z " fill="#595C58" transform="translate(127.47536945343018,115.74273109436035)"/>
<path d="M0 0 C7.92 0 15.84 0 24 0 C24.99 1.98 25.98 3.96 27 6 C29.35163583 7.17581791 30.74837356 7.11052438 33.3671875 7.10546875 C45.23200329 7.24555307 54.72882079 7.78087786 64.1328125 15.82421875 C69.05827353 20.90424446 73 27.79404289 73 35 C2.38 35 -68.24 35 -141 35 C-137.6475807 23.82526901 -135.11653959 17.36703279 -125.24609375 11.19140625 C-121.18144309 9.03537416 -117.80383882 7.75162597 -113.1736908 7.73498535 C-112.23021286 7.72671219 -111.28673492 7.71843903 -110.31466675 7.70991516 C-109.29164459 7.71089706 -108.26862244 7.71187897 -107.21459961 7.71289062 C-105.58454231 7.70264107 -105.58454231 7.70264107 -103.92155457 7.69218445 C-101.56494652 7.67860741 -99.2083091 7.6695471 -96.8516674 7.66447449 C-93.12411597 7.65618724 -89.39680972 7.63568462 -85.66932678 7.61193848 C-77.08600176 7.55961695 -68.50262643 7.52543747 -59.91921234 7.49217987 C-51.42247279 7.4590451 -42.92583912 7.41821503 -34.42920113 7.36405945 C-30.75315397 7.34395947 -27.0771985 7.33566567 -23.40110779 7.32775879 C-21.15273706 7.31478944 -18.90436941 7.30126958 -16.65600586 7.28710938 C-15.11843628 7.28858223 -15.11843628 7.28858223 -13.54980469 7.29008484 C-12.60914658 7.28181168 -11.66848846 7.27353851 -10.69932556 7.26501465 C-9.88358031 7.26208153 -9.06783506 7.25914841 -8.22737026 7.2561264 C-5.63510708 6.95804078 -4.13649717 6.5119187 -2 5 C-1.34 3.35 -0.68 1.7 0 0 Z " fill="#585B57" transform="translate(290,65)"/>
<path d="M0 0 C3.50318529 1.23641834 5.10746533 2.04654869 7.1875 5.125 C7.75 8.0625 7.75 8.0625 7.1875 11.125 C0.88483838 19.52854883 -11.07741946 24.57075064 -21.0625 26.875 C-37.2733664 27.95572443 -37.2733664 27.95572443 -41.171875 25.8515625 C-43.01413377 23.91280446 -43.5120675 22.87742685 -43.875 20.25 C-43.98972656 19.59257812 -44.10445312 18.93515625 -44.22265625 18.2578125 C-43.53717382 14.69330384 -41.61841686 13.29744294 -38.8125 11.125 C-35.4296875 10.55859375 -35.4296875 10.55859375 -31.6875 10.5625 C-22.53078175 10.30659464 -15.49761014 8.19481879 -8.0625 2.8125 C-4.88853426 0.56971562 -4.06030054 0.13312461 0 0 Z " fill="#040201" transform="translate(274.8125,300.875)"/>
<path d="M0 0 C2.65940998 1.11828746 3.49512766 2.24600893 4.8671875 4.78515625 C5.265625 8.09765625 5.265625 8.09765625 5.2421875 11.78515625 C5.24992187 13.00203125 5.25765625 14.21890625 5.265625 15.47265625 C4.84425823 18.97578391 4.4113795 20.38519282 1.8671875 22.78515625 C-0.78102327 23.8292147 -3.30227793 24.04195878 -6.1328125 23.78515625 C-8.6129476 21.94095322 -9.76422413 20.52233298 -11.1328125 17.78515625 C-12.20198565 6.58938595 -12.20198565 6.58938595 -9.1328125 1.41015625 C-5.64342059 -0.47993103 -3.83291189 -0.52944892 0 0 Z " fill="#040302" transform="translate(228.1328125,264.21484375)"/>
<path d="M0 0 C2.65940998 1.11828746 3.49512766 2.24600893 4.8671875 4.78515625 C5.265625 8.09765625 5.265625 8.09765625 5.2421875 11.78515625 C5.24992187 13.00203125 5.25765625 14.21890625 5.265625 15.47265625 C4.84425823 18.97578391 4.4113795 20.38519282 1.8671875 22.78515625 C-0.78102327 23.8292147 -3.30227793 24.04195878 -6.1328125 23.78515625 C-8.6129476 21.94095322 -9.76422413 20.52233298 -11.1328125 17.78515625 C-12.20198565 6.58938595 -12.20198565 6.58938595 -9.1328125 1.41015625 C-5.64342059 -0.47993103 -3.83291189 -0.52944892 0 0 Z " fill="#050302" transform="translate(289.1328125,264.21484375)"/>
<path d="M0 0 C1.07411133 -0.0299707 1.07411133 -0.0299707 2.16992188 -0.06054688 C5.65847392 -0.05731374 7.68945283 0.16463927 10.53515625 2.24609375 C12.77240867 5.45606462 12.60769794 7.62111444 12.0625 11.4375 C10.5 13.625 10.5 13.625 8.0625 15.4375 C4.53125 15.96875 4.53125 15.96875 0.5625 15.9375 C-1.40203125 15.95296875 -1.40203125 15.95296875 -3.40625 15.96875 C-6.9375 15.4375 -6.9375 15.4375 -9.37890625 13.66015625 C-11.92968008 10.02258655 -11.42325414 7.80928728 -10.9375 3.4375 C-8.47590412 -0.6651598 -4.28488697 -0.04219674 0 0 Z " fill="#FCB9AE" transform="translate(204.9375,289.5625)"/>
<path d="M0 0 C1.96453125 0.00193359 1.96453125 0.00193359 3.96875 0.00390625 C7.56562031 0.44555736 9.08226622 0.77799284 11.5 3.4375 C12.36044636 10.21351506 12.36044636 10.21351506 9.9375 13.66015625 C6.55867985 16.12387927 4.1445077 15.97013392 0 15.9375 C-1.96453125 15.95296875 -1.96453125 15.95296875 -3.96875 15.96875 C-7.5 15.4375 -7.5 15.4375 -9.9375 13.625 C-12.22358739 10.42447766 -12.04766615 8.27116303 -11.5 4.4375 C-8.2752175 -0.08525746 -5.35060787 -0.07899519 0 0 Z " fill="#FCB9AE" transform="translate(306.5,289.5625)"/>
</svg>
