<?xml version="1.0" encoding="UTF-8"?>
<svg version="1.1" xmlns="http://www.w3.org/2000/svg" width="512" height="512">
<path d="M0 0 C7.61755728 3.84984364 13.89645509 8.34556046 19.62841797 14.65356445 C27.03585352 21.41667539 34.53448808 20.90630619 44.15625 20.7578125 C45.91259749 20.76201865 47.66893998 20.76934354 49.42526245 20.77961731 C53.08897157 20.78979495 56.75022137 20.76470182 60.41357422 20.71362305 C65.08974823 20.65094658 69.76088805 20.67354042 74.43707466 20.72214794 C78.05788534 20.75089617 81.67752731 20.7360344 85.29830551 20.70812416 C87.02132617 20.69965973 88.7444636 20.70406864 90.46741104 20.72206688 C100.13477237 20.97704066 100.13477237 20.97704066 108.89039612 17.47175598 C111.11454388 15.24572667 112.98774177 12.95790567 114.8984375 10.46484375 C129.93492685 -2.24961935 150.43793153 -8.91111887 169.97265625 -8.05078125 C175.31407996 -7.34922112 175.31407996 -7.34922112 177.6484375 -4.91015625 C178.80859375 -2.9765625 178.80859375 -2.9765625 179.8984375 -0.53515625 C180.41277344 0.50769531 180.92710937 1.55054687 181.45703125 2.625 C188.97497977 18.90487414 191.78093692 35.96230761 188.8984375 53.71484375 C188.5796729 57.17116282 188.56049206 58.8748552 190.296875 61.90625 C191.66479512 63.54721346 193.07303426 65.15508609 194.51171875 66.734375 C209.16105391 83.49359804 217.00987448 108.41879187 217.03125 130.38671875 C217.03253906 131.65902344 217.03382813 132.93132812 217.03515625 134.2421875 C217.03128906 135.55316406 217.02742188 136.86414063 217.0234375 138.21484375 C217.0270035 139.55468845 217.03090693 140.89453229 217.03515625 142.234375 C217.03322266 144.13509766 217.03322266 144.13509766 217.03125 146.07421875 C217.03012207 147.22889648 217.02899414 148.38357422 217.02783203 149.57324219 C216.8984375 152.46484375 216.8984375 152.46484375 215.8984375 155.46484375 C216.98382813 155.69558594 218.06921875 155.92632812 219.1875 156.1640625 C220.63301743 156.49258919 222.07831891 156.82206708 223.5234375 157.15234375 C224.23628906 157.30123047 224.94914062 157.45011719 225.68359375 157.60351562 C230.96167183 158.83829536 234.01174069 160.66783994 237.8984375 164.46484375 C239.43058638 167.52914151 239.12782298 170.08140795 238.8984375 173.46484375 C237.24704445 177.00354315 236.18238521 178.27554528 232.8984375 180.46484375 C225.06606343 181.74299208 218.12781088 179.24728299 210.8984375 176.46484375 C210.5684375 178.44484375 210.2384375 180.42484375 209.8984375 182.46484375 C211.07921875 182.779375 212.26 183.09390625 213.4765625 183.41796875 C215.03404811 183.84956115 216.5913293 184.28189171 218.1484375 184.71484375 C218.92574219 184.91980469 219.70304687 185.12476563 220.50390625 185.3359375 C224.91535893 186.58019338 228.11507643 187.58827627 230.8984375 191.46484375 C232.24138045 195.56705748 232.32913461 199.29942805 230.8359375 203.33984375 C228.3282844 206.09017295 226.43751585 207.26289261 222.8984375 208.46484375 C216.82755381 208.01198864 211.22912488 206.59742143 205.3984375 204.90234375 C204.57601563 204.66837891 203.75359375 204.43441406 202.90625 204.19335938 C200.90214692 203.62242303 198.90007159 203.0443767 196.8984375 202.46484375 C196.63289063 203.0475 196.36734375 203.63015625 196.09375 204.23046875 C194.85982633 206.53701888 193.50832328 208.26208859 191.7734375 210.21484375 C191.16242188 210.91222656 190.55140625 211.60960937 189.921875 212.328125 C187.8984375 214.46484375 187.8984375 214.46484375 185.625 216.4453125 C181.46313263 219.87554162 181.46313263 219.87554162 179.58203125 224.6875 C179.84223503 227.02132772 180.32272941 229.18961383 180.8984375 231.46484375 C181.10559068 232.98312496 181.29437201 234.50407548 181.4609375 236.02734375 C181.6053125 237.16171875 181.7496875 238.29609375 181.8984375 239.46484375 C182.5584375 239.46484375 183.2184375 239.46484375 183.8984375 239.46484375 C184.04539062 238.93117188 184.19234375 238.3975 184.34375 237.84765625 C187.86420212 226.15328081 193.30524252 218.75599885 203.8984375 212.46484375 C212.28842224 208.05361466 225.682498 209.36409322 234.4609375 212.02734375 C243.48634105 215.62488223 250.92298233 221.01942169 255.8984375 229.46484375 C258.13354266 236.17015922 257.80928929 243.40275875 254.8984375 249.83984375 C250.88859991 256.84025853 245.48371467 259.88235436 238.1484375 262.77734375 C234.40857015 264.42577013 232.27141236 265.52559282 230.5234375 269.27734375 C229.93070629 270.98967837 229.39718341 272.72281256 228.8984375 274.46484375 C228.08810952 277.11136947 227.27616104 279.75732791 226.4609375 282.40234375 C226.24743652 283.0989209 226.03393555 283.79549805 225.81396484 284.51318359 C221.472643 298.46907308 214.65129374 307.39665376 201.57421875 314.37109375 C198.67971229 315.55424967 195.99186996 316.06627558 192.8984375 316.46484375 C192.87265625 317.37363281 192.846875 318.28242188 192.8203125 319.21875 C192.17081605 333.61100095 189.96255776 346.93991662 179.7109375 357.77734375 C169.62641944 363.82805459 158.89293403 365.40317419 147.40234375 362.6171875 C139.71343824 359.94554189 133.85610622 355.94462461 127.8984375 350.46484375 C127.30933594 349.9440625 126.72023438 349.42328125 126.11328125 348.88671875 C123.14967925 346.11228283 120.83131839 343.42735465 118.796875 339.9140625 C114.49903028 332.70557462 114.49903028 332.70557462 107.39404297 328.81640625 C100.86077229 328.13726731 94.40042876 328.70253299 87.8984375 329.46484375 C86.57054199 329.60768799 86.57054199 329.60768799 85.21582031 329.75341797 C83.10899718 329.9812383 81.00353756 330.22161644 78.8984375 330.46484375 C78.71051636 331.29508057 78.71051636 331.29508057 78.51879883 332.14208984 C72.1098501 360.07406138 72.1098501 360.07406138 59.05078125 369.84765625 C50.96438725 374.44548663 38.74733395 373.82754476 29.9140625 371.76953125 C27.685701 370.85513463 25.86466127 369.85023556 23.8984375 368.46484375 C23.25777344 368.02914063 22.61710938 367.5934375 21.95703125 367.14453125 C14.93944571 361.78245128 12.5063321 354.92607523 11.16796875 346.40625 C10.942501 343.10919261 10.95405286 340.03438873 11.09765625 336.7421875 C12.18899148 323.57591382 12.18899148 323.57591382 6.9609375 312.08984375 C5.31278933 310.50617712 3.62493014 308.96271408 1.8984375 307.46484375 C0.37787381 305.81691661 -1.12243305 304.15006001 -2.6015625 302.46484375 C-3.35050781 301.64371094 -4.09945312 300.82257813 -4.87109375 299.9765625 C-7.09675601 297.47025631 -9.19677811 294.89559982 -11.2890625 292.27734375 C-12.8925765 290.33930355 -14.49681495 288.40186265 -16.1015625 286.46484375 C-16.58689453 285.84818848 -17.07222656 285.2315332 -17.57226562 284.59619141 C-25.33379095 274.81253386 -31.31918695 270.13250487 -43.5546875 267.5546875 C-57.12383602 264.62669972 -68.59820369 256.49023122 -76.875 245.5546875 C-81.19843691 238.18832206 -81.14286129 229.72025776 -79.51953125 221.52734375 C-77.17592845 213.99357038 -72.65488763 208.93510632 -67.1015625 203.46484375 C-71.77551123 203.46484375 -76.10154711 205.28787474 -80.50195312 206.77539062 C-85.82245134 208.44835508 -89.62226061 208.63015178 -95.1015625 207.46484375 C-98.1015625 205.52734375 -98.1015625 205.52734375 -100.1015625 202.46484375 C-100.79680589 198.99432553 -101.01311977 195.89658878 -100.1015625 192.46484375 C-96.37932066 187.60505024 -92.45707317 186.19724389 -86.7890625 184.65234375 C-86.04849609 184.43642578 -85.30792969 184.22050781 -84.54492188 183.99804688 C-82.73461693 183.47247447 -80.91860891 182.96661332 -79.1015625 182.46484375 C-79.1015625 181.47484375 -79.1015625 180.48484375 -79.1015625 179.46484375 C-79.1015625 178.47484375 -79.1015625 177.48484375 -79.1015625 176.46484375 C-80.35259766 176.89796875 -80.35259766 176.89796875 -81.62890625 177.33984375 C-95.0193577 181.75731227 -95.0193577 181.75731227 -101.1015625 180.46484375 C-103.97186119 178.67090707 -105.59287888 177.48221099 -107.1015625 174.46484375 C-107.375 172.4765625 -107.375 172.4765625 -107.4765625 170.15234375 C-107.52554688 169.39308594 -107.57453125 168.63382813 -107.625 167.8515625 C-106.81972646 164.17975553 -104.99503224 162.79643759 -102.1015625 160.46484375 C-99.6077956 159.2592275 -97.06656048 158.43703035 -94.4140625 157.65234375 C-93.73794922 157.43642578 -93.06183594 157.22050781 -92.36523438 156.99804688 C-87.47358631 155.46484375 -87.47358631 155.46484375 -85.1015625 155.46484375 C-85.17375 154.82160156 -85.2459375 154.17835938 -85.3203125 153.515625 C-88.46851511 122.86437456 -82.25353675 92.65468872 -64.1015625 67.46484375 C-62.18145473 65.13922586 -60.26542875 62.83996122 -58.21875 60.625 C-56.53978147 57.37860281 -57.4666451 55.03179544 -58.1015625 51.46484375 C-59.24744676 32.12066365 -57.67228069 10.2963028 -45.1015625 -5.53515625 C-32.97534105 -13.62491009 -11.89306882 -5.24506655 0 0 Z " fill="#01394A" transform="translate(181.1015625,73.53515625)"/>
<path d="M0 0 C12.67126558 0.44460581 24.24658272 6.16528776 34 14 C34.65613281 14.51691406 35.31226563 15.03382812 35.98828125 15.56640625 C39.8283751 18.71577658 42.87061213 22.15532347 46 26 C48.62177779 27.3108889 50.61524634 27.16083707 53.55126953 27.20532227 C55.29284836 27.2352401 55.29284836 27.2352401 57.0696106 27.26576233 C58.32796722 27.28247482 59.58632385 27.29918732 60.8828125 27.31640625 C62.80962357 27.3475779 62.80962357 27.3475779 64.77536011 27.37937927 C68.19149359 27.43459049 71.60768745 27.48400388 75.02392578 27.53222656 C78.50949481 27.58244857 81.99497609 27.63813097 85.48046875 27.69335938 C92.32023642 27.80092928 99.16008334 27.90237684 106 28 C106.52964355 29.01610352 107.05928711 30.03220703 107.60498047 31.07910156 C108.31715834 32.43306081 109.02957333 33.78689534 109.7421875 35.140625 C110.08918701 35.80787598 110.43618652 36.47512695 110.79370117 37.16259766 C121.90485336 58.20039914 142.7949255 70.7198909 164.8515625 77.9296875 C166.23015735 78.30242342 167.6139147 78.65616375 169 79 C170.04583252 79.26111572 171.09166504 79.52223145 172.16918945 79.79125977 C182.18216171 82.05491741 191.70440112 82.36175969 201.9375 82.1875 C203.50714836 82.17239942 205.07681107 82.15872068 206.64648438 82.14648438 C210.43135476 82.11396458 214.21551078 82.06249262 218 82 C220.7046068 87.12571184 222.73515349 91.85659641 224.1875 97.5 C224.51105469 98.7271875 224.83460938 99.954375 225.16796875 101.21875 C226.92946759 109.2240593 227.12894106 116.83286085 227.0625 125 C227.05798828 126.06089844 227.05347656 127.12179688 227.04882812 128.21484375 C227.03713843 130.80995598 227.02075276 133.40494709 227 136 C226.24291748 135.98332275 225.48583496 135.96664551 224.70581055 135.94946289 C223.21754761 135.9300061 223.21754761 135.9300061 221.69921875 135.91015625 C220.71526123 135.893479 219.73130371 135.87680176 218.7175293 135.85961914 C215.83142879 135.8436168 215.83142879 135.8436168 212.8125 137.4375 C210.51229489 140.68951412 210.28311545 142.88567205 210.515625 146.8125 C211.31253838 150.41146365 213.06615649 151.89528618 216 154 C219.16701423 155.33563611 219.16701423 155.33563611 222 156 C221.34 158.31 220.68 160.62 220 163 C219.26394531 162.95359375 218.52789062 162.9071875 217.76953125 162.859375 C213.34284183 162.69564012 209.91929589 162.60344099 205.8125 164.375 C203.02775054 168.40808543 203.13367912 172.25440155 204 177 C205.79517723 180.08691577 205.79517723 180.08691577 208 182 C198.80912059 194.36014818 184.75746238 203.03341897 170.5625 208.5625 C169.56923706 208.95828247 169.56923706 208.95828247 168.5559082 209.36206055 C160.65238041 212.2509086 154.86283179 209.29680877 147.56640625 206.171875 C139.76508193 202.91733479 130.75564697 201.3681987 122.46484375 203.71875 C117.66303598 205.70681065 114.38814046 208.08246259 111 212 C109.16609475 213.83390525 106.23505882 213.14691187 103.7746582 213.16113281 C103.12400391 213.16609772 102.47334961 213.17106262 101.80297852 213.17617798 C99.63556879 213.19085674 97.46823268 213.19761752 95.30078125 213.203125 C93.78875223 213.20887992 92.27672322 213.21463761 90.76469421 213.22039795 C87.58100037 213.23092963 84.39733188 213.2367554 81.21362305 213.24023438 C77.17142299 213.24566771 73.12956864 213.26957353 69.08747578 213.29820633 C65.95494184 213.31703146 62.82248702 213.32204913 59.68990135 213.32357025 C58.20264013 213.32656219 56.71537911 213.33447077 55.22817421 213.34775543 C40.87599783 213.46660855 28.04360205 211.21887584 15 205 C14.09765625 204.58105469 13.1953125 204.16210938 12.265625 203.73046875 C1.96304431 198.56429028 -6.84093542 190.98185224 -14 182 C-13.34 181.154375 -12.68 180.30875 -12 179.4375 C-9.68821764 175.46412407 -9.34255881 173.51990817 -10 169 C-11.79562405 166.24670979 -13.05254922 164.47372539 -16 163 C-17.70702735 162.93003986 -19.41668003 162.91559846 -21.125 162.9375 C-22.03507812 162.94652344 -22.94515625 162.95554688 -23.8828125 162.96484375 C-24.93082031 162.98224609 -24.93082031 162.98224609 -26 163 C-27.4606285 160.35261084 -28 159.10551666 -28 156 C-27.45730469 155.82984375 -26.91460937 155.6596875 -26.35546875 155.484375 C-23.19179906 154.41271752 -20.57007633 153.4810019 -18 151.3125 C-16.50772309 147.86160965 -16.29463506 144.69368523 -17 141 C-18.87015094 138.56880377 -20.28138345 137.35930827 -23 136 C-24.70702735 135.93003986 -26.41668003 135.91559846 -28.125 135.9375 C-29.03507812 135.94652344 -29.94515625 135.95554688 -30.8828125 135.96484375 C-31.93082031 135.98224609 -31.93082031 135.98224609 -33 136 C-33.84413423 105.19559412 -33.84413423 105.19559412 -29 92 C-28.64591064 91.02015137 -28.64591064 91.02015137 -28.28466797 90.02050781 C-23.39371737 76.820302 -15.81803494 65.77952017 -6.27734375 55.453125 C-3.91199542 52.76227001 -3.79628453 50.59560197 -3.83203125 47.078125 C-4.01000815 44.87617829 -4.47147833 42.89407373 -5 40.75 C-7.64384141 28.20133244 -7.12291918 14.81636832 -2 3 C-1.34 2.01 -0.68 1.02 0 0 Z " fill="#FEFEFE" transform="translate(150,87)"/>
<path d="M0 0 C3.8086937 0.5190724 5.64858426 1.25343294 8.3125 4 C27.14118476 21.29818676 54.22186348 27.19700209 78.953125 27.4140625 C80.34846067 27.43282567 81.74378562 27.45240266 83.13909912 27.4727478 C86.76879474 27.52353249 90.39852694 27.56344095 94.02838135 27.60089111 C97.74947757 27.64127225 101.47042878 27.69220681 105.19140625 27.7421875 C112.46083712 27.83830907 119.73033968 27.92291238 127 28 C127.44657959 28.93811523 127.89315918 29.87623047 128.35327148 30.84277344 C135.59961926 45.84740842 145.12715293 55.04435858 159 64 C160.093125 64.71800781 161.18625 65.43601562 162.3125 66.17578125 C169.5988037 70.90038252 169.5988037 70.90038252 178 71 C180.75329021 69.20437595 182.52627461 67.94745078 184 65 C184.50070321 61.62642666 184.50070321 61.62642666 184 58 C180.7112537 54.16413137 177.16178884 51.70383642 172.8125 49.1875 C163.18885122 43.44774924 151.3349804 35.91219205 147 25 C147.55555556 18.44444444 147.55555556 18.44444444 149 17 C162.70458966 15.62954103 174.50959006 23.55451387 185.625 30.68359375 C188.96120235 32.5327717 191.24447147 32.46944107 195 32 C197.95118716 30.63926358 197.95118716 30.63926358 200 28 C200.46318386 26.07178508 200.46318386 26.07178508 200.75 24 C201.28589794 21.12758704 201.59543619 20.2779446 204.046875 18.59375 C209.86428571 16 209.86428571 16 213 16 C214.38012275 21.3222819 215.70524346 26.65632918 217 32 C217.25620117 33.04293213 217.25620117 33.04293213 217.51757812 34.10693359 C222.43615686 54.46116973 225.31602535 75.86451633 225.4375 96.8125 C225.44749023 97.78848145 225.45748047 98.76446289 225.46777344 99.77001953 C225.37630871 107.29495323 224.59932227 115.50716069 220 121.6875 C215.27350426 123.75534189 211.06232917 123.89950477 206 123 C196.97203083 119.10356379 189.9484952 110.75509112 184.26611328 102.98168945 C179.4134181 96.34455739 174.95185547 91.64853551 166.828125 89.3984375 C162.73550182 88.82185247 158.6900977 88.85593488 154.5625 88.875 C153.31243164 88.86919922 153.31243164 88.86919922 152.03710938 88.86328125 C147.55668807 88.87036492 143.42098832 89.22397545 139 90 C137.62477487 90.08892203 136.24816032 90.15765582 134.87109375 90.2109375 C134.14599609 90.23929687 133.42089844 90.26765625 132.67382812 90.296875 C131.17929273 90.34908584 129.68445793 90.39331901 128.18945312 90.4296875 C123.71254466 90.62104245 120.48775227 90.92293209 117 94 C112.38268725 100.68319891 111.09233518 108.91955617 109.2890625 116.6875 C107.59518548 123.62693167 106.19077733 128.87281511 100 133 C97.9140625 133.37109375 97.9140625 133.37109375 95.625 133.4375 C94.87476563 133.47746094 94.12453125 133.51742187 93.3515625 133.55859375 C89.7248575 132.6971007 88.3160144 130.87005532 86 128 C85.56305779 125.18284774 85.41441748 122.97016637 85.50390625 120.171875 C85.50207504 118.63411443 85.5001179 117.09635401 85.49804688 115.55859375 C85.52520793 113.15814391 85.56235481 110.758129 85.60522461 108.35791016 C85.7400139 98.80853185 85.8326802 91.38048238 79 84 C78.15286172 82.93655436 77.30765642 81.87156459 76.46484375 80.8046875 C75.63082031 79.83789062 74.79679687 78.87109375 73.9375 77.875 C73.24140625 77.06494507 73.24140625 77.06494507 72.53125 76.23852539 C71.53987498 75.08657786 70.54617515 73.93662745 69.55029297 72.78857422 C67.95572983 70.94892547 66.36987989 69.10203473 64.78515625 67.25390625 C58.78670203 60.27552867 52.69065462 53.40761086 46.43359375 46.66015625 C44.29049013 44.31753415 42.23150047 41.92864826 40.1875 39.5 C34.39740803 32.96585416 29.14914609 31.48791306 20.73828125 29.8359375 C10.67473146 27.58557214 -0.05845608 23.91231587 -6 15 C-6.88431877 8.36760925 -6.88431877 8.36760925 -4.65625 4.921875 C-3.16897587 3.19607577 -1.64925678 1.57072074 0 0 Z " fill="#FCFDFD" transform="translate(128,293)"/>
<path d="M0 0 C12.67126558 0.44460581 24.24658272 6.16528776 34 14 C34.65613281 14.51691406 35.31226563 15.03382812 35.98828125 15.56640625 C39.8283751 18.71577658 42.87061213 22.15532347 46 26 C49.38052274 27.69026137 53.22260142 27.24444959 56.9453125 27.31640625 C58.27283035 27.3475779 58.27283035 27.3475779 59.62716675 27.37937927 C62.45969741 27.44486598 65.29232225 27.50375562 68.125 27.5625 C70.04297857 27.60568606 71.96094754 27.64930037 73.87890625 27.69335938 C78.58584051 27.80054647 83.29286967 27.9018164 88 28 C86.92317174 30.22341594 85.8388348 32.44262751 84.75 34.66015625 C84.29947266 35.59341736 84.29947266 35.59341736 83.83984375 36.54553223 C80.97439303 42.35454768 77.33451042 47.18773793 73 52 C72.47019531 52.61101562 71.94039063 53.22203125 71.39453125 53.8515625 C59.33108931 66.89795156 41.04399533 75.81481965 24 80 C22.29263672 80.44666016 22.29263672 80.44666016 20.55078125 80.90234375 C6.34396954 84.12374202 -9.66778216 84.64244474 -24 82 C-22.63161956 77.0254457 -20.34500328 73.2316208 -17.3125 69.125 C-16.86914307 68.51366211 -16.42578613 67.90232422 -15.96899414 67.27246094 C-12.94058376 63.14415291 -9.75408497 59.21618608 -6.27734375 55.453125 C-3.91199542 52.76227001 -3.79628453 50.59560197 -3.83203125 47.078125 C-4.01000815 44.87617829 -4.47147833 42.89407373 -5 40.75 C-7.64384141 28.20133244 -7.12291918 14.81636832 -2 3 C-1.34 2.01 -0.68 1.02 0 0 Z " fill="#F39E01" transform="translate(150,87)"/>
<path d="M0 0 C0.65134925 1.56020867 1.29582964 3.12328579 1.9375 4.6875 C2.47697266 5.99267578 2.47697266 5.99267578 3.02734375 7.32421875 C4.64564018 11.77615872 5.12722686 15.87419828 5.1328125 20.59765625 C5.13410156 21.64630859 5.13539063 22.69496094 5.13671875 23.77539062 C5.13285156 24.86013672 5.12898438 25.94488281 5.125 27.0625 C5.12886719 28.15111328 5.13273437 29.23972656 5.13671875 30.36132812 C5.13542969 31.40869141 5.13414062 32.45605469 5.1328125 33.53515625 C5.13168457 34.487854 5.13055664 35.44055176 5.12939453 36.42211914 C5.01110252 38.7788084 4.64325062 40.74127838 4 43 C3.37317524 47.18832908 2.89156108 51.22649773 5.2109375 54.9375 C6.37621937 56.2067272 7.57194154 57.44836387 8.7890625 58.66796875 C11.57574401 61.60727769 13.89699535 64.7722743 16.25 68.0625 C16.67394043 68.64032227 17.09788086 69.21814453 17.53466797 69.81347656 C20.31975954 73.7088486 22.25048753 77.5410153 24 82 C-5.15540367 86.33629341 -35.58139176 81.54480709 -59.8203125 63.953125 C-62.26002542 62.01592011 -64.63826314 60.03117336 -67 58 C-67.9796875 57.22269531 -68.959375 56.44539063 -69.96875 55.64453125 C-73.09402697 53.03839834 -75.61672684 50.05268897 -78.0625 46.8125 C-78.49224121 46.24877686 -78.92198242 45.68505371 -79.36474609 45.10424805 C-88 33.50707258 -88 33.50707258 -88 28 C-86.81446533 27.99589111 -85.62893066 27.99178223 -84.4074707 27.98754883 C-79.99947928 27.96574011 -75.59237828 27.91143259 -71.18481445 27.84741211 C-69.27897693 27.82424723 -67.37301167 27.80983993 -65.46704102 27.80444336 C-62.72331277 27.79514259 -59.98158937 27.75412929 -57.23828125 27.70703125 C-56.38913651 27.7109639 -55.53999176 27.71489655 -54.66511536 27.71894836 C-50.28216666 27.61139083 -48.54498195 27.44524904 -45.03833008 24.58032227 C-44.36568115 23.72881592 -43.69303223 22.87730957 -43 22 C-32.16907484 10.34647293 -16.53565949 -0.31252965 0 0 Z " fill="#E54E15" transform="translate(344,87)"/>
<path d="M0 0 C6.26479621 0.04496265 11.59446874 1.41723924 16.5625 5.375 C17.33203125 7.546875 17.33203125 7.546875 17.5625 9.375 C17.005625 9.60574219 16.44875 9.83648437 15.875 10.07421875 C5.35438738 14.57035894 -3.17771477 19.37769696 -7.70776367 30.37695312 C-9.30585177 34.75258143 -10.38349872 39.28404342 -11.54296875 43.79101562 C-13.81485181 52.33590063 -16.8751104 58.33340694 -24.4375 63.375 C-25.4275 63.375 -26.4175 63.375 -27.4375 63.375 C-28.11830989 59.194612 -28.72198239 55.00651709 -29.3125 50.8125 C-29.50585938 49.63107422 -29.69921875 48.44964844 -29.8984375 47.23242188 C-31.06124166 38.58406592 -31.06124166 38.58406592 -29.31176758 35.19287109 C-27.78155022 33.44838956 -26.15662904 31.93061092 -24.4375 30.375 C-20.28108882 24.33204414 -16.6467273 18.11581197 -13.75 11.375 C-11.88568131 7.03966909 -10.05315392 4.38804493 -6.4375 1.375 C-4.6879751 -0.3745249 -2.38218021 0.07890024 0 0 Z " fill="#FAFBFB" transform="translate(399.4375,304.625)"/>
<path d="M0 0 C6.69599818 2.75250518 13.14570978 8.99017484 17 15.0625 C17.64582444 20.0676394 17.52090018 22.09015299 15.125 26.5625 C12.7053631 29.04382736 10.61223371 29.63143751 7.1875 29.9375 C2.67846886 29.70160151 0.64451692 28.30388323 -2.5 25.125 C-3.1290625 24.39410156 -3.758125 23.66320312 -4.40625 22.91015625 C-5.87967678 20.96217223 -5.87967678 20.96217223 -8 20.0625 C-11.77268101 20.07142942 -15.53004429 20.19474437 -19.30078125 20.3203125 C-23.17760385 20.05012212 -24.94459593 19.38528859 -28 17.0625 C-30.32432174 14.07408633 -30.47116644 10.76547381 -30.39453125 7.03125 C-29.72206358 3.67556974 -27.59717314 2.10313604 -25 0.0625 C-18.91643603 -2.97928199 -6.5291207 -1.7592025 0 0 Z " fill="#033B4C" transform="translate(224,239.9375)"/>
<path d="M0 0 C2.80703896 1.34040619 3.86054551 2.54745461 6 5 C7.19389536 8.93283177 7.44799464 10.96253872 5.8125 14.75 C2.65530568 18.66927571 1.20793241 19.84661176 -3.9375 20.5 C-7.4532712 20.38193306 -8.00327623 19.99735113 -10.9375 17.625 C-14.14138495 13.54732825 -14.4417127 11.21220986 -14 6 C-10.29694587 0.32198366 -6.71572598 -1.08398546 0 0 Z " fill="#073D4F" transform="translate(296,215)"/>
<path d="M0 0 C3.02508145 1.73602105 5.41790069 3.83580137 7 7 C7.40417552 9.96395382 7.56382171 12.08904926 5.953125 14.69140625 C4.15636794 16.88450678 2.55808759 18.7209562 0 20 C-7.13230769 20.70153846 -7.13230769 20.70153846 -10.9375 17.625 C-14.14138495 13.54732825 -14.4417127 11.21220986 -14 6 C-10.31972815 0.3569165 -6.69430614 -1.14262739 0 0 Z " fill="#073D4F" transform="translate(164,215)"/>
</svg>
