<svg id="svg" version="1.1" xmlns="http://www.w3.org/2000/svg" xmlns:xlink="http://www.w3.org/1999/xlink" width="400" height="400" viewBox="0, 0, 400,400"><g id="svgg"><path id="path0" d="M346.600 32.000 C 346.464 32.220,345.553 32.400,344.576 32.400 C 343.599 32.400,342.800 32.580,342.800 32.800 C 342.800 33.020,342.260 33.200,341.600 33.200 C 340.940 33.200,340.400 33.380,340.400 33.600 C 340.400 33.820,340.040 34.000,339.600 34.000 C 339.160 34.000,338.800 34.180,338.800 34.400 C 338.800 34.620,338.440 34.800,338.000 34.800 C 337.560 34.800,337.200 34.980,337.200 35.200 C 337.200 35.420,336.840 35.600,336.400 35.600 C 335.960 35.600,335.600 35.750,335.600 35.932 C 335.600 36.115,335.105 36.520,334.500 36.832 C 332.849 37.684,328.175 42.553,326.942 44.706 C 325.377 47.437,324.676 48.000,322.840 48.000 C 321.964 48.000,321.136 48.180,321.000 48.400 C 320.864 48.620,320.324 48.800,319.800 48.800 C 319.276 48.800,318.736 48.980,318.600 49.200 C 318.464 49.420,318.003 49.600,317.576 49.600 C 317.149 49.600,316.800 49.780,316.800 50.000 C 316.800 50.220,316.440 50.400,316.000 50.400 C 315.560 50.400,315.200 50.550,315.200 50.732 C 315.200 50.915,314.705 51.319,314.100 51.630 C 313.495 51.940,312.709 52.511,312.353 52.897 C 311.997 53.284,311.586 53.600,311.440 53.600 C 310.987 53.600,308.400 56.346,308.400 56.826 C 308.400 57.075,307.860 57.783,307.200 58.400 C 306.540 59.017,306.000 59.704,306.000 59.927 C 306.000 60.151,305.865 60.393,305.700 60.467 C 305.268 60.659,303.600 63.972,303.600 64.638 C 303.600 64.947,303.420 65.200,303.200 65.200 C 302.980 65.200,302.800 65.740,302.800 66.400 C 302.800 67.060,302.620 67.600,302.400 67.600 C 302.180 67.600,302.000 68.500,302.000 69.600 C 302.000 70.745,301.818 71.600,301.575 71.600 C 301.289 71.600,301.214 73.009,301.346 75.900 C 301.587 81.191,301.967 84.000,302.440 84.000 C 302.638 84.000,302.800 84.540,302.800 85.200 C 302.800 85.860,302.980 86.400,303.200 86.400 C 303.420 86.400,303.600 86.634,303.600 86.920 C 303.600 87.656,304.541 89.593,304.900 89.597 C 305.065 89.599,305.200 89.842,305.200 90.138 C 305.200 90.434,305.560 91.002,306.000 91.400 C 306.440 91.798,306.800 92.284,306.800 92.480 C 306.800 92.676,307.205 93.270,307.700 93.799 C 308.195 94.328,308.816 95.022,309.079 95.341 C 309.381 95.707,309.623 98.041,309.734 101.661 C 309.921 107.736,310.259 110.400,310.844 110.400 C 311.040 110.400,311.200 110.760,311.200 111.200 C 311.200 111.640,311.358 112.000,311.550 112.000 C 311.743 112.000,312.004 112.518,312.130 113.152 C 312.257 113.785,312.640 114.582,312.980 114.923 C 313.321 115.264,313.600 115.737,313.600 115.975 C 313.600 116.213,314.140 116.972,314.800 117.663 C 315.460 118.354,316.000 119.086,316.000 119.291 C 316.000 119.846,319.094 122.712,320.007 123.002 C 320.443 123.141,320.800 123.394,320.800 123.566 C 320.800 123.738,321.520 124.203,322.400 124.600 C 323.280 124.997,324.000 125.474,324.000 125.661 C 324.000 125.847,324.360 126.000,324.800 126.000 C 325.240 126.000,325.600 126.180,325.600 126.400 C 325.600 126.620,326.050 126.800,326.600 126.800 C 327.150 126.800,327.600 126.980,327.600 127.200 C 327.600 127.420,328.140 127.600,328.800 127.600 C 329.460 127.600,330.000 127.780,330.000 128.000 C 330.000 128.220,330.810 128.400,331.800 128.400 C 332.790 128.400,333.600 128.580,333.600 128.800 C 333.600 129.042,335.333 129.200,338.000 129.200 C 340.667 129.200,342.400 129.042,342.400 128.800 C 342.400 128.580,342.771 128.400,343.225 128.400 C 344.020 128.400,344.042 128.553,343.833 132.700 C 343.392 141.463,342.171 157.074,341.614 161.079 C 341.386 162.718,341.200 165.395,341.200 167.029 C 341.200 168.743,341.031 170.000,340.800 170.000 C 340.567 170.000,340.400 171.325,340.400 173.176 C 340.400 174.923,340.220 176.464,340.000 176.600 C 339.780 176.736,339.600 178.367,339.600 180.224 C 339.600 182.208,339.435 183.600,339.200 183.600 C 338.961 183.600,338.800 185.133,338.800 187.400 C 338.800 189.667,338.639 191.200,338.400 191.200 C 338.161 191.200,338.000 192.733,338.000 195.000 L 338.000 198.800 334.800 198.800 C 332.933 198.800,331.600 198.967,331.600 199.200 C 331.600 199.420,330.610 199.600,329.400 199.600 C 328.190 199.600,327.200 199.780,327.200 200.000 C 327.200 200.220,326.660 200.400,326.000 200.400 C 325.340 200.400,324.800 200.580,324.800 200.800 C 324.800 201.020,324.095 201.200,323.233 201.200 C 322.372 201.200,321.607 201.365,321.533 201.566 C 321.205 202.465,317.806 202.226,317.672 201.294 C 317.602 200.802,317.377 200.400,317.172 200.400 C 316.967 200.400,316.800 199.961,316.800 199.424 C 316.800 198.887,316.620 198.336,316.400 198.200 C 316.180 198.064,316.000 197.603,316.000 197.176 C 316.000 196.749,315.820 196.400,315.600 196.400 C 315.380 196.400,315.200 196.040,315.200 195.600 C 315.200 195.160,315.020 194.800,314.800 194.800 C 314.580 194.800,314.400 194.451,314.400 194.024 C 314.400 193.597,314.220 193.136,314.000 193.000 C 313.780 192.864,313.600 192.403,313.600 191.976 C 313.600 191.549,313.420 191.200,313.200 191.200 C 312.980 191.200,312.800 190.840,312.800 190.400 C 312.800 189.960,312.620 189.600,312.400 189.600 C 312.180 189.600,312.000 189.240,312.000 188.800 C 312.000 188.360,311.820 188.000,311.600 188.000 C 311.380 188.000,311.200 187.640,311.200 187.200 C 311.200 186.760,311.020 186.400,310.800 186.400 C 310.580 186.400,310.400 186.040,310.400 185.600 C 310.400 185.160,310.265 184.799,310.100 184.797 C 309.935 184.795,309.597 184.390,309.349 183.897 C 309.100 183.404,308.404 182.011,307.800 180.802 C 306.596 178.389,304.433 175.077,303.923 174.867 C 303.745 174.793,303.600 174.428,303.600 174.055 C 303.600 173.682,303.240 173.117,302.800 172.800 C 302.360 172.483,302.000 171.943,302.000 171.600 C 302.000 171.257,301.640 170.717,301.200 170.400 C 300.760 170.083,300.400 169.620,300.400 169.371 C 300.400 169.122,299.860 168.354,299.200 167.663 C 298.540 166.972,298.000 166.252,298.000 166.063 C 298.000 165.874,297.503 165.197,296.896 164.559 C 296.288 163.922,295.351 162.770,294.813 162.000 C 294.275 161.230,293.267 160.060,292.572 159.400 C 290.194 157.142,290.085 155.621,292.035 151.905 C 292.236 151.523,292.400 150.769,292.400 150.229 C 292.400 149.689,292.580 149.136,292.800 149.000 C 293.020 148.864,293.200 148.043,293.200 147.176 C 293.200 146.309,293.380 145.600,293.600 145.600 C 293.854 145.600,294.000 142.608,294.000 137.424 C 294.000 132.404,293.846 129.152,293.600 129.000 C 293.380 128.864,293.200 128.043,293.200 127.176 C 293.200 126.309,293.020 125.600,292.800 125.600 C 292.580 125.600,292.400 125.060,292.400 124.400 C 292.400 123.740,292.220 123.200,292.000 123.200 C 291.780 123.200,291.600 122.742,291.600 122.182 C 291.600 121.019,288.108 113.600,287.560 113.600 C 287.362 113.600,287.197 113.375,287.193 113.100 C 287.177 112.027,278.462 102.800,277.464 102.800 C 277.196 102.800,276.717 102.440,276.400 102.000 C 276.083 101.560,275.627 101.200,275.387 101.200 C 275.147 101.200,274.602 100.875,274.175 100.478 C 273.749 100.080,272.815 99.497,272.100 99.180 C 271.385 98.864,270.800 98.469,270.800 98.302 C 270.800 98.136,270.440 98.000,270.000 98.000 C 269.560 98.000,269.200 97.820,269.200 97.600 C 269.200 97.380,268.660 97.200,268.000 97.200 C 267.340 97.200,266.800 97.064,266.800 96.897 C 266.800 96.531,263.933 95.600,262.806 95.600 C 262.363 95.600,262.000 95.437,262.000 95.237 C 262.000 94.428,245.831 93.609,245.061 94.379 C 244.829 94.611,243.877 94.800,242.944 94.800 C 242.011 94.800,241.136 94.980,241.000 95.200 C 240.864 95.420,240.133 95.600,239.376 95.600 C 238.619 95.600,238.000 95.780,238.000 96.000 C 238.000 96.220,237.460 96.400,236.800 96.400 C 236.140 96.400,235.600 96.580,235.600 96.800 C 235.600 97.020,235.240 97.200,234.800 97.200 C 234.360 97.200,234.000 97.380,234.000 97.600 C 234.000 97.820,233.747 98.000,233.438 98.000 C 232.772 98.000,229.459 99.668,229.267 100.100 C 229.193 100.265,228.828 100.400,228.455 100.400 C 228.082 100.400,227.517 100.760,227.200 101.200 C 226.883 101.640,226.465 102.000,226.272 102.000 C 226.079 102.000,225.417 102.540,224.800 103.200 C 224.183 103.860,223.477 104.400,223.231 104.400 C 222.792 104.400,218.400 108.577,218.400 108.995 C 218.400 109.112,217.860 109.772,217.200 110.463 C 216.540 111.154,216.000 111.850,216.000 112.010 C 216.000 112.381,212.268 111.986,212.000 111.586 C 211.890 111.422,210.900 111.184,209.800 111.058 C 208.700 110.932,206.540 110.633,205.000 110.394 C 196.372 109.056,177.010 108.614,168.400 109.559 C 166.090 109.813,163.075 110.121,161.700 110.244 C 160.325 110.367,159.200 110.633,159.200 110.834 C 159.200 111.035,158.221 111.200,157.024 111.200 C 155.827 111.200,154.736 111.380,154.600 111.600 C 153.965 112.627,149.600 111.774,149.600 110.623 C 149.600 109.944,140.141 101.200,139.407 101.200 C 139.275 101.200,138.780 100.840,138.308 100.400 C 137.836 99.960,137.213 99.600,136.925 99.600 C 136.636 99.600,136.400 99.420,136.400 99.200 C 136.400 98.980,136.040 98.800,135.600 98.800 C 135.160 98.800,134.800 98.620,134.800 98.400 C 134.800 98.180,134.451 98.000,134.024 98.000 C 133.597 98.000,133.136 97.820,133.000 97.600 C 132.864 97.380,132.313 97.200,131.776 97.200 C 131.239 97.200,130.800 97.020,130.800 96.800 C 130.800 96.580,130.361 96.400,129.824 96.400 C 129.287 96.400,128.736 96.220,128.600 96.000 C 128.464 95.780,127.859 95.600,127.256 95.600 C 126.653 95.600,125.989 95.437,125.780 95.239 C 124.908 94.410,109.200 93.562,109.200 94.343 C 109.200 94.554,108.255 94.822,107.100 94.939 C 103.760 95.278,102.000 95.660,102.000 96.044 C 102.000 96.240,101.460 96.400,100.800 96.400 C 100.140 96.400,99.600 96.580,99.600 96.800 C 99.600 97.020,99.328 97.200,98.995 97.200 C 98.662 97.200,98.077 97.368,97.695 97.574 C 97.313 97.779,96.415 98.183,95.700 98.471 C 94.985 98.760,94.400 99.131,94.400 99.298 C 94.400 99.464,94.130 99.600,93.800 99.600 C 93.470 99.600,93.200 99.780,93.200 100.000 C 93.200 100.220,92.930 100.400,92.600 100.400 C 92.270 100.400,92.000 100.550,92.000 100.732 C 92.000 100.915,91.505 101.320,90.900 101.632 C 90.295 101.945,89.323 102.695,88.740 103.300 C 88.156 103.905,87.470 104.400,87.214 104.400 C 86.522 104.400,80.000 111.373,80.000 112.113 C 80.000 112.289,79.640 112.820,79.200 113.292 C 78.760 113.764,78.400 114.387,78.400 114.675 C 78.400 114.964,78.220 115.200,78.000 115.200 C 77.780 115.200,77.600 115.560,77.600 116.000 C 77.600 116.440,77.420 116.800,77.200 116.800 C 76.980 116.800,76.800 117.160,76.800 117.600 C 76.800 118.040,76.664 118.400,76.498 118.400 C 76.131 118.400,75.210 120.913,74.922 122.700 C 74.807 123.415,74.552 124.000,74.356 124.000 C 74.160 124.000,74.000 124.529,74.000 125.176 C 74.000 125.823,73.820 126.464,73.600 126.600 C 73.380 126.736,73.200 127.737,73.200 128.824 C 73.200 129.911,73.020 130.800,72.800 130.800 C 72.549 130.800,72.400 133.267,72.400 137.400 C 72.400 141.533,72.549 144.000,72.800 144.000 C 73.020 144.000,73.200 144.900,73.200 146.000 C 73.200 147.100,73.380 148.000,73.600 148.000 C 73.820 148.000,74.000 148.600,74.000 149.333 C 74.000 150.067,74.112 150.779,74.250 150.916 C 74.788 151.454,76.313 156.627,76.064 157.069 C 75.700 157.716,72.874 161.018,71.300 162.637 C 70.585 163.372,70.000 164.133,70.000 164.327 C 70.000 164.522,69.460 165.246,68.800 165.937 C 68.140 166.628,67.600 167.348,67.600 167.537 C 67.600 167.726,67.060 168.446,66.400 169.137 C 65.740 169.828,65.200 170.625,65.200 170.908 C 65.200 171.191,64.840 171.683,64.400 172.000 C 63.960 172.317,63.600 172.882,63.600 173.255 C 63.600 173.628,63.453 173.993,63.272 174.067 C 62.745 174.281,59.794 178.848,58.987 180.700 C 58.579 181.635,58.101 182.400,57.923 182.400 C 57.745 182.400,57.600 182.760,57.600 183.200 C 57.600 183.640,57.420 184.000,57.200 184.000 C 56.980 184.000,56.800 184.360,56.800 184.800 C 56.800 185.240,56.620 185.600,56.400 185.600 C 56.180 185.600,56.000 185.960,56.000 186.400 C 56.000 186.840,55.820 187.200,55.600 187.200 C 55.380 187.200,55.200 187.560,55.200 188.000 C 55.200 188.440,55.020 188.800,54.800 188.800 C 54.580 188.800,54.400 189.160,54.400 189.600 C 54.400 190.040,54.220 190.400,54.000 190.400 C 53.780 190.400,53.600 190.760,53.600 191.200 C 53.600 191.640,53.420 192.000,53.200 192.000 C 52.980 192.000,52.800 192.360,52.800 192.800 C 52.800 193.240,52.620 193.600,52.400 193.600 C 52.180 193.600,52.000 193.960,52.000 194.400 C 52.000 194.840,51.820 195.200,51.600 195.200 C 51.380 195.200,51.200 195.650,51.200 196.200 C 51.200 196.750,51.020 197.200,50.800 197.200 C 50.580 197.200,50.400 197.549,50.400 197.976 C 50.400 198.403,50.220 198.864,50.000 199.000 C 49.780 199.136,49.600 199.687,49.600 200.224 C 49.600 200.761,49.420 201.200,49.200 201.200 C 48.980 201.200,48.800 201.560,48.800 202.000 C 48.800 202.440,48.620 202.800,48.400 202.800 C 48.180 202.800,48.000 202.620,48.000 202.400 C 48.000 202.180,47.471 202.000,46.824 202.000 C 46.177 202.000,45.536 201.820,45.400 201.600 C 45.264 201.380,44.533 201.200,43.776 201.200 C 43.019 201.200,42.400 201.020,42.400 200.800 C 42.400 200.580,41.781 200.400,41.024 200.400 C 40.267 200.400,39.536 200.220,39.400 200.000 C 39.264 199.780,38.364 199.600,37.400 199.600 C 36.436 199.600,35.536 199.420,35.400 199.200 C 35.071 198.667,26.400 198.667,26.400 199.200 C 26.400 199.420,25.500 199.600,24.400 199.600 C 23.300 199.600,22.400 199.780,22.400 200.000 C 22.400 200.220,21.860 200.400,21.200 200.400 C 20.540 200.400,20.000 200.580,20.000 200.800 C 20.000 201.020,19.460 201.200,18.800 201.200 C 18.140 201.200,17.600 201.380,17.600 201.600 C 17.600 201.820,17.240 202.000,16.800 202.000 C 16.360 202.000,16.000 202.180,16.000 202.400 C 16.000 202.620,15.764 202.800,15.475 202.800 C 15.187 202.800,14.564 203.160,14.092 203.600 C 13.620 204.040,13.040 204.400,12.803 204.400 C 12.567 204.400,11.783 204.985,11.062 205.700 C 10.340 206.415,9.266 207.358,8.675 207.795 C 8.084 208.232,7.600 208.727,7.600 208.894 C 7.600 209.062,6.880 209.941,6.000 210.848 C 5.120 211.755,4.400 212.745,4.400 213.048 C 4.400 213.352,4.220 213.600,4.000 213.600 C 3.780 213.600,3.600 213.960,3.600 214.400 C 3.600 214.840,3.465 215.201,3.300 215.203 C 2.941 215.207,2.000 217.144,2.000 217.880 C 2.000 218.166,1.820 218.400,1.600 218.400 C 1.380 218.400,1.200 218.925,1.200 219.567 C 1.200 220.208,0.975 220.808,0.700 220.900 C 0.318 221.027,0.200 223.369,0.200 230.800 C 0.200 238.231,0.318 240.573,0.700 240.700 C 0.975 240.792,1.200 241.201,1.200 241.610 C 1.200 242.018,1.380 242.464,1.600 242.600 C 1.820 242.736,2.000 243.287,2.000 243.824 C 2.000 244.361,2.180 244.800,2.400 244.800 C 2.620 244.800,2.800 245.120,2.800 245.512 C 2.800 245.903,3.160 246.483,3.600 246.800 C 4.040 247.117,4.400 247.657,4.400 248.000 C 4.400 248.343,4.760 248.883,5.200 249.200 C 5.640 249.517,6.000 249.983,6.000 250.235 C 6.000 251.986,14.810 258.800,17.075 258.800 C 17.364 258.800,17.600 258.980,17.600 259.200 C 17.600 259.420,17.960 259.600,18.400 259.600 C 18.840 259.600,19.200 259.780,19.200 260.000 C 19.200 260.220,19.740 260.400,20.400 260.400 C 21.060 260.400,21.600 260.580,21.600 260.800 C 21.600 261.020,22.320 261.200,23.200 261.200 C 24.080 261.200,24.800 261.380,24.800 261.600 C 24.800 261.820,25.340 262.000,26.000 262.000 C 26.660 262.000,27.200 262.180,27.200 262.400 C 27.200 262.620,27.830 262.800,28.600 262.800 C 29.370 262.800,30.000 262.980,30.000 263.200 C 30.000 263.420,30.720 263.600,31.600 263.600 C 32.480 263.600,33.200 263.780,33.200 264.000 C 33.200 264.220,33.729 264.400,34.376 264.400 C 35.023 264.400,35.664 264.580,35.800 264.800 C 35.936 265.020,36.667 265.200,37.424 265.200 C 38.181 265.200,38.800 265.380,38.800 265.600 C 38.800 265.820,39.160 266.000,39.600 266.000 C 40.329 266.000,40.400 266.267,40.400 269.000 C 40.400 270.650,40.556 272.000,40.747 272.000 C 40.938 272.000,41.207 273.305,41.344 274.900 C 41.661 278.578,42.509 283.447,42.900 283.835 C 43.065 283.999,43.200 284.723,43.200 285.443 C 43.200 286.163,43.380 286.864,43.600 287.000 C 43.820 287.136,44.000 287.766,44.000 288.400 C 44.000 289.034,44.180 289.664,44.400 289.800 C 44.620 289.936,44.800 290.476,44.800 291.000 C 44.800 291.524,44.944 292.042,45.121 292.151 C 45.297 292.260,45.690 293.261,45.993 294.375 C 46.296 295.489,46.692 296.400,46.872 296.400 C 47.053 296.400,47.200 296.839,47.200 297.376 C 47.200 297.913,47.380 298.464,47.600 298.600 C 47.820 298.736,48.000 299.197,48.000 299.624 C 48.000 300.051,48.180 300.400,48.400 300.400 C 48.620 300.400,48.800 300.760,48.800 301.200 C 48.800 301.640,48.980 302.000,49.200 302.000 C 49.420 302.000,49.600 302.720,49.600 303.600 C 49.600 304.480,49.420 305.200,49.200 305.200 C 48.980 305.200,48.800 305.639,48.800 306.176 C 48.800 306.713,48.620 307.264,48.400 307.400 C 48.180 307.536,48.000 307.997,48.000 308.424 C 48.000 308.851,47.820 309.200,47.600 309.200 C 47.380 309.200,47.200 309.830,47.200 310.600 C 47.200 311.370,47.038 312.000,46.840 312.000 C 45.969 312.000,45.150 329.710,45.982 330.542 C 46.212 330.772,46.400 331.723,46.400 332.656 C 46.400 333.589,46.580 334.464,46.800 334.600 C 47.020 334.736,47.200 335.377,47.200 336.024 C 47.200 336.671,47.380 337.200,47.600 337.200 C 47.820 337.200,48.000 337.555,48.000 337.988 C 48.000 338.421,48.360 339.417,48.800 340.200 C 49.240 340.983,49.600 341.979,49.600 342.412 C 49.600 342.845,49.780 343.200,50.000 343.200 C 50.220 343.200,50.400 343.478,50.400 343.817 C 50.400 344.156,50.760 344.820,51.200 345.292 C 51.640 345.764,52.000 346.387,52.000 346.675 C 52.000 346.964,52.180 347.200,52.400 347.200 C 52.620 347.200,52.800 347.520,52.800 347.912 C 52.800 348.303,53.160 348.883,53.600 349.200 C 54.040 349.517,54.400 350.004,54.400 350.282 C 54.400 351.365,63.435 360.400,64.518 360.400 C 64.796 360.400,65.283 360.760,65.600 361.200 C 65.917 361.640,66.457 362.000,66.800 362.000 C 67.143 362.000,67.683 362.360,68.000 362.800 C 68.317 363.240,68.897 363.600,69.288 363.600 C 69.680 363.600,70.000 363.780,70.000 364.000 C 70.000 364.220,70.360 364.400,70.800 364.400 C 71.240 364.400,71.600 364.580,71.600 364.800 C 71.600 365.020,72.140 365.200,72.800 365.200 C 73.460 365.200,74.000 365.380,74.000 365.600 C 74.000 365.820,74.349 366.000,74.776 366.000 C 75.203 366.000,75.664 366.180,75.800 366.400 C 75.936 366.620,76.566 366.800,77.200 366.800 C 77.834 366.800,78.464 366.980,78.600 367.200 C 78.736 367.420,79.827 367.600,81.024 367.600 C 82.221 367.600,83.200 367.780,83.200 368.000 C 83.200 368.243,85.000 368.400,87.800 368.400 C 90.600 368.400,92.400 368.243,92.400 368.000 C 92.400 367.780,93.289 367.600,94.376 367.600 C 95.463 367.600,96.464 367.420,96.600 367.200 C 96.736 366.980,97.467 366.800,98.224 366.800 C 98.981 366.800,99.600 366.620,99.600 366.400 C 99.600 366.180,100.039 366.000,100.576 366.000 C 101.113 366.000,101.664 365.820,101.800 365.600 C 101.936 365.380,102.397 365.200,102.824 365.200 C 103.251 365.200,103.600 365.020,103.600 364.800 C 103.600 364.580,103.960 364.400,104.400 364.400 C 104.840 364.400,105.200 364.220,105.200 364.000 C 105.200 363.780,105.560 363.600,106.000 363.600 C 106.440 363.600,106.800 363.420,106.800 363.200 C 106.800 362.980,107.030 362.800,107.312 362.800 C 107.593 362.800,108.083 362.440,108.400 362.000 C 108.717 361.560,109.257 361.200,109.600 361.200 C 109.943 361.200,110.483 360.840,110.800 360.400 C 111.117 359.960,111.562 359.600,111.788 359.600 C 112.195 359.599,113.359 358.693,115.913 356.386 C 117.266 355.165,118.168 354.901,118.600 355.600 C 118.736 355.820,119.456 356.000,120.200 356.000 C 120.944 356.000,121.664 356.180,121.800 356.400 C 121.936 356.620,122.637 356.800,123.357 356.800 C 124.077 356.800,124.801 356.935,124.965 357.100 C 125.308 357.446,129.936 358.312,133.300 358.659 C 134.565 358.789,135.600 359.055,135.600 359.248 C 135.600 359.442,136.680 359.600,138.000 359.600 C 139.333 359.600,140.400 359.778,140.400 360.000 C 140.400 360.226,141.533 360.400,143.000 360.400 C 144.467 360.400,145.600 360.574,145.600 360.800 C 145.600 361.033,146.933 361.200,148.800 361.200 C 150.667 361.200,152.000 361.367,152.000 361.600 C 152.000 361.841,153.659 362.000,156.176 362.000 C 158.529 362.000,160.461 362.175,160.600 362.400 C 160.751 362.644,163.871 362.800,168.624 362.800 C 173.541 362.800,176.400 362.947,176.400 363.200 C 176.400 363.452,179.067 363.600,183.600 363.600 C 188.133 363.600,190.800 363.452,190.800 363.200 C 190.800 362.947,193.592 362.800,198.376 362.800 C 202.996 362.800,206.049 362.644,206.200 362.400 C 206.338 362.177,208.204 362.000,210.424 362.000 C 212.808 362.000,214.400 361.840,214.400 361.600 C 214.400 361.365,215.800 361.200,217.800 361.200 C 219.800 361.200,221.200 361.035,221.200 360.800 C 221.200 360.578,222.267 360.400,223.600 360.400 C 224.933 360.400,226.000 360.222,226.000 360.000 C 226.000 359.778,227.067 359.600,228.400 359.600 C 229.720 359.600,230.800 359.441,230.800 359.247 C 230.800 359.052,231.925 358.790,233.300 358.663 C 234.675 358.537,237.240 358.145,239.000 357.792 C 240.760 357.439,242.787 357.052,243.504 356.931 C 244.221 356.810,244.906 356.551,245.027 356.356 C 245.148 356.160,245.867 356.000,246.624 356.000 C 247.381 356.000,248.000 355.820,248.000 355.600 C 248.000 354.749,249.500 355.263,250.918 356.600 C 251.734 357.370,252.544 358.000,252.717 358.000 C 252.890 358.000,253.828 358.720,254.800 359.600 C 255.772 360.480,256.800 361.200,257.084 361.200 C 257.368 361.200,257.600 361.350,257.600 361.532 C 257.600 361.715,258.095 362.120,258.700 362.432 C 259.305 362.744,259.890 363.089,260.000 363.199 C 260.545 363.746,263.770 365.200,264.438 365.200 C 264.857 365.200,265.200 365.380,265.200 365.600 C 265.200 365.820,265.639 366.000,266.176 366.000 C 266.713 366.000,267.264 366.180,267.400 366.400 C 267.536 366.620,268.177 366.800,268.824 366.800 C 269.471 366.800,270.000 366.963,270.000 367.163 C 270.000 367.598,273.061 367.971,278.900 368.247 C 281.796 368.384,283.200 368.311,283.200 368.025 C 283.200 367.772,284.173 367.600,285.600 367.600 C 286.933 367.600,288.000 367.422,288.000 367.200 C 288.000 366.980,288.630 366.800,289.400 366.800 C 290.170 366.800,290.800 366.620,290.800 366.400 C 290.800 366.180,291.340 366.000,292.000 366.000 C 292.660 366.000,293.200 365.820,293.200 365.600 C 293.200 365.380,293.560 365.200,294.000 365.200 C 294.440 365.200,294.800 365.020,294.800 364.800 C 294.800 364.580,295.160 364.400,295.600 364.400 C 296.040 364.400,296.400 364.220,296.400 364.000 C 296.400 363.780,296.760 363.600,297.200 363.600 C 297.640 363.600,298.000 363.420,298.000 363.200 C 298.000 362.980,298.320 362.800,298.712 362.800 C 299.103 362.800,299.683 362.440,300.000 362.000 C 300.317 361.560,300.825 361.200,301.128 361.200 C 301.431 361.200,302.183 360.660,302.800 360.000 C 303.417 359.340,304.122 358.800,304.369 358.800 C 304.941 358.800,310.400 353.326,310.400 352.752 C 310.400 352.515,310.940 351.817,311.600 351.200 C 312.260 350.583,312.800 349.831,312.800 349.528 C 312.800 349.225,313.160 348.717,313.600 348.400 C 314.040 348.083,314.400 347.503,314.400 347.112 C 314.400 346.720,314.580 346.400,314.800 346.400 C 315.020 346.400,315.200 346.040,315.200 345.600 C 315.200 345.160,315.380 344.800,315.600 344.800 C 315.820 344.800,316.000 344.440,316.000 344.000 C 316.000 343.560,316.180 343.200,316.400 343.200 C 316.620 343.200,316.800 342.840,316.800 342.400 C 316.800 341.960,316.980 341.600,317.200 341.600 C 317.420 341.600,317.600 341.240,317.600 340.800 C 317.600 340.360,317.780 340.000,318.000 340.000 C 318.220 340.000,318.400 339.550,318.400 339.000 C 318.400 338.450,318.580 338.000,318.800 338.000 C 319.020 338.000,319.200 337.471,319.200 336.824 C 319.200 336.177,319.380 335.536,319.600 335.400 C 319.820 335.264,320.000 334.544,320.000 333.800 C 320.000 333.056,320.180 332.336,320.400 332.200 C 320.620 332.064,320.800 330.649,320.800 329.056 C 320.800 327.463,320.997 325.963,321.238 325.722 C 321.683 325.277,321.606 323.723,320.826 317.400 C 320.159 311.994,319.930 310.800,319.558 310.800 C 319.361 310.800,319.200 310.260,319.200 309.600 C 319.200 308.940,319.020 308.400,318.800 308.400 C 318.580 308.400,318.400 308.040,318.400 307.600 C 318.400 307.160,318.220 306.800,318.000 306.800 C 317.780 306.800,317.600 306.361,317.600 305.824 C 317.600 305.287,317.420 304.736,317.200 304.600 C 316.980 304.464,316.800 304.003,316.800 303.576 C 316.800 303.149,316.980 302.800,317.200 302.800 C 317.420 302.800,317.600 302.440,317.600 302.000 C 317.600 301.560,317.780 301.200,318.000 301.200 C 318.220 301.200,318.400 300.761,318.400 300.224 C 318.400 299.687,318.580 299.136,318.800 299.000 C 319.020 298.864,319.200 298.403,319.200 297.976 C 319.200 297.549,319.347 297.200,319.528 297.200 C 319.708 297.200,320.104 296.289,320.407 295.175 C 320.710 294.061,321.103 293.060,321.279 292.951 C 321.456 292.842,321.600 292.324,321.600 291.800 C 321.600 291.276,321.780 290.736,322.000 290.600 C 322.220 290.464,322.400 289.911,322.400 289.371 C 322.400 288.831,322.562 288.077,322.761 287.695 C 322.960 287.313,323.305 286.280,323.529 285.400 C 323.753 284.520,324.140 283.028,324.389 282.085 C 324.638 281.142,324.949 278.847,325.080 276.985 C 325.211 275.123,325.472 273.600,325.659 273.600 C 325.847 273.600,326.000 272.338,326.000 270.795 C 326.000 266.875,327.009 265.200,329.371 265.200 C 330.157 265.200,330.800 265.020,330.800 264.800 C 330.800 264.580,331.419 264.400,332.176 264.400 C 332.933 264.400,333.664 264.220,333.800 264.000 C 333.936 263.780,334.577 263.600,335.224 263.600 C 335.871 263.600,336.400 263.420,336.400 263.200 C 336.400 262.980,337.019 262.800,337.776 262.800 C 338.533 262.800,339.264 262.620,339.400 262.400 C 339.979 261.463,340.400 262.137,340.400 264.000 C 340.400 265.100,340.558 266.000,340.750 266.000 C 340.943 266.000,341.206 266.945,341.334 268.100 C 341.462 269.255,341.859 271.460,342.215 273.000 C 342.572 274.540,342.959 276.385,343.075 277.100 C 343.192 277.815,343.448 278.400,343.644 278.400 C 343.840 278.400,344.000 278.929,344.000 279.576 C 344.000 280.223,344.180 280.864,344.400 281.000 C 344.620 281.136,344.800 281.766,344.800 282.400 C 344.800 283.034,344.980 283.664,345.200 283.800 C 345.420 283.936,345.600 284.476,345.600 285.000 C 345.600 285.524,345.780 286.064,346.000 286.200 C 346.220 286.336,346.400 286.876,346.400 287.400 C 346.400 287.924,346.580 288.464,346.800 288.600 C 347.020 288.736,347.200 289.287,347.200 289.824 C 347.200 290.361,347.380 290.800,347.600 290.800 C 347.820 290.800,348.000 291.160,348.000 291.600 C 348.000 292.040,348.180 292.400,348.400 292.400 C 348.620 292.400,348.800 292.940,348.800 293.600 C 348.800 294.260,348.980 294.800,349.200 294.800 C 349.420 294.800,349.600 295.239,349.600 295.776 C 349.600 296.313,349.780 296.864,350.000 297.000 C 350.220 297.136,350.400 297.597,350.400 298.024 C 350.400 298.451,350.580 298.800,350.800 298.800 C 351.020 298.800,351.200 299.239,351.200 299.776 C 351.200 300.313,351.380 300.864,351.600 301.000 C 351.820 301.136,352.000 301.597,352.000 302.024 C 352.000 302.451,352.180 302.800,352.400 302.800 C 352.620 302.800,352.800 303.160,352.800 303.600 C 352.800 304.040,352.980 304.400,353.200 304.400 C 353.420 304.400,353.600 304.749,353.600 305.176 C 353.600 305.603,353.780 306.064,354.000 306.200 C 354.220 306.336,354.400 306.797,354.400 307.224 C 354.400 307.651,354.541 308.000,354.714 308.000 C 354.886 308.000,355.346 308.540,355.736 309.200 C 356.126 309.860,356.705 310.400,357.023 310.400 C 357.340 310.400,357.600 310.580,357.600 310.800 C 357.600 311.033,358.938 311.200,360.813 311.200 C 364.161 311.200,366.800 309.707,366.800 307.813 C 366.800 307.476,366.980 307.200,367.200 307.200 C 367.420 307.200,367.600 306.210,367.600 305.000 C 367.600 303.790,367.420 302.800,367.200 302.800 C 366.980 302.800,366.800 302.361,366.800 301.824 C 366.800 301.287,366.620 300.736,366.400 300.600 C 366.180 300.464,366.000 300.003,366.000 299.576 C 366.000 299.149,365.820 298.800,365.600 298.800 C 365.380 298.800,365.200 298.440,365.200 298.000 C 365.200 297.560,365.020 297.200,364.800 297.200 C 364.580 297.200,364.400 296.928,364.400 296.595 C 364.400 296.262,364.232 295.677,364.026 295.295 C 363.821 294.913,363.417 294.015,363.129 293.300 C 362.840 292.585,362.469 292.000,362.302 292.000 C 362.136 292.000,362.000 291.460,362.000 290.800 C 362.000 290.140,361.820 289.600,361.600 289.600 C 361.380 289.600,361.200 289.060,361.200 288.400 C 361.200 287.740,361.020 287.200,360.800 287.200 C 360.580 287.200,360.400 286.840,360.400 286.400 C 360.400 285.960,360.220 285.600,360.000 285.600 C 359.780 285.600,359.600 285.060,359.600 284.400 C 359.600 283.740,359.420 283.200,359.200 283.200 C 358.980 283.200,358.800 282.829,358.800 282.375 C 358.800 281.921,358.519 280.616,358.176 279.475 C 357.833 278.334,357.365 276.680,357.137 275.800 C 356.909 274.920,356.560 273.887,356.361 273.505 C 356.162 273.123,356.000 272.279,356.000 271.629 C 356.000 270.979,355.840 270.348,355.644 270.227 C 355.308 270.020,355.072 269.007,354.542 265.497 C 354.418 264.671,354.155 263.895,353.958 263.774 C 353.761 263.652,353.600 262.753,353.600 261.776 C 353.600 260.799,353.420 260.000,353.200 260.000 C 352.170 260.000,352.829 257.635,354.100 256.771 C 355.700 255.683,361.200 250.118,361.200 249.587 C 361.200 249.374,361.380 249.200,361.600 249.200 C 361.820 249.200,362.000 248.930,362.000 248.600 C 362.000 248.270,362.180 248.000,362.400 248.000 C 362.620 248.000,362.800 247.722,362.800 247.383 C 362.800 247.044,363.160 246.380,363.600 245.908 C 364.040 245.436,364.400 244.633,364.400 244.125 C 364.400 243.616,364.580 243.200,364.800 243.200 C 365.020 243.200,365.200 242.840,365.200 242.400 C 365.200 241.960,365.380 241.600,365.600 241.600 C 365.820 241.600,366.000 240.970,366.000 240.200 C 366.000 239.430,366.180 238.800,366.400 238.800 C 366.620 238.800,366.800 237.900,366.800 236.800 C 366.800 235.700,366.980 234.800,367.200 234.800 C 367.441 234.800,367.600 233.133,367.600 230.600 C 367.600 228.067,367.441 226.400,367.200 226.400 C 366.980 226.400,366.800 225.500,366.800 224.400 C 366.800 223.300,366.620 222.400,366.400 222.400 C 366.180 222.400,366.000 221.781,366.000 221.024 C 366.000 220.267,365.820 219.536,365.600 219.400 C 365.380 219.264,365.200 218.803,365.200 218.376 C 365.200 217.949,365.020 217.600,364.800 217.600 C 364.580 217.600,364.400 217.240,364.400 216.800 C 364.400 216.360,364.220 216.000,364.000 216.000 C 363.780 216.000,363.600 215.640,363.600 215.200 C 363.600 214.760,363.420 214.400,363.200 214.400 C 362.980 214.400,362.800 214.080,362.800 213.688 C 362.800 213.297,362.440 212.717,362.000 212.400 C 361.560 212.083,361.200 211.655,361.200 211.448 C 361.200 210.580,353.479 203.622,352.500 203.607 C 352.225 203.603,352.000 203.420,352.000 203.200 C 352.000 202.980,351.640 202.800,351.200 202.800 C 350.352 202.800,350.054 201.461,350.800 201.000 C 351.025 200.861,351.200 198.929,351.200 196.576 C 351.200 194.059,351.359 192.400,351.600 192.400 C 351.839 192.400,352.000 190.867,352.000 188.600 C 352.000 186.333,352.161 184.800,352.400 184.800 C 352.633 184.800,352.800 183.475,352.800 181.624 C 352.800 179.877,352.980 178.336,353.200 178.200 C 353.420 178.064,353.600 176.433,353.600 174.576 C 353.600 172.592,353.765 171.200,354.000 171.200 C 354.235 171.200,354.400 169.808,354.400 167.824 C 354.400 165.967,354.580 164.336,354.800 164.200 C 355.020 164.064,355.200 162.379,355.200 160.456 C 355.200 158.533,355.368 156.789,355.573 156.580 C 355.779 156.371,356.047 154.490,356.169 152.400 C 356.291 150.310,356.564 146.170,356.774 143.200 C 356.985 140.230,357.276 135.685,357.422 133.100 L 357.686 128.400 358.843 128.400 C 359.479 128.400,360.000 128.580,360.000 128.800 C 360.000 129.041,361.667 129.200,364.200 129.200 C 366.733 129.200,368.400 129.041,368.400 128.800 C 368.400 128.580,369.199 128.400,370.176 128.400 C 371.153 128.400,372.064 128.220,372.200 128.000 C 372.336 127.780,372.887 127.600,373.424 127.600 C 373.961 127.600,374.400 127.420,374.400 127.200 C 374.400 126.980,374.760 126.800,375.200 126.800 C 375.640 126.800,376.000 126.620,376.000 126.400 C 376.000 126.180,376.360 126.000,376.800 126.000 C 377.240 126.000,377.600 125.820,377.600 125.600 C 377.600 125.380,377.842 125.200,378.139 125.200 C 379.841 125.200,388.000 118.070,388.000 116.583 C 388.000 116.262,388.148 116.000,388.329 116.000 C 388.955 116.000,391.326 110.308,391.514 108.358 C 391.617 107.281,391.859 106.400,392.051 106.400 C 392.243 106.400,392.400 104.042,392.400 101.160 L 392.400 95.921 393.600 94.800 C 394.260 94.183,394.800 93.431,394.800 93.128 C 394.800 92.825,395.160 92.317,395.600 92.000 C 396.040 91.683,396.400 91.193,396.400 90.912 C 396.400 90.630,396.580 90.400,396.800 90.400 C 397.020 90.400,397.200 90.130,397.200 89.800 C 397.200 89.470,397.380 89.200,397.600 89.200 C 397.820 89.200,398.000 88.851,398.000 88.424 C 398.000 87.997,398.180 87.536,398.400 87.400 C 398.620 87.264,398.800 86.818,398.800 86.410 C 398.800 86.001,399.025 85.592,399.300 85.500 C 399.681 85.373,399.800 83.071,399.800 75.800 C 399.800 68.529,399.681 66.227,399.300 66.100 C 399.025 66.008,398.800 65.498,398.800 64.967 C 398.800 64.435,398.620 64.000,398.400 64.000 C 398.180 64.000,398.000 63.766,398.000 63.480 C 398.000 62.744,397.059 60.807,396.700 60.803 C 396.535 60.801,396.400 60.530,396.400 60.200 C 396.400 59.870,396.220 59.600,396.000 59.600 C 395.780 59.600,395.600 59.421,395.600 59.202 C 395.600 58.641,389.015 52.000,388.459 52.000 C 388.206 52.000,388.000 51.820,388.000 51.600 C 388.000 51.380,387.640 51.200,387.200 51.200 C 386.760 51.200,386.399 51.065,386.397 50.900 C 386.393 50.541,384.456 49.600,383.720 49.600 C 383.434 49.600,383.200 49.420,383.200 49.200 C 383.200 48.980,382.660 48.800,382.000 48.800 C 381.340 48.800,380.800 48.620,380.800 48.400 C 380.800 48.180,379.977 48.000,378.971 48.000 C 377.084 48.000,376.000 47.354,376.000 46.229 C 376.000 45.883,375.820 45.600,375.600 45.600 C 375.380 45.600,375.200 45.393,375.200 45.139 C 375.200 44.067,370.015 38.000,369.099 38.000 C 368.876 38.000,368.403 37.684,368.047 37.297 C 367.691 36.911,366.905 36.340,366.300 36.030 C 365.695 35.719,365.200 35.315,365.200 35.132 C 365.200 34.950,364.840 34.800,364.400 34.800 C 363.960 34.800,363.600 34.620,363.600 34.400 C 363.600 34.180,363.060 34.000,362.400 34.000 C 361.740 34.000,361.200 33.820,361.200 33.600 C 361.200 33.380,360.660 33.200,360.000 33.200 C 359.340 33.200,358.800 33.020,358.800 32.800 C 358.800 32.580,358.001 32.400,357.024 32.400 C 356.047 32.400,355.136 32.220,355.000 32.000 C 354.862 31.777,353.004 31.600,350.800 31.600 C 348.596 31.600,346.738 31.777,346.600 32.000 M357.400 45.408 C 361.717 47.334,364.375 50.264,366.382 55.308 C 367.623 58.428,368.632 59.066,373.212 59.623 C 388.609 61.495,394.023 79.506,381.900 88.525 C 379.146 90.573,378.662 92.636,379.849 97.267 C 381.669 104.375,377.983 111.793,370.898 115.279 C 365.789 117.793,360.707 117.219,354.000 113.370 C 351.612 112.000,349.812 112.224,346.230 114.338 C 333.427 121.893,318.892 110.933,322.354 96.335 C 323.338 92.187,322.963 91.181,319.049 87.468 C 308.446 77.411,314.013 61.400,328.714 59.672 C 333.201 59.144,334.349 58.447,335.570 55.511 C 337.707 50.371,340.050 47.618,343.887 45.739 C 347.768 43.837,353.561 43.696,357.400 45.408 M347.741 62.822 C 337.546 64.152,329.600 73.428,329.600 84.000 C 329.600 103.421,353.426 112.940,366.552 98.763 C 380.495 83.703,368.172 60.157,347.741 62.822 M355.198 74.833 C 360.097 77.055,362.524 83.237,360.368 88.000 C 355.776 98.144,340.973 95.100,341.010 84.019 C 341.035 76.553,348.431 71.764,355.198 74.833 M119.743 106.812 C 128.649 108.100,136.192 113.021,141.496 121.003 C 144.802 125.979,146.408 126.582,152.200 125.024 C 169.097 120.479,191.484 120.105,210.091 124.056 C 213.231 124.723,216.512 125.416,217.383 125.596 C 220.933 126.329,222.173 125.600,225.199 121.000 C 227.902 116.890,230.307 114.387,233.800 112.048 C 261.214 93.695,293.655 123.528,277.976 152.674 C 276.889 154.695,276.000 156.788,276.000 157.325 C 276.000 158.467,277.005 161.032,277.596 161.397 C 278.089 161.702,284.995 169.701,286.400 171.595 C 286.950 172.336,287.777 173.406,288.237 173.971 C 288.698 174.537,290.511 177.160,292.267 179.800 C 311.489 208.698,319.070 244.979,312.591 277.068 C 311.672 281.620,308.847 291.056,308.001 292.400 C 307.573 293.080,307.829 293.220,303.544 289.961 C 298.180 285.881,288.526 282.000,283.739 282.000 C 282.784 282.000,282.000 280.341,282.000 278.317 C 282.000 277.678,281.815 276.310,281.589 275.277 C 281.362 274.245,280.995 272.500,280.772 271.400 C 278.382 259.607,268.823 237.995,264.407 234.400 C 264.272 234.290,263.723 233.570,263.186 232.800 C 260.938 229.571,256.416 224.461,252.658 220.900 C 249.036 217.467,246.816 216.978,244.137 219.021 C 240.061 222.130,240.645 224.650,246.963 231.206 C 249.193 233.520,251.552 236.130,252.206 237.006 C 252.860 237.883,253.502 238.690,253.633 238.800 C 256.978 241.612,265.947 259.201,268.013 267.000 C 271.188 278.988,271.689 282.800,270.088 282.800 C 268.798 282.800,263.760 284.584,260.400 286.231 C 244.800 293.877,235.378 311.942,238.197 328.800 C 239.178 334.664,239.935 337.300,241.808 341.376 C 243.045 344.067,242.948 344.168,238.015 345.343 C 228.373 347.640,219.748 348.922,203.600 350.457 C 197.045 351.081,169.771 351.078,163.000 350.454 C 139.015 348.242,122.565 344.945,124.290 342.695 C 124.498 342.423,125.076 341.120,125.574 339.800 C 126.071 338.480,126.627 337.040,126.809 336.600 C 126.991 336.160,127.253 335.260,127.391 334.600 C 127.530 333.940,127.834 332.590,128.066 331.600 C 128.664 329.062,128.941 318.574,128.463 316.624 C 128.244 315.731,127.841 313.920,127.568 312.600 C 127.295 311.280,126.920 310.029,126.736 309.820 C 126.551 309.611,126.398 309.161,126.397 308.820 C 126.372 304.413,112.580 287.600,108.990 287.600 C 108.843 287.600,108.246 287.270,107.662 286.867 C 106.391 285.991,100.994 283.881,98.200 283.169 C 97.100 282.889,96.074 282.470,95.920 282.239 C 94.864 280.652,98.269 266.857,101.898 258.019 C 104.356 252.032,102.686 248.200,97.620 248.200 C 94.541 248.200,93.343 249.294,91.438 253.844 C 88.281 261.387,86.004 269.395,84.798 277.200 C 84.019 282.238,84.121 282.000,82.739 282.000 C 82.054 282.000,80.752 282.194,79.846 282.432 C 78.941 282.669,77.480 283.050,76.600 283.278 C 71.304 284.651,65.034 287.967,61.072 291.489 C 59.081 293.260,58.870 293.136,57.504 289.376 C 43.564 251.005,55.390 198.745,85.579 165.310 C 91.177 159.110,91.612 157.602,89.059 153.247 C 75.845 130.700,94.081 103.103,119.743 106.812 M112.808 128.701 C 109.858 130.183,109.600 131.104,109.601 140.159 C 109.603 147.477,109.674 148.317,110.398 149.504 C 112.717 153.307,118.137 153.311,120.161 149.509 C 121.405 147.175,120.954 131.646,119.600 130.180 C 117.639 128.056,115.163 127.517,112.808 128.701 M249.000 128.735 C 246.057 130.125,245.800 131.045,245.800 140.200 C 245.800 147.146,245.895 148.374,246.519 149.518 C 248.515 153.174,253.591 153.380,256.068 149.906 C 257.359 148.097,257.524 132.572,256.272 130.728 C 254.627 128.305,251.644 127.487,249.000 128.735 M162.359 141.714 C 153.650 147.573,167.923 160.000,183.360 160.000 C 186.066 160.000,188.802 159.841,189.440 159.647 C 190.078 159.452,191.410 159.060,192.400 158.774 C 204.028 155.420,210.981 144.943,203.918 141.419 C 201.265 140.095,199.418 140.614,196.126 143.608 C 188.400 150.633,178.127 150.622,170.600 143.581 C 167.280 140.475,164.977 139.953,162.359 141.714 M175.000 193.045 C 166.901 193.696,148.886 197.950,147.020 199.653 C 146.811 199.844,146.355 200.000,146.007 200.000 C 144.884 200.000,133.127 206.150,128.843 208.979 C 118.481 215.821,105.954 227.794,104.483 232.264 C 102.455 238.424,111.013 241.676,115.070 236.287 C 122.427 226.515,137.689 215.349,150.400 210.438 C 152.270 209.715,154.160 208.979,154.600 208.802 C 156.310 208.116,161.350 206.768,166.500 205.621 C 173.174 204.135,188.798 203.659,195.200 204.748 C 201.919 205.890,206.854 207.055,211.400 208.573 C 212.500 208.940,213.805 209.411,214.300 209.620 C 215.357 210.066,217.071 210.774,218.200 211.231 C 218.640 211.408,220.925 212.464,223.278 213.577 C 228.096 215.855,228.763 215.952,230.958 214.693 C 234.790 212.497,234.953 207.502,231.270 205.114 C 218.491 196.827,193.814 191.535,175.000 193.045 M35.600 211.876 C 36.149 212.068,40.241 213.160,43.549 213.997 C 45.660 214.531,45.701 214.733,44.608 219.231 C 42.490 227.941,41.149 237.630,40.557 248.500 C 40.304 253.155,40.387 253.038,37.800 252.364 C 36.920 252.134,35.570 251.791,34.800 251.600 C 34.030 251.409,32.770 251.077,32.000 250.862 C 31.230 250.647,29.184 250.088,27.454 249.618 C 13.172 245.744,7.195 231.476,14.957 219.785 C 19.202 213.393,29.100 209.600,35.600 211.876 M342.200 212.491 C 360.964 218.915,358.616 244.674,338.800 249.786 C 337.370 250.155,334.850 250.817,333.200 251.256 C 328.191 252.590,327.418 252.781,326.961 252.790 C 326.679 252.797,326.350 250.413,326.039 246.100 C 325.277 235.547,324.087 227.627,321.919 218.686 C 320.967 214.759,321.032 214.558,323.451 213.946 C 324.303 213.731,325.540 213.401,326.200 213.212 C 330.009 212.124,331.954 211.644,333.200 211.486 C 335.611 211.179,339.703 211.636,342.200 212.491 M90.523 293.209 C 111.356 296.173,122.614 315.032,115.357 334.808 C 112.122 343.623,105.056 350.887,96.400 354.295 C 87.045 357.979,75.793 355.069,67.946 346.936 C 51.187 329.567,55.769 303.793,77.200 294.883 C 78.649 294.280,79.830 293.992,83.200 293.420 C 87.208 292.740,87.223 292.740,90.523 293.209 M281.884 293.218 C 314.473 297.591,318.609 341.791,287.600 354.305 C 266.065 362.996,243.204 337.288,250.751 312.867 C 253.765 303.116,263.570 295.251,275.000 293.418 C 276.760 293.136,278.328 292.881,278.484 292.853 C 278.640 292.824,280.170 292.988,281.884 293.218 " stroke="none" fill="#050505" fill-rule="evenodd"></path><path id="path1" d="M361.600 49.000 C 362.346 49.770,363.047 50.400,363.157 50.400 C 363.267 50.400,362.746 49.770,362.000 49.000 C 361.254 48.230,360.553 47.600,360.443 47.600 C 360.333 47.600,360.854 48.230,361.600 49.000 M329.600 60.000 L 327.400 60.270 329.476 60.335 C 330.618 60.371,331.664 60.220,331.800 60.000 C 331.936 59.780,331.992 59.629,331.924 59.665 C 331.856 59.701,330.810 59.852,329.600 60.000 M370.363 60.124 C 370.542 60.303,371.569 60.390,372.644 60.318 L 374.600 60.187 372.319 59.994 C 371.064 59.887,370.184 59.946,370.363 60.124 M335.186 68.700 L 333.000 71.000 335.300 68.814 C 336.565 67.611,337.600 66.576,337.600 66.514 C 337.600 66.217,337.218 66.563,335.186 68.700 M314.131 75.800 C 314.133 77.340,314.205 77.921,314.292 77.091 C 314.379 76.261,314.377 75.001,314.289 74.291 C 314.200 73.581,314.129 74.260,314.131 75.800 M346.960 75.311 C 344.352 76.725,344.163 76.893,342.848 78.978 C 340.466 82.755,341.197 88.208,344.498 91.292 C 348.911 95.414,357.042 93.945,359.547 88.573 C 359.847 87.928,360.252 87.087,360.447 86.705 C 363.775 80.162,353.706 71.655,346.960 75.311 M372.909 84.000 C 372.909 84.990,372.987 85.395,373.082 84.900 C 373.178 84.405,373.178 83.595,373.082 83.100 C 372.987 82.605,372.909 83.010,372.909 84.000 M318.400 86.600 C 319.146 87.370,319.847 88.000,319.957 88.000 C 320.067 88.000,319.546 87.370,318.800 86.600 C 318.054 85.830,317.353 85.200,317.243 85.200 C 317.133 85.200,317.654 85.830,318.400 86.600 M328.828 86.433 C 328.844 86.965,329.019 87.760,329.219 88.200 C 329.471 88.758,329.507 88.515,329.338 87.400 C 329.055 85.543,328.787 85.036,328.828 86.433 M322.250 98.850 C 321.937 100.414,321.972 102.388,322.328 103.283 C 322.478 103.659,322.605 102.534,322.611 100.783 C 322.623 97.209,322.601 97.093,322.250 98.850 M366.575 99.700 L 365.400 101.000 366.700 99.825 C 367.415 99.179,368.000 98.594,368.000 98.525 C 368.000 98.216,367.670 98.488,366.575 99.700 M349.491 106.289 C 350.201 106.377,351.461 106.379,352.291 106.292 C 353.121 106.205,352.540 106.133,351.000 106.131 C 349.460 106.129,348.781 106.200,349.491 106.289 M108.800 107.589 C 108.470 107.808,107.793 107.991,107.295 107.994 C 106.797 107.997,106.077 108.158,105.695 108.351 C 105.313 108.544,103.412 109.473,101.472 110.415 C 96.302 112.927,90.304 119.040,88.143 124.000 C 86.774 127.141,86.529 127.833,85.763 130.720 C 85.132 133.094,84.992 141.599,85.553 143.440 C 85.748 144.078,86.145 145.410,86.437 146.400 C 87.023 148.388,88.926 152.388,90.102 154.102 C 92.243 157.225,91.213 159.784,85.038 166.673 C 83.300 168.613,80.814 171.640,79.514 173.400 C 78.215 175.160,76.918 176.887,76.633 177.238 C 75.683 178.406,72.800 182.752,72.800 183.016 C 72.800 183.159,72.461 183.754,72.047 184.338 C 69.791 187.521,63.696 199.718,61.624 205.200 C 60.916 207.070,60.172 208.913,59.969 209.295 C 59.766 209.677,59.600 210.341,59.600 210.771 C 59.600 211.201,59.420 211.664,59.200 211.800 C 58.980 211.936,58.800 212.476,58.800 213.000 C 58.800 213.524,58.641 214.051,58.446 214.171 C 58.251 214.292,57.996 214.887,57.879 215.495 C 57.762 216.103,57.459 217.320,57.206 218.200 C 56.084 222.108,54.662 228.512,54.009 232.600 C 52.820 240.041,52.600 243.324,52.600 253.600 C 52.600 265.143,53.069 270.390,54.801 278.200 C 55.045 279.300,55.344 280.787,55.466 281.504 C 55.588 282.221,55.849 282.906,56.044 283.027 C 56.240 283.148,56.400 283.766,56.400 284.400 C 56.400 285.034,56.580 285.664,56.800 285.800 C 57.020 285.936,57.200 286.451,57.200 286.944 C 57.200 287.437,57.349 288.011,57.530 288.220 C 57.712 288.429,58.101 289.365,58.394 290.300 C 59.087 292.507,59.625 292.352,63.685 288.772 C 66.329 286.439,75.230 282.791,80.200 282.003 C 83.697 281.448,83.759 281.374,84.357 277.000 C 85.238 270.548,88.084 260.228,90.470 254.832 C 90.915 253.824,91.480 252.550,91.725 252.000 C 93.381 248.285,97.151 246.475,100.026 248.014 C 100.630 248.337,100.800 248.297,100.800 247.832 C 100.800 246.953,104.826 240.246,105.897 239.342 C 106.343 238.964,106.259 238.689,105.419 237.783 C 103.037 235.212,103.253 232.340,106.103 228.694 C 108.538 225.579,118.220 216.075,121.200 213.875 C 122.630 212.819,124.094 211.715,124.454 211.421 C 125.390 210.656,131.131 206.800,131.333 206.800 C 131.427 206.800,132.560 206.161,133.852 205.379 C 139.487 201.971,150.927 197.204,156.400 195.984 C 157.170 195.812,158.970 195.384,160.400 195.033 C 165.335 193.821,166.415 193.600,167.400 193.600 C 167.944 193.600,169.156 193.426,170.094 193.213 C 177.946 191.431,195.079 192.209,205.700 194.830 C 214.364 196.968,221.326 199.457,228.112 202.844 C 233.742 205.654,235.503 208.433,234.034 212.193 C 233.770 212.868,234.240 213.338,237.162 215.325 C 239.053 216.611,241.067 218.106,241.638 218.647 C 242.540 219.502,242.741 219.553,243.170 219.037 C 247.179 214.206,255.024 220.121,266.463 236.600 C 269.258 240.626,274.112 249.557,275.649 253.500 C 275.981 254.351,276.489 255.595,277.240 257.400 C 278.959 261.526,281.451 271.331,282.426 277.800 C 283.012 281.697,282.836 281.495,286.049 281.950 C 292.573 282.874,301.043 286.845,306.181 291.388 L 307.361 292.432 307.829 291.516 C 308.352 290.494,309.630 286.747,310.393 284.000 C 310.668 283.010,311.033 281.750,311.204 281.200 C 311.375 280.650,311.729 279.120,311.991 277.800 C 312.253 276.480,312.555 275.040,312.660 274.600 C 313.176 272.457,313.658 267.936,314.075 261.335 C 314.858 248.930,313.669 235.172,310.822 223.700 C 310.590 222.765,310.232 221.325,310.027 220.500 C 309.821 219.675,309.446 218.280,309.194 217.400 C 308.941 216.520,308.638 215.303,308.521 214.695 C 308.404 214.087,308.149 213.492,307.954 213.371 C 307.759 213.251,307.600 212.749,307.600 212.256 C 307.600 211.763,307.457 211.189,307.282 210.980 C 307.107 210.771,306.735 209.880,306.455 209.000 C 305.933 207.356,305.723 206.813,304.672 204.400 C 304.337 203.630,303.691 202.054,303.236 200.898 C 302.033 197.836,298.005 189.832,296.071 186.659 C 295.152 185.152,294.400 183.840,294.400 183.744 C 294.400 183.514,289.542 176.259,289.214 176.000 C 289.075 175.890,288.529 175.170,288.000 174.400 C 286.368 172.023,278.675 162.893,277.552 162.000 C 275.664 160.498,275.132 156.846,276.462 154.512 C 279.723 148.790,280.718 146.088,281.362 141.200 C 282.092 135.667,281.238 129.604,279.153 125.505 C 278.959 125.123,278.800 124.635,278.800 124.419 C 278.800 124.204,278.261 123.167,277.602 122.114 C 273.263 115.182,269.079 111.723,261.000 108.390 C 259.127 107.618,257.455 107.455,251.400 107.455 C 245.346 107.455,243.675 107.618,241.800 108.390 C 241.360 108.571,240.370 108.952,239.600 109.237 C 234.800 111.013,227.431 117.427,225.217 121.756 C 224.058 124.022,222.011 125.834,220.233 126.167 C 219.063 126.387,218.204 126.264,213.300 125.177 C 200.608 122.363,189.852 121.450,176.514 122.055 C 167.553 122.461,161.196 123.321,153.400 125.179 C 146.883 126.733,145.524 126.644,143.406 124.526 C 142.633 123.753,142.000 122.945,142.000 122.732 C 142.000 119.618,129.253 108.800,125.583 108.800 C 125.178 108.800,124.748 108.640,124.627 108.444 C 124.068 107.539,110.019 106.780,108.800 107.589 M326.600 111.600 C 327.459 112.480,328.252 113.200,328.362 113.200 C 328.472 113.200,327.859 112.480,327.000 111.600 C 326.141 110.720,325.348 110.000,325.238 110.000 C 325.128 110.000,325.741 110.720,326.600 111.600 M349.338 111.906 C 349.084 112.068,349.832 112.200,351.000 112.200 C 352.168 112.200,352.916 112.068,352.662 111.906 C 352.408 111.744,351.660 111.612,351.000 111.612 C 350.340 111.612,349.592 111.744,349.338 111.906 M336.311 116.293 C 337.251 116.378,338.691 116.377,339.511 116.291 C 340.330 116.205,339.560 116.136,337.800 116.137 C 336.040 116.139,335.370 116.209,336.311 116.293 M361.905 116.283 C 362.402 116.379,363.122 116.375,363.505 116.275 C 363.887 116.175,363.480 116.096,362.600 116.101 C 361.720 116.105,361.407 116.187,361.905 116.283 M365.300 116.276 C 365.685 116.376,366.315 116.376,366.700 116.276 C 367.085 116.175,366.770 116.093,366.000 116.093 C 365.230 116.093,364.915 116.175,365.300 116.276 M116.813 127.863 C 117.554 128.011,118.793 128.793,119.663 129.662 L 121.200 131.200 121.200 140.133 L 121.200 149.067 119.878 150.596 C 116.894 154.047,111.796 153.480,109.797 149.474 C 108.909 147.695,108.932 132.661,109.824 130.871 C 111.072 128.371,113.698 127.240,116.813 127.863 M255.078 128.912 C 257.143 130.323,257.357 131.173,257.521 138.588 C 257.720 147.655,257.497 149.276,255.816 150.957 C 252.772 154.001,248.197 153.311,246.046 149.483 C 244.948 147.526,244.758 133.955,245.795 131.473 C 247.281 127.916,251.798 126.670,255.078 128.912 M168.538 141.296 C 169.232 141.788,170.340 142.708,171.000 143.341 C 178.157 150.195,188.659 150.109,196.036 143.136 C 199.952 139.435,203.456 139.367,206.179 142.937 C 209.811 147.699,202.799 156.201,192.800 159.160 C 191.810 159.453,190.485 159.882,189.856 160.113 C 189.227 160.344,186.322 160.533,183.400 160.533 C 180.478 160.533,177.573 160.344,176.944 160.113 C 176.315 159.882,174.990 159.453,174.000 159.160 C 167.085 157.114,159.200 150.400,159.200 146.559 C 159.200 141.932,164.905 138.716,168.538 141.296 M24.970 212.749 C 11.784 217.249,7.859 233.524,17.513 243.677 C 20.707 247.036,25.435 248.917,38.724 252.115 C 39.924 252.404,39.889 252.558,40.393 244.600 C 40.956 235.687,41.733 230.033,43.551 221.600 C 43.909 219.940,44.344 218.312,45.008 216.145 C 45.321 215.123,45.044 214.924,42.305 214.209 C 41.147 213.907,38.808 213.286,37.107 212.830 C 33.224 211.788,27.891 211.752,24.970 212.749 M331.525 212.208 C 331.411 212.323,329.536 212.862,327.358 213.406 C 321.210 214.943,320.961 215.205,322.405 218.600 C 322.592 219.040,322.855 220.030,322.988 220.800 C 323.121 221.570,323.403 223.055,323.615 224.100 C 325.265 232.246,326.062 238.552,326.649 248.109 C 326.876 251.801,327.006 252.392,327.557 252.236 C 328.510 251.968,335.335 250.164,339.000 249.212 C 358.322 244.195,360.214 219.395,341.773 212.860 C 339.483 212.048,332.151 211.582,331.525 212.208 M82.000 293.983 C 62.125 297.735,52.225 320.297,62.336 338.800 C 73.150 358.590,96.997 360.994,109.953 343.600 C 110.526 342.830,111.086 342.110,111.198 342.000 C 111.975 341.232,114.986 335.076,115.767 332.659 C 121.007 316.444,112.248 299.664,96.000 294.791 C 92.691 293.799,85.250 293.369,82.000 293.983 M274.400 293.836 C 249.362 298.386,241.037 328.173,259.612 346.748 C 276.602 363.738,302.847 353.824,307.971 328.480 C 311.876 309.171,293.630 290.342,274.400 293.836 " stroke="none" fill="#b28dd6" fill-rule="evenodd"></path><path id="path2" d="M173.538 204.995 C 173.404 205.129,172.058 205.403,170.547 205.605 C 149.609 208.397,131.339 218.577,115.942 236.031 C 112.668 239.742,110.941 240.521,108.226 239.515 C 106.093 238.724,106.094 238.723,103.742 242.600 C 100.411 248.089,100.477 247.878,101.725 249.036 C 104.403 251.519,104.474 253.056,102.172 258.782 C 99.092 266.445,96.124 278.031,96.468 281.047 C 96.582 282.045,96.842 282.261,98.400 282.653 C 113.985 286.572,125.038 298.529,128.857 315.600 C 129.486 318.412,129.481 327.931,128.850 330.800 C 127.718 335.938,126.793 338.816,125.296 341.864 L 124.479 343.527 125.340 343.824 C 125.813 343.986,126.830 344.261,127.600 344.434 C 128.370 344.607,129.810 344.941,130.800 345.176 C 160.790 352.313,204.134 352.332,236.100 345.222 C 237.035 345.014,238.579 344.675,239.532 344.470 C 242.096 343.916,242.293 343.546,241.218 341.311 C 239.325 337.376,238.825 335.711,237.603 329.280 C 237.085 326.553,237.085 319.847,237.603 317.120 C 238.340 313.242,238.852 311.008,239.191 310.200 C 239.375 309.760,239.827 308.590,240.196 307.600 C 244.501 296.035,255.504 286.044,267.400 282.900 L 270.200 282.160 270.110 279.980 C 269.778 271.927,263.834 254.871,258.731 247.328 C 258.109 246.408,257.600 245.463,257.600 245.228 C 257.600 244.993,257.442 244.800,257.249 244.800 C 257.055 244.800,256.673 244.260,256.400 243.600 C 256.127 242.940,255.784 242.400,255.638 242.400 C 255.492 242.400,255.076 241.897,254.713 241.283 C 253.604 239.407,249.715 234.800,245.861 230.800 C 240.884 225.634,240.195 223.903,241.847 220.709 C 242.397 219.646,242.410 219.393,241.936 219.029 C 239.967 217.513,236.600 215.040,235.371 214.206 L 233.923 213.224 232.321 214.512 C 229.726 216.597,227.443 216.372,221.400 213.432 C 218.760 212.148,216.195 210.940,215.700 210.749 C 215.205 210.557,214.395 210.232,213.900 210.026 C 213.405 209.821,212.280 209.436,211.400 209.171 C 210.520 208.906,209.440 208.555,209.000 208.390 C 208.560 208.226,207.480 207.906,206.600 207.679 C 205.720 207.452,204.280 207.080,203.400 206.854 C 202.520 206.627,201.080 206.324,200.200 206.180 C 199.320 206.036,197.610 205.738,196.400 205.519 C 193.944 205.072,173.919 204.614,173.538 204.995 " stroke="none" fill="#fbf393" fill-rule="evenodd"></path><path id="path3" d="M345.600 45.687 C 341.261 47.278,336.000 53.108,336.000 56.325 C 336.000 56.988,333.365 59.600,332.695 59.600 C 332.339 59.600,331.936 59.780,331.800 60.000 C 331.664 60.220,330.402 60.400,328.995 60.400 C 326.423 60.400,325.707 60.590,322.400 62.151 C 312.801 66.680,311.580 81.411,320.274 87.796 C 323.032 89.822,324.647 94.393,323.138 95.902 C 322.528 96.512,322.454 104.364,323.046 105.639 C 323.292 106.168,323.742 107.140,324.046 107.800 C 327.579 115.459,338.969 118.458,346.200 113.633 C 350.199 110.964,351.778 110.963,355.800 113.624 C 364.365 119.292,375.330 115.221,379.191 104.941 C 379.721 103.527,379.549 98.448,378.873 95.600 C 378.075 92.232,378.559 91.036,382.180 87.438 C 392.672 77.010,387.599 61.457,373.400 60.522 C 371.860 60.421,370.429 60.172,370.220 59.969 C 370.011 59.766,369.574 59.600,369.248 59.600 C 368.620 59.600,366.000 56.958,366.000 56.325 C 366.000 55.271,363.629 51.169,362.035 49.465 C 358.006 45.158,351.266 43.609,345.600 45.687 M354.246 62.189 C 362.572 63.662,372.000 71.621,372.000 77.176 C 372.000 77.541,372.206 78.046,372.457 78.297 C 373.610 79.450,372.857 90.582,371.518 92.180 C 371.343 92.389,371.200 92.800,371.200 93.093 C 371.200 96.312,363.978 102.853,357.800 105.229 C 354.594 106.462,347.331 106.457,344.200 105.220 C 321.981 96.444,324.493 66.436,347.800 62.209 C 349.340 61.929,350.690 61.681,350.800 61.658 C 350.910 61.634,352.461 61.873,354.246 62.189 " stroke="none" fill="#fb9bd3" fill-rule="evenodd"></path><path id="path4" d="M348.200 44.359 C 343.887 44.891,338.880 48.521,336.848 52.590 C 336.337 53.614,336.012 54.545,336.126 54.659 C 336.240 54.773,336.692 54.055,337.131 53.063 C 341.176 43.918,354.414 41.734,361.841 48.986 C 363.658 50.760,366.400 55.409,366.400 56.716 C 366.400 56.937,367.026 57.667,367.791 58.339 C 369.197 59.573,369.859 59.767,374.200 60.213 C 388.273 61.660,392.576 77.654,381.742 88.244 L 378.800 91.120 378.800 93.386 C 378.800 94.633,379.005 96.035,379.255 96.502 C 381.994 101.620,377.575 111.553,371.176 114.663 C 368.452 115.987,368.032 116.099,364.600 116.426 L 361.400 116.731 364.862 116.639 C 374.842 116.374,382.280 106.759,379.849 97.267 C 378.662 92.636,379.146 90.573,381.900 88.525 C 394.023 79.506,388.609 61.495,373.212 59.623 C 368.632 59.066,367.623 58.428,366.382 55.308 C 363.125 47.120,356.782 43.301,348.200 44.359 M335.224 56.342 C 334.363 58.420,332.871 59.183,328.714 59.672 C 320.880 60.593,313.914 66.725,314.028 72.600 C 314.036 73.040,314.362 72.410,314.753 71.200 C 316.852 64.695,321.762 60.744,328.481 60.152 C 332.812 59.770,336.551 57.452,335.915 55.544 C 335.826 55.279,335.516 55.638,335.224 56.342 M348.600 62.258 C 336.968 63.349,327.216 75.631,329.191 86.700 C 330.859 96.045,335.616 101.701,344.800 105.258 C 346.696 105.992,355.304 105.992,357.200 105.258 C 370.680 100.037,376.476 87.060,370.847 74.703 C 368.881 70.388,362.348 64.000,359.902 64.000 C 359.604 64.000,359.189 63.847,358.980 63.659 C 357.978 62.760,351.939 61.945,348.600 62.258 M358.041 63.784 C 375.827 69.811,377.496 94.896,360.664 103.209 C 346.207 110.349,329.600 100.080,329.600 84.000 C 329.600 69.245,343.985 59.020,358.041 63.784 M313.724 75.800 C 313.726 77.120,313.801 77.612,313.890 76.893 C 313.979 76.174,313.977 75.094,313.886 74.493 C 313.795 73.892,313.722 74.480,313.724 75.800 M347.218 74.631 C 338.034 78.615,339.216 91.969,348.930 93.985 C 358.528 95.978,365.062 84.561,358.484 77.292 C 355.746 74.267,350.767 73.091,347.218 74.631 M355.013 75.248 C 359.191 77.212,362.127 83.403,360.447 86.705 C 360.252 87.087,359.847 87.928,359.547 88.573 C 356.398 95.326,346.206 95.377,342.432 88.658 C 340.542 85.292,341.827 78.482,344.708 76.600 C 348.440 74.163,351.773 73.725,355.013 75.248 M314.013 79.089 C 313.981 81.215,316.003 84.578,319.049 87.468 C 322.963 91.181,323.338 92.187,322.354 96.335 C 320.991 102.085,321.698 105.751,325.080 110.459 C 326.670 112.671,332.000 116.492,332.000 115.419 C 332.000 115.319,331.325 114.922,330.500 114.535 C 324.179 111.576,321.010 104.105,322.844 96.486 L 323.688 92.979 322.820 91.189 C 322.305 90.128,321.162 88.798,320.009 87.920 C 317.611 86.093,315.908 83.670,314.841 80.569 C 314.393 79.266,314.021 78.600,314.013 79.089 M111.400 106.667 C 102.164 107.800,93.253 113.853,88.617 122.143 C 87.058 124.931,85.181 130.046,85.232 131.370 C 85.264 132.219,85.422 131.829,86.438 128.400 C 88.657 120.911,94.654 113.733,101.472 110.409 C 107.540 107.450,107.532 107.451,115.200 107.473 C 121.412 107.490,124.216 107.779,124.627 108.444 C 124.748 108.640,125.178 108.800,125.583 108.800 C 129.253 108.800,142.000 119.618,142.000 122.732 C 142.000 122.945,142.633 123.753,143.406 124.526 C 145.524 126.644,146.883 126.733,153.400 125.179 C 157.790 124.133,162.707 123.270,166.920 122.808 C 168.856 122.596,170.615 122.314,170.829 122.182 C 171.044 122.049,176.750 121.923,183.509 121.900 C 193.665 121.866,195.070 121.799,191.600 121.510 C 180.424 120.582,162.737 122.157,152.200 125.018 C 146.421 126.587,144.804 125.981,141.496 121.003 C 134.577 110.591,123.281 105.210,111.400 106.667 M246.389 106.796 C 237.738 108.178,230.156 113.340,224.888 121.437 C 221.843 126.116,220.595 126.511,214.000 124.881 C 207.505 123.275,195.366 121.426,196.029 122.144 C 196.155 122.280,197.865 122.578,199.829 122.805 C 204.384 123.332,207.277 123.842,213.300 125.177 C 218.204 126.264,219.063 126.387,220.233 126.167 C 222.011 125.834,224.058 124.022,225.217 121.756 C 227.431 117.427,234.800 111.013,239.600 109.237 C 240.370 108.952,241.360 108.571,241.800 108.390 C 243.675 107.618,245.346 107.455,251.400 107.455 C 258.840 107.455,258.993 107.481,263.800 109.603 C 269.219 111.995,274.316 116.555,277.323 121.700 C 278.656 123.980,279.135 124.224,278.031 122.060 C 272.601 111.417,258.885 104.800,246.389 106.796 M349.002 112.273 C 348.563 112.396,347.483 112.975,346.602 113.560 C 344.899 114.691,343.739 115.275,341.800 115.975 L 340.600 116.408 342.000 116.196 C 342.770 116.079,344.660 115.246,346.200 114.346 C 349.825 112.226,351.615 112.002,354.000 113.370 C 356.856 115.009,359.963 116.402,360.711 116.379 C 361.090 116.368,360.410 115.981,359.200 115.521 C 357.990 115.060,356.235 114.161,355.301 113.523 C 353.598 112.360,350.725 111.790,349.002 112.273 M332.800 116.000 C 333.130 116.213,333.760 116.378,334.200 116.366 L 335.000 116.344 334.200 116.000 C 333.004 115.486,332.005 115.486,332.800 116.000 M336.291 116.689 C 337.001 116.777,338.261 116.779,339.091 116.692 C 339.921 116.605,339.340 116.533,337.800 116.531 C 336.260 116.529,335.581 116.600,336.291 116.689 M278.818 124.305 C 278.808 124.583,278.967 125.123,279.171 125.505 C 279.375 125.887,279.666 126.560,279.817 127.000 C 279.974 127.454,280.170 127.596,280.271 127.328 C 280.368 127.069,280.085 126.169,279.642 125.328 C 279.198 124.488,278.827 124.027,278.818 124.305 M113.400 127.893 C 112.070 128.226,110.485 129.546,109.824 130.871 C 108.932 132.661,108.909 147.695,109.797 149.474 C 110.948 151.782,114.281 153.544,116.107 152.810 C 116.863 152.506,116.755 152.447,115.400 152.424 C 113.434 152.391,111.453 151.234,110.398 149.504 C 109.346 147.778,109.182 133.169,110.192 131.215 C 112.043 127.636,116.578 127.056,119.434 130.035 L 120.600 131.251 120.722 139.852 C 120.857 149.364,120.733 149.933,118.158 151.631 C 117.369 152.152,117.213 152.396,117.669 152.397 C 118.037 152.399,118.982 151.648,119.769 150.728 L 121.200 149.056 121.200 140.128 L 121.200 131.200 119.663 129.662 C 117.839 127.839,115.855 127.278,113.400 127.893 M249.800 127.870 C 246.021 128.869,245.200 131.112,245.200 140.437 C 245.200 150.821,247.280 154.110,252.940 152.673 C 257.060 151.627,257.761 149.474,257.521 138.588 C 257.319 129.433,255.171 126.451,249.800 127.870 M254.600 129.037 C 256.878 130.530,257.000 131.095,257.000 140.200 C 257.000 148.355,256.973 148.638,256.068 149.906 C 253.591 153.380,248.515 153.174,246.519 149.518 C 245.383 147.436,245.446 132.799,246.600 130.845 C 248.133 128.249,252.048 127.364,254.600 129.037 M280.412 128.600 C 280.412 129.040,280.587 129.670,280.800 130.000 C 281.121 130.497,281.188 130.462,281.188 129.800 C 281.188 129.360,281.013 128.730,280.800 128.400 C 280.479 127.903,280.412 127.938,280.412 128.600 M281.473 134.000 C 281.599 135.870,281.770 137.475,281.851 137.567 C 282.151 137.902,281.910 132.569,281.582 131.600 C 281.376 130.993,281.333 131.935,281.473 134.000 M84.581 135.038 C 84.426 136.488,84.476 138.783,84.694 140.138 C 85.069 142.478,85.091 142.348,85.144 137.500 C 85.206 131.865,85.012 131.017,84.581 135.038 M281.467 140.739 C 281.289 142.355,281.233 143.766,281.342 143.875 C 281.650 144.183,282.080 140.740,281.927 139.189 C 281.831 138.211,281.694 138.670,281.467 140.739 M162.121 141.325 C 155.630 145.767,162.230 155.677,174.000 159.160 C 174.990 159.453,176.315 159.882,176.944 160.113 C 177.573 160.344,180.478 160.533,183.400 160.533 C 186.322 160.533,189.227 160.344,189.856 160.113 C 190.485 159.882,191.810 159.453,192.800 159.160 C 202.799 156.201,209.811 147.699,206.179 142.937 C 203.456 139.367,199.952 139.435,196.036 143.136 C 193.870 145.184,191.433 146.681,188.630 147.687 C 186.982 148.278,186.864 148.375,188.000 148.201 C 190.156 147.871,193.383 146.073,195.909 143.793 C 199.452 140.597,201.220 140.073,203.918 141.419 C 210.981 144.943,204.028 155.420,192.400 158.774 C 191.410 159.060,190.078 159.452,189.440 159.647 C 176.202 163.680,154.264 150.508,161.148 142.659 C 163.718 139.729,166.844 140.103,170.881 143.821 C 173.333 146.081,176.546 147.857,178.800 148.201 C 179.772 148.349,179.476 148.158,177.828 147.577 C 175.323 146.693,172.986 145.243,171.000 143.341 C 167.687 140.167,164.778 139.507,162.121 141.325 M85.363 144.048 C 85.583 145.926,87.361 150.349,89.059 153.247 C 91.612 157.602,91.177 159.110,85.579 165.310 C 70.285 182.248,57.023 209.152,54.184 229.000 C 53.808 231.625,54.318 231.116,54.834 228.351 C 55.468 224.948,56.344 221.204,57.206 218.200 C 57.459 217.320,57.762 216.103,57.879 215.495 C 57.996 214.887,58.251 214.292,58.446 214.171 C 58.641 214.051,58.800 213.524,58.800 213.000 C 58.800 212.476,58.980 211.936,59.200 211.800 C 59.420 211.664,59.600 211.201,59.600 210.771 C 59.600 210.341,59.766 209.677,59.969 209.295 C 60.172 208.913,60.916 207.070,61.624 205.200 C 63.696 199.718,69.791 187.521,72.047 184.338 C 72.461 183.754,72.800 183.159,72.800 183.016 C 72.800 182.752,75.683 178.406,76.633 177.238 C 76.918 176.887,78.215 175.160,79.514 173.400 C 80.814 171.640,83.300 168.613,85.038 166.673 C 91.213 159.784,92.243 157.225,90.102 154.102 C 88.929 152.392,87.024 148.390,86.435 146.400 C 85.423 142.977,85.173 142.428,85.363 144.048 M280.164 146.678 C 279.484 148.855,278.505 150.927,276.462 154.512 C 275.132 156.846,275.664 160.498,277.552 162.000 C 278.675 162.893,286.368 172.023,288.000 174.400 C 288.529 175.170,289.075 175.890,289.213 176.000 C 289.552 176.270,293.368 181.970,294.335 183.653 C 294.761 184.394,295.963 186.492,297.006 188.315 C 298.049 190.139,298.973 191.560,299.060 191.474 C 299.467 191.066,290.980 177.342,288.237 173.971 C 287.777 173.406,286.950 172.336,286.400 171.595 C 284.995 169.701,278.089 161.702,277.596 161.397 C 277.005 161.032,276.000 158.467,276.000 157.325 C 276.000 156.788,276.880 154.695,277.956 152.674 C 279.882 149.055,281.469 144.936,281.085 144.552 C 280.977 144.444,280.562 145.400,280.164 146.678 M181.911 148.693 C 182.851 148.778,184.291 148.777,185.111 148.691 C 185.930 148.605,185.160 148.536,183.400 148.537 C 181.640 148.539,180.970 148.609,181.911 148.693 M180.400 192.233 C 179.850 192.324,177.240 192.577,174.600 192.795 C 171.960 193.014,168.810 193.355,167.600 193.553 C 164.264 194.100,161.070 194.713,160.400 194.935 C 160.070 195.044,159.284 195.247,158.653 195.386 C 158.022 195.525,157.586 195.719,157.684 195.817 C 157.781 195.915,159.468 195.646,161.431 195.219 C 175.610 192.136,189.633 192.078,204.800 195.041 C 205.570 195.192,206.067 195.171,205.904 194.995 C 205.613 194.680,204.367 194.415,199.200 193.572 C 194.309 192.775,182.303 191.919,180.400 192.233 M300.000 193.811 C 300.000 193.928,300.543 195.098,301.206 196.412 C 301.869 197.726,302.784 199.746,303.237 200.901 C 303.691 202.055,304.337 203.630,304.672 204.400 C 305.723 206.813,305.933 207.356,306.455 209.000 C 306.735 209.880,307.107 210.771,307.282 210.980 C 307.457 211.189,307.600 211.686,307.600 212.085 C 307.600 212.484,307.758 213.123,307.951 213.505 C 308.376 214.346,308.960 216.378,310.367 221.900 C 311.516 226.412,311.978 228.589,312.639 232.600 C 312.784 233.480,312.982 233.983,313.079 233.718 C 313.753 231.872,309.040 214.018,305.605 205.400 C 302.830 198.441,300.000 192.589,300.000 193.811 M207.200 195.600 C 208.742 196.094,209.564 196.094,208.800 195.600 C 208.470 195.387,207.750 195.227,207.200 195.246 L 206.200 195.280 207.200 195.600 M153.604 196.718 C 150.974 197.623,152.183 197.720,155.000 196.831 C 156.320 196.414,156.950 196.079,156.400 196.087 C 155.850 196.095,154.592 196.379,153.604 196.718 M210.200 196.400 C 211.396 196.914,212.395 196.914,211.600 196.400 C 211.270 196.187,210.640 196.022,210.200 196.034 L 209.400 196.056 210.200 196.400 M213.400 197.277 C 220.021 199.559,228.690 203.389,231.666 205.346 C 234.961 207.514,234.575 212.620,230.958 214.693 C 228.763 215.952,228.096 215.855,223.278 213.577 C 219.102 211.602,218.253 211.221,216.200 210.400 C 215.650 210.180,214.795 209.829,214.300 209.620 C 210.218 207.897,203.210 206.109,195.200 204.748 C 188.862 203.670,173.272 204.131,166.600 205.593 C 161.869 206.630,156.302 208.119,154.600 208.802 C 154.160 208.979,152.270 209.715,150.400 210.438 C 137.689 215.349,122.427 226.515,115.070 236.287 C 111.013 241.676,102.455 238.424,104.483 232.264 C 105.954 227.794,118.481 215.821,128.843 208.979 C 133.127 206.150,144.884 200.000,146.007 200.000 C 146.355 200.000,146.811 199.842,147.020 199.649 C 147.229 199.456,148.357 198.988,149.526 198.608 C 150.695 198.229,151.556 197.823,151.439 197.705 C 151.322 197.588,150.725 197.683,150.113 197.916 C 142.838 200.684,137.761 203.014,133.852 205.379 C 132.560 206.161,131.427 206.800,131.333 206.800 C 131.131 206.800,125.390 210.656,124.454 211.421 C 124.094 211.715,122.630 212.819,121.200 213.875 C 115.588 218.019,104.941 229.349,104.010 232.168 C 103.047 235.088,105.038 238.490,108.350 239.584 C 111.022 240.465,112.738 239.663,115.942 236.031 C 123.589 227.362,129.851 222.053,138.502 216.904 C 148.481 210.964,157.779 207.661,170.600 205.499 C 174.410 204.857,192.562 204.863,196.200 205.508 C 197.740 205.781,199.630 206.101,200.400 206.219 C 201.170 206.336,202.430 206.591,203.200 206.783 C 206.034 207.493,208.221 208.099,209.000 208.390 C 209.440 208.555,210.520 208.906,211.400 209.171 C 212.280 209.436,213.405 209.821,213.900 210.026 C 214.395 210.232,215.205 210.557,215.700 210.749 C 216.195 210.940,218.760 212.148,221.400 213.432 C 227.093 216.201,229.573 216.533,231.945 214.841 C 235.047 212.628,235.238 207.994,232.338 205.343 C 230.246 203.430,214.852 196.724,212.802 196.832 C 212.471 196.849,212.740 197.049,213.400 197.277 M28.400 211.466 C 19.337 212.363,11.590 221.160,11.604 230.538 C 11.618 239.761,17.582 246.940,27.454 249.618 C 29.184 250.088,31.230 250.647,32.000 250.862 C 32.770 251.077,34.030 251.409,34.800 251.600 C 35.570 251.791,36.920 252.134,37.800 252.364 C 40.387 253.038,40.304 253.155,40.557 248.500 C 41.127 238.030,42.476 228.064,44.407 220.041 C 44.852 218.194,45.131 216.598,45.027 216.494 C 44.924 216.390,44.725 216.822,44.586 217.453 C 44.447 218.084,44.234 218.870,44.113 219.200 C 43.779 220.110,42.537 226.296,41.986 229.800 C 41.086 235.510,40.798 238.190,40.393 244.600 C 39.889 252.558,39.924 252.404,38.724 252.115 C 22.087 248.111,17.411 245.634,14.250 239.148 C 6.711 223.676,20.095 208.265,37.107 212.830 C 38.808 213.286,41.190 213.917,42.400 214.231 C 43.610 214.545,44.825 215.106,45.100 215.477 C 45.553 216.090,45.600 216.092,45.600 215.500 C 45.600 214.729,45.147 214.407,43.453 213.975 C 39.857 213.057,36.131 212.061,35.600 211.876 C 34.730 211.571,30.037 211.304,28.400 211.466 M333.200 211.486 C 331.954 211.644,330.009 212.124,326.200 213.212 C 325.540 213.401,324.346 213.721,323.547 213.925 C 321.104 214.547,320.663 215.348,321.635 217.400 C 321.925 218.011,321.971 217.842,321.829 216.681 C 321.609 214.873,321.602 214.878,327.400 213.323 C 340.278 209.870,349.562 213.846,353.537 224.515 C 356.716 233.046,351.637 244.730,343.443 247.741 C 343.026 247.894,342.789 248.122,342.916 248.249 C 343.330 248.663,347.095 246.348,348.966 244.530 C 362.348 231.523,351.667 209.136,333.200 211.486 M244.803 218.083 C 239.475 220.803,239.781 224.489,245.861 230.800 C 249.715 234.800,253.604 239.407,254.713 241.283 C 255.076 241.897,255.492 242.400,255.638 242.400 C 255.784 242.400,256.127 242.940,256.400 243.600 C 256.673 244.260,257.055 244.800,257.249 244.800 C 257.442 244.800,257.600 244.993,257.600 245.228 C 257.600 245.463,258.109 246.408,258.731 247.328 C 263.834 254.871,269.778 271.927,270.110 279.980 L 270.200 282.160 267.400 282.900 C 255.504 286.044,244.501 296.035,240.196 307.600 C 239.827 308.590,239.375 309.760,239.191 310.200 C 238.852 311.008,238.340 313.242,237.603 317.120 C 236.277 324.097,237.782 334.168,241.218 341.311 C 242.293 343.546,242.096 343.916,239.532 344.470 C 238.579 344.675,237.035 345.014,236.100 345.222 C 227.367 347.164,219.947 348.327,210.600 349.216 C 207.960 349.467,205.725 349.746,205.633 349.836 C 205.326 350.139,210.020 350.004,212.723 349.632 C 214.196 349.430,217.020 349.055,219.000 348.798 C 228.515 347.567,242.208 344.678,242.532 343.832 C 242.634 343.568,242.307 342.463,241.808 341.376 C 236.437 329.689,236.409 316.852,241.729 305.200 C 246.534 294.676,261.570 282.800,270.088 282.800 C 271.448 282.800,271.439 282.362,269.922 274.800 C 269.530 272.847,269.148 271.287,268.013 267.000 C 265.947 259.201,256.978 241.612,253.633 238.800 C 253.502 238.690,252.860 237.883,252.206 237.006 C 251.552 236.130,249.193 233.520,246.963 231.206 C 240.645 224.650,240.061 222.130,244.137 219.021 C 246.816 216.978,249.036 217.467,252.658 220.900 C 256.416 224.461,260.938 229.571,263.186 232.800 C 263.723 233.570,264.274 234.290,264.411 234.400 C 264.786 234.701,267.698 239.138,268.960 241.331 C 269.571 242.394,270.155 243.178,270.258 243.075 C 270.776 242.557,263.760 232.365,259.471 227.405 C 251.154 217.785,248.584 216.152,244.803 218.083 M322.000 218.527 C 322.000 218.624,322.436 220.839,322.968 223.451 C 324.695 231.919,325.380 236.975,326.039 246.100 C 326.350 250.413,326.679 252.797,326.961 252.790 C 327.415 252.781,328.112 252.609,333.200 251.259 C 342.312 248.841,342.514 248.781,342.281 248.548 C 342.183 248.449,340.684 248.746,338.951 249.206 C 337.218 249.667,334.090 250.496,332.000 251.049 C 329.910 251.603,327.911 252.137,327.557 252.236 C 327.006 252.392,326.876 251.801,326.649 248.109 C 326.332 242.949,325.791 237.296,325.221 233.200 C 324.821 230.321,324.495 228.475,323.580 223.900 C 323.348 222.745,323.059 221.124,322.937 220.297 C 322.765 219.130,322.000 217.686,322.000 218.527 M53.419 233.318 C 53.245 234.593,53.202 235.735,53.322 235.855 C 53.622 236.155,54.117 232.671,53.906 231.747 C 53.812 231.336,53.593 232.043,53.419 233.318 M313.286 236.200 C 313.283 237.300,313.424 238.650,313.600 239.200 C 314.060 240.636,314.078 237.999,313.623 235.800 L 313.292 234.200 313.286 236.200 M52.628 238.842 C 52.458 240.296,52.397 241.826,52.491 242.242 C 52.586 242.659,52.802 241.811,52.972 240.358 C 53.142 238.904,53.203 237.374,53.109 236.958 C 53.014 236.541,52.798 237.389,52.628 238.842 M314.200 254.000 C 314.200 261.150,314.317 266.010,314.460 264.800 C 314.604 263.590,314.721 258.730,314.721 254.000 C 314.721 249.270,314.604 244.410,314.460 243.200 C 314.317 241.990,314.200 246.850,314.200 254.000 M271.926 246.662 C 276.098 254.986,279.208 263.685,280.772 271.400 C 280.995 272.500,281.362 274.245,281.589 275.277 C 281.815 276.310,282.000 277.678,282.000 278.317 C 282.000 280.557,282.770 282.004,283.939 281.960 L 285.000 281.920 284.021 281.647 C 283.110 281.393,282.978 281.003,282.122 276.058 C 280.872 268.835,278.812 261.051,277.130 257.200 C 276.642 256.083,276.045 254.605,275.594 253.400 C 274.937 251.645,271.047 243.953,270.711 243.745 C 270.514 243.623,271.060 244.936,271.926 246.662 M51.795 249.364 C 51.637 252.314,51.681 256.769,51.894 259.264 C 52.262 263.596,52.282 263.355,52.340 253.900 C 52.407 242.850,52.225 241.334,51.795 249.364 M95.462 247.900 C 95.360 248.065,96.336 248.200,97.632 248.200 C 102.686 248.200,104.353 252.038,101.898 258.019 C 98.269 266.857,94.864 280.652,95.920 282.239 C 96.074 282.470,97.100 282.889,98.200 283.169 C 100.994 283.881,106.391 285.991,107.662 286.867 C 108.246 287.270,108.843 287.600,108.990 287.600 C 112.580 287.600,126.372 304.413,126.397 308.820 C 126.398 309.161,126.551 309.611,126.736 309.820 C 126.920 310.029,127.295 311.280,127.568 312.600 C 127.841 313.920,128.244 315.731,128.463 316.624 C 128.941 318.574,128.664 329.062,128.066 331.600 C 127.834 332.590,127.530 333.940,127.391 334.600 C 127.253 335.260,126.991 336.160,126.809 336.600 C 126.627 337.040,126.071 338.480,125.574 339.800 C 125.076 341.120,124.498 342.423,124.290 342.695 C 123.511 343.711,124.413 344.304,128.053 345.169 C 138.551 347.664,147.453 349.012,163.000 350.458 C 169.125 351.028,199.360 351.015,203.000 350.441 C 204.657 350.180,202.800 350.146,197.000 350.331 C 171.114 351.159,148.561 349.403,130.800 345.176 C 129.810 344.941,128.370 344.607,127.600 344.434 C 126.830 344.261,125.813 343.986,125.340 343.824 L 124.479 343.527 125.296 341.864 C 126.447 339.522,127.095 337.737,127.936 334.600 C 134.079 311.682,120.772 288.278,98.400 282.653 C 96.842 282.261,96.582 282.045,96.468 281.047 C 96.124 278.031,99.092 266.445,102.172 258.782 C 104.589 252.769,104.282 250.405,100.833 248.466 C 99.322 247.617,95.862 247.252,95.462 247.900 M93.100 249.700 C 92.583 250.415,91.961 251.450,91.720 252.000 C 91.478 252.550,90.915 253.824,90.470 254.832 C 88.089 260.217,85.245 270.523,84.353 277.000 C 83.811 280.931,83.574 281.468,82.271 281.722 C 81.672 281.838,81.804 281.908,82.692 281.946 C 84.133 282.006,84.013 282.277,84.798 277.200 C 85.722 271.218,86.660 267.418,88.834 260.840 C 90.705 255.181,92.658 250.792,93.867 249.530 C 94.463 248.908,94.745 248.400,94.495 248.400 C 94.245 248.400,93.617 248.985,93.100 249.700 M52.469 266.000 C 52.456 266.990,52.595 268.520,52.777 269.400 L 53.108 271.000 53.131 269.200 C 53.144 268.210,53.005 266.680,52.823 265.800 L 52.492 264.200 52.469 266.000 M313.496 268.750 C 313.333 269.493,313.220 270.752,313.244 271.550 C 313.288 273.000,313.288 273.000,313.650 271.200 C 313.850 270.210,313.963 268.950,313.902 268.400 C 313.804 267.520,313.756 267.561,313.496 268.750 M53.275 272.200 C 53.310 274.342,53.901 276.164,53.925 274.200 C 53.935 273.320,53.789 272.240,53.600 271.800 C 53.309 271.123,53.259 271.184,53.275 272.200 M312.625 274.600 C 312.218 276.945,311.545 280.055,311.197 281.200 C 311.030 281.750,310.668 283.010,310.393 284.000 C 309.630 286.747,308.352 290.494,307.829 291.516 L 307.361 292.432 306.181 291.386 C 303.234 288.778,295.119 283.948,294.583 284.484 C 294.478 284.589,295.789 285.359,297.496 286.195 C 299.203 287.031,301.925 288.724,303.544 289.957 C 307.825 293.218,307.572 293.080,308.001 292.400 C 309.366 290.232,313.536 274.743,313.087 273.508 C 312.986 273.229,312.778 273.720,312.625 274.600 M54.046 276.600 C 54.115 278.231,54.715 279.587,54.754 278.200 C 54.773 277.540,54.613 276.730,54.400 276.400 C 54.081 275.906,54.018 275.941,54.046 276.600 M55.005 281.000 C 55.425 283.534,58.551 292.521,59.072 292.693 C 59.332 292.778,60.232 292.237,61.072 291.489 C 65.030 287.970,71.276 284.665,76.600 283.275 C 80.343 282.297,80.974 282.080,80.192 282.041 C 77.622 281.911,66.199 286.535,63.776 288.687 C 59.652 292.347,59.090 292.515,58.394 290.300 C 58.101 289.365,57.712 288.429,57.530 288.220 C 57.349 288.011,57.200 287.437,57.200 286.944 C 57.200 286.451,57.020 285.936,56.800 285.800 C 56.580 285.664,56.400 285.034,56.400 284.400 C 56.400 283.766,56.220 283.136,56.000 283.000 C 55.780 282.864,55.597 282.268,55.594 281.676 C 55.591 281.084,55.397 280.330,55.164 280.000 C 54.851 279.557,54.810 279.819,55.005 281.000 M286.400 282.400 C 287.867 282.870,289.694 282.870,288.600 282.400 C 288.160 282.211,287.260 282.062,286.600 282.068 C 285.430 282.079,285.425 282.088,286.400 282.400 M289.600 282.954 C 289.600 283.206,293.673 284.460,293.866 284.268 C 293.963 284.170,293.192 283.800,292.150 283.445 C 290.242 282.795,289.600 282.671,289.600 282.954 M83.200 293.420 C 79.830 293.992,78.649 294.280,77.200 294.883 C 61.682 301.335,54.241 317.279,59.404 333.017 C 64.528 348.637,81.100 359.308,93.841 355.191 C 94.698 354.914,95.651 354.618,95.957 354.534 C 96.264 354.450,96.435 354.302,96.339 354.205 C 96.242 354.109,95.181 354.304,93.981 354.639 C 73.332 360.408,52.803 336.119,59.659 314.028 C 65.494 295.224,88.222 287.577,104.700 298.873 C 105.635 299.514,106.400 299.886,106.400 299.699 C 106.400 298.114,96.470 294.055,90.523 293.209 C 87.223 292.740,87.208 292.740,83.200 293.420 M275.000 293.418 C 267.588 294.607,262.475 297.168,257.641 302.114 C 254.601 305.224,250.774 311.262,250.812 312.889 C 250.818 313.170,251.544 311.943,252.425 310.162 C 263.577 287.612,296.389 288.397,305.994 311.444 C 316.361 336.319,290.599 364.182,267.832 352.718 C 261.898 349.730,254.812 342.595,253.060 337.843 C 252.907 337.426,252.680 337.187,252.555 337.311 C 252.280 337.586,254.099 340.811,255.764 343.000 C 266.530 357.160,282.468 359.860,295.648 349.757 C 307.592 340.601,312.175 323.516,306.166 310.549 C 302.512 302.663,294.955 296.296,286.600 294.064 C 285.026 293.643,279.039 292.750,278.484 292.853 C 278.328 292.881,276.760 293.136,275.000 293.418 M106.813 300.054 C 106.806 300.193,107.672 301.183,108.738 302.254 C 111.815 305.344,114.986 310.532,115.762 313.747 C 115.914 314.378,116.140 314.793,116.264 314.669 C 116.627 314.306,115.335 310.919,113.758 308.098 C 112.511 305.869,106.850 299.312,106.813 300.054 M250.273 314.153 C 250.123 314.545,250.011 315.166,250.025 315.533 C 250.042 315.975,250.181 315.874,250.437 315.234 C 250.649 314.703,250.761 314.082,250.685 313.854 C 250.609 313.627,250.424 313.761,250.273 314.153 M116.468 316.000 C 116.487 317.650,117.117 319.356,117.132 317.800 C 117.138 317.140,116.989 316.240,116.800 315.800 C 116.487 315.073,116.457 315.091,116.468 316.000 M249.482 317.550 C 249.327 318.293,249.221 319.553,249.247 320.350 C 249.286 321.573,249.350 321.456,249.657 319.603 C 250.065 317.141,249.921 315.451,249.482 317.550 M117.342 323.000 C 117.341 324.980,117.408 325.840,117.492 324.912 C 117.576 323.984,117.577 322.364,117.495 321.312 C 117.412 320.260,117.343 321.020,117.342 323.000 M249.228 326.033 C 249.244 327.225,249.421 328.560,249.622 329.000 C 249.861 329.521,249.903 328.824,249.745 327.000 C 249.448 323.582,249.190 323.100,249.228 326.033 M116.619 328.727 C 116.455 329.677,116.417 330.550,116.534 330.668 C 116.826 330.959,117.326 328.173,117.100 327.521 C 117.000 327.235,116.784 327.777,116.619 328.727 M250.025 330.592 C 250.000 331.395,251.983 336.951,252.213 336.720 C 252.282 336.651,251.824 335.066,251.194 333.198 C 250.565 331.329,250.039 330.156,250.025 330.592 M115.829 332.229 C 115.681 332.815,115.651 333.384,115.761 333.494 C 115.871 333.604,116.081 333.215,116.229 332.629 C 116.376 332.042,116.406 331.473,116.296 331.363 C 116.186 331.253,115.976 331.642,115.829 332.229 M114.966 334.643 C 114.426 336.264,111.785 341.420,111.198 342.000 C 111.086 342.110,110.482 342.888,109.855 343.730 C 107.330 347.115,103.564 350.282,99.494 352.443 C 97.902 353.288,96.780 353.986,97.000 353.995 C 98.996 354.076,106.232 348.745,109.651 344.674 C 111.925 341.966,115.981 334.648,115.483 334.150 C 115.338 334.005,115.105 334.226,114.966 334.643 " stroke="none" fill="#807554" fill-rule="evenodd"></path></g></svg>