<?xml version="1.0" encoding="UTF-8"?>
<svg version="1.1" xmlns="http://www.w3.org/2000/svg" width="512" height="512">
<path d="M0 0 C1.39992188 0.680625 1.39992188 0.680625 2.828125 1.375 C20.04582541 10.22432088 31.09517609 23.79210633 41 40 C41.64324219 39.55269531 42.28648437 39.10539062 42.94921875 38.64453125 C49.99329922 33.93172991 56.94757652 30.62328355 65 28 C66.40378906 27.51853516 66.40378906 27.51853516 67.8359375 27.02734375 C89.58633708 20.75879695 114.26118565 24.7878801 133.83203125 35.55859375 C140.59032263 39.6513772 146.30079397 44.55583589 152 50 C152.61488281 50.54011719 153.22976563 51.08023438 153.86328125 51.63671875 C168.84716099 65.31166187 176.25661297 86.65764844 177.28125 106.484375 C177.96449629 128.76725055 171.10380119 149.75205129 156.734375 166.90625 C154.86801017 169.08574483 154.86801017 169.08574483 153 172 C153.66 172.20625 154.32 172.4125 155 172.625 C159.15107905 174.5275779 162.45498207 177.14606859 166 180 C166.71414063 180.55429688 167.42828125 181.10859375 168.1640625 181.6796875 C182.23254748 193.26257443 191.79509436 210.94164058 194 229 C195.67960784 252.95603271 190.46150218 273.59966298 175.25 292.625 C162.72390698 306.51697018 144.06378342 317.12600345 125.12817383 318.15625 C122.06199996 318.19567048 119.00347077 318.17529353 115.9375 318.125 C114.88111328 318.11597656 113.82472656 318.10695313 112.73632812 318.09765625 C110.15730747 318.0743167 107.5787801 318.04157775 105 318 C104.93087402 319.22855713 104.93087402 319.22855713 104.86035156 320.48193359 C104.44865209 327.3726663 103.28925347 333.4921851 101 340 C103.31 340.33 105.62 340.66 108 341 C108.3403125 340.1646875 108.3403125 340.1646875 108.6875 339.3125 C113.40606236 330.99884251 123.14442314 324.32914099 132.1796875 321.66015625 C158.45443759 317.11983645 182.36626671 325.52204003 204 340 C205.02609375 340.67289062 206.0521875 341.34578125 207.109375 342.0390625 C217.58004323 349.21340925 217.58004323 349.21340925 219 355 C219.89470763 362.67716868 219.86789332 367.75424535 215 374 C200.03475783 390.95751899 180.20641533 404.06524104 158 409 C156.75669922 409.28617187 156.75669922 409.28617187 155.48828125 409.578125 C140.79743703 412.06888038 128.13416169 408.2014285 116 400 C115.34 399.34 114.68 398.68 114 398 C111.43449484 397.61609738 111.43449484 397.61609738 108.41796875 397.54296875 C107.26804443 397.48512207 106.11812012 397.42727539 104.93334961 397.36767578 C103.07915405 397.27848877 103.07915405 397.27848877 101.1875 397.1875 C84.82206229 396.21430113 69.18714283 393.36650718 54 387 C53.74347656 387.88171875 53.48695313 388.7634375 53.22265625 389.671875 C49.74261691 399.14469774 40.67263058 410.29526233 32.21875 415.81640625 C29.63503888 417.88223567 29.63503888 417.88223567 29.73046875 421.40625 C29.85985031 422.77320161 30.01385022 424.13796401 30.1875 425.5 C30.32383896 427.01389583 30.45512905 428.5282527 30.58203125 430.04296875 C30.65373535 430.8426709 30.72543945 431.64237305 30.79931641 432.46630859 C31.15152901 436.91309981 31.29216964 441.35353385 31.375 445.8125 C31.41262451 446.66585938 31.45024902 447.51921875 31.48901367 448.3984375 C31.57368486 454.38426984 31.57368486 454.38426984 28.6015625 457.57421875 C26 459 26 459 24 459 C23.69563433 461.39574961 23.43105687 463.78544825 23.1875 466.1875 C23.09791016 466.86103516 23.00832031 467.53457031 22.91601562 468.22851562 C22.64844198 470.52340439 22.64844198 470.52340439 23 474 C25.33998816 476.83545205 25.33998816 476.83545205 28 479 C28.82208883 482.28835533 28.41354662 484.13559428 26.9609375 487.171875 C22.77318756 494.14365981 17.35801808 497.91573048 10.125 501.375 C0.5900253 503.28199494 -7.48276406 502.01610373 -15.78125 496.90234375 C-21.83567035 492.34608354 -24.9545768 486.49794474 -26.375 479.1875 C-27.0140625 474.41820021 -26.89067661 470.17541044 -26.29296875 465.421875 C-25.59977889 457.32541744 -25.94833482 449.11143329 -26 441 C-33.26 441 -40.52 441 -48 441 C-48.16656112 455.3949677 -48.16656112 455.3949677 -47.375 469.75 C-46.64975378 479.06831504 -48.23969901 485.12646596 -53.86328125 492.6953125 C-58.84243156 498.06587682 -65.15365222 501.52775205 -72.4453125 502.23828125 C-81.00955742 502.47548337 -87.93331478 500.60496371 -94.8125 495.375 C-103.06047662 487.55498443 -104.61118244 476.66644146 -105.09939575 465.7845459 C-105.23766746 460.23091577 -105.18395901 454.6793838 -105.125 449.125 C-105.1149383 447.45443252 -105.10581815 445.78385909 -105.09765625 444.11328125 C-105.07592258 440.07537022 -105.04157357 436.03775348 -105 432 C-105.93086426 432.47848389 -106.86172852 432.95696777 -107.82080078 433.44995117 C-109.07051357 434.08536852 -110.32035789 434.72052723 -111.5703125 435.35546875 C-112.18044189 435.66995972 -112.79057129 435.98445068 -113.41918945 436.30847168 C-128.73077931 444.05534678 -145.70299261 444.39066823 -162.5234375 445.234375 C-171.22041106 445.69303892 -178.58014662 446.83025379 -186.4375 450.6875 C-192.63791202 452.97186232 -199.17085204 453.14726205 -205.3125 450.5 C-210.50289543 447.52032855 -214.12470493 442.62588522 -216 437 C-216.69827858 429.91418948 -216.47592966 423.77293201 -212 418 C-198.16957587 403.97009859 -175.68421779 403.72984484 -157.37915039 402.73364258 C-148.45351748 402.22517094 -139.82910631 401.46144678 -131.5 398 C-130.6853125 397.67 -129.870625 397.34 -129.03125 397 C-126.84389195 396.05861041 -126.84389195 396.05861041 -125 394 C-125.495 393.21625 -125.99 392.4325 -126.5 391.625 C-128 389 -128 389 -128 387 C-129.13695312 387.39832031 -130.27390625 387.79664063 -131.4453125 388.20703125 C-143.14047439 392.25074757 -154.31250743 395.76320279 -166.7421875 396.375 C-167.97275879 396.43977539 -169.20333008 396.50455078 -170.47119141 396.57128906 C-172.93833132 396.68796734 -175.40712615 396.77461639 -177.87646484 396.82714844 C-185.49076215 397.16781868 -189.91161305 398.57964168 -195.89111328 403.33398438 C-198.38446377 405.30372549 -200.80066038 406.39062063 -203.8125 407.375 C-204.68519531 407.67148437 -205.55789062 407.96796875 -206.45703125 408.2734375 C-224.36423382 413.38978109 -242.11287183 407.63903969 -257.97021484 399.15478516 C-267.57765523 393.68892119 -276.04333742 386.6304536 -284 379 C-284.69222656 378.34773438 -285.38445312 377.69546875 -286.09765625 377.0234375 C-291.12519767 372.17139547 -293.29330082 369.02113384 -293.5 361.8125 C-293.32264928 354.90353295 -292.01712839 350.8102365 -287 346 C-282.29829656 342.20771695 -277.18836638 339.07388617 -272 336 C-271.38415039 335.62955566 -270.76830078 335.25911133 -270.13378906 334.87744141 C-250.63180757 323.29912445 -228.78230023 317.8442694 -206.140625 321.6484375 C-197.23780774 324.34695983 -190.13772371 330.11830978 -184 337 C-183.34 338.32 -182.68 339.64 -182 341 C-179.03 340.67 -176.06 340.34 -173 340 C-173.28875 339.01 -173.5775 338.02 -173.875 337 C-177.57027365 323.98585221 -177.57027365 323.98585221 -177 317 C-177.66 317.33 -178.32 317.66 -179 318 C-200.97867862 319.8663085 -221.77351032 316.11604754 -239.05859375 301.6640625 C-240.01958984 300.84035156 -240.01958984 300.84035156 -241 300 C-241.58910156 299.55398438 -242.17820313 299.10796875 -242.78515625 298.6484375 C-256.97766223 287.59186108 -264.92034208 269.31945551 -268 252 C-269.67110939 229.10464889 -265.69244315 208.01062868 -250.6875 190.0625 C-244.48598688 182.95164865 -237.31361418 176.53726062 -229 172 C-228.34 172 -227.68 172 -227 172 C-227.6290625 171.23558594 -228.258125 170.47117188 -228.90625 169.68359375 C-245.21324187 149.46074657 -252.83938886 127.14738882 -251 101 C-248.18660577 78.26868956 -236.52139759 57.63719669 -219 43 C-211.10240783 36.90010877 -202.4616671 32.19698565 -193 29 C-191.30423828 28.4121875 -191.30423828 28.4121875 -189.57421875 27.8125 C-166.65786154 20.95900999 -142.70450054 24.33088291 -121.78515625 35.3515625 C-119.38051618 36.77478565 -117.18444232 38.26297357 -115 40 C-114.21689453 38.69289063 -114.21689453 38.69289063 -113.41796875 37.359375 C-100.11958868 15.6444152 -82.20982886 0.24751674 -57 -6 C-38.01432358 -10.44778229 -17.5045144 -8.70280942 0 0 Z " fill="#7492E1" transform="translate(293,9)"/>
<path d="M0 0 C1.39992188 0.680625 1.39992188 0.680625 2.828125 1.375 C20.04582541 10.22432088 31.09517609 23.79210633 41 40 C41.64324219 39.55269531 42.28648437 39.10539062 42.94921875 38.64453125 C49.99329922 33.93172991 56.94757652 30.62328355 65 28 C66.40378906 27.51853516 66.40378906 27.51853516 67.8359375 27.02734375 C89.58633708 20.75879695 114.26118565 24.7878801 133.83203125 35.55859375 C140.59032263 39.6513772 146.30079397 44.55583589 152 50 C152.61488281 50.54011719 153.22976563 51.08023438 153.86328125 51.63671875 C168.84716099 65.31166187 176.25661297 86.65764844 177.28125 106.484375 C177.96449629 128.76725055 171.10380119 149.75205129 156.734375 166.90625 C154.86801017 169.08574483 154.86801017 169.08574483 153 172 C153.66 172.20625 154.32 172.4125 155 172.625 C159.15107905 174.5275779 162.45498207 177.14606859 166 180 C166.71414063 180.55429688 167.42828125 181.10859375 168.1640625 181.6796875 C182.23254748 193.26257443 191.79509436 210.94164058 194 229 C195.67960784 252.95603271 190.46150218 273.59966298 175.25 292.625 C162.72390698 306.51697018 144.06378342 317.12600345 125.12817383 318.15625 C122.06199996 318.19567048 119.00347077 318.17529353 115.9375 318.125 C114.88111328 318.11597656 113.82472656 318.10695313 112.73632812 318.09765625 C110.15730747 318.0743167 107.5787801 318.04157775 105 318 C104.93087402 319.22855713 104.93087402 319.22855713 104.86035156 320.48193359 C104.44865209 327.3726663 103.28925347 333.4921851 101 340 C103.31 340.33 105.62 340.66 108 341 C108.3403125 340.1646875 108.3403125 340.1646875 108.6875 339.3125 C113.40606236 330.99884251 123.14442314 324.32914099 132.1796875 321.66015625 C158.45443759 317.11983645 182.36626671 325.52204003 204 340 C205.02609375 340.67289062 206.0521875 341.34578125 207.109375 342.0390625 C217.58004323 349.21340925 217.58004323 349.21340925 219 355 C219.89470763 362.67716868 219.86789332 367.75424535 215 374 C200.03475783 390.95751899 180.20641533 404.06524104 158 409 C156.75669922 409.28617187 156.75669922 409.28617187 155.48828125 409.578125 C140.79743703 412.06888038 128.13416169 408.2014285 116 400 C115.34 399.34 114.68 398.68 114 398 C111.43449484 397.61609738 111.43449484 397.61609738 108.41796875 397.54296875 C107.26804443 397.48512207 106.11812012 397.42727539 104.93334961 397.36767578 C103.07915405 397.27848877 103.07915405 397.27848877 101.1875 397.1875 C84.82206229 396.21430113 69.18714283 393.36650718 54 387 C53.74347656 387.88171875 53.48695313 388.7634375 53.22265625 389.671875 C49.74261691 399.14469774 40.67263058 410.29526233 32.21875 415.81640625 C29.63503888 417.88223567 29.63503888 417.88223567 29.73046875 421.40625 C29.85985031 422.77320161 30.01385022 424.13796401 30.1875 425.5 C30.32383896 427.01389583 30.45512905 428.5282527 30.58203125 430.04296875 C30.65373535 430.8426709 30.72543945 431.64237305 30.79931641 432.46630859 C31.15152901 436.91309981 31.29216964 441.35353385 31.375 445.8125 C31.41262451 446.66585938 31.45024902 447.51921875 31.48901367 448.3984375 C31.57368486 454.38426984 31.57368486 454.38426984 28.6015625 457.57421875 C26 459 26 459 24 459 C23.69563433 461.39574961 23.43105687 463.78544825 23.1875 466.1875 C23.09791016 466.86103516 23.00832031 467.53457031 22.91601562 468.22851562 C22.64844198 470.52340439 22.64844198 470.52340439 23 474 C25.33998816 476.83545205 25.33998816 476.83545205 28 479 C28.82208883 482.28835533 28.41354662 484.13559428 26.9609375 487.171875 C22.77318756 494.14365981 17.35801808 497.91573048 10.125 501.375 C0.5900253 503.28199494 -7.48276406 502.01610373 -15.78125 496.90234375 C-21.83567035 492.34608354 -24.9545768 486.49794474 -26.375 479.1875 C-27.0140625 474.41820021 -26.89067661 470.17541044 -26.29296875 465.421875 C-25.59977889 457.32541744 -25.94833482 449.11143329 -26 441 C-33.26 441 -40.52 441 -48 441 C-48.16656112 455.3949677 -48.16656112 455.3949677 -47.375 469.75 C-46.64975378 479.06831504 -48.23969901 485.12646596 -53.86328125 492.6953125 C-58.84243156 498.06587682 -65.15365222 501.52775205 -72.4453125 502.23828125 C-81.00955742 502.47548337 -87.93331478 500.60496371 -94.8125 495.375 C-103.06047662 487.55498443 -104.61118244 476.66644146 -105.09939575 465.7845459 C-105.23766746 460.23091577 -105.18395901 454.6793838 -105.125 449.125 C-105.1149383 447.45443252 -105.10581815 445.78385909 -105.09765625 444.11328125 C-105.07592258 440.07537022 -105.04157357 436.03775348 -105 432 C-105.93086426 432.47848389 -106.86172852 432.95696777 -107.82080078 433.44995117 C-109.07051357 434.08536852 -110.32035789 434.72052723 -111.5703125 435.35546875 C-112.18044189 435.66995972 -112.79057129 435.98445068 -113.41918945 436.30847168 C-128.73077931 444.05534678 -145.70299261 444.39066823 -162.5234375 445.234375 C-171.22041106 445.69303892 -178.58014662 446.83025379 -186.4375 450.6875 C-192.63791202 452.97186232 -199.17085204 453.14726205 -205.3125 450.5 C-210.50289543 447.52032855 -214.12470493 442.62588522 -216 437 C-216.69827858 429.91418948 -216.47592966 423.77293201 -212 418 C-198.16957587 403.97009859 -175.68421779 403.72984484 -157.37915039 402.73364258 C-148.45351748 402.22517094 -139.82910631 401.46144678 -131.5 398 C-130.6853125 397.67 -129.870625 397.34 -129.03125 397 C-126.84389195 396.05861041 -126.84389195 396.05861041 -125 394 C-125.495 393.21625 -125.99 392.4325 -126.5 391.625 C-128 389 -128 389 -128 387 C-129.13695312 387.39832031 -130.27390625 387.79664063 -131.4453125 388.20703125 C-143.14047439 392.25074757 -154.31250743 395.76320279 -166.7421875 396.375 C-167.97275879 396.43977539 -169.20333008 396.50455078 -170.47119141 396.57128906 C-172.93833132 396.68796734 -175.40712615 396.77461639 -177.87646484 396.82714844 C-185.49076215 397.16781868 -189.91161305 398.57964168 -195.89111328 403.33398438 C-198.38446377 405.30372549 -200.80066038 406.39062063 -203.8125 407.375 C-204.68519531 407.67148437 -205.55789062 407.96796875 -206.45703125 408.2734375 C-224.36423382 413.38978109 -242.11287183 407.63903969 -257.97021484 399.15478516 C-267.57765523 393.68892119 -276.04333742 386.6304536 -284 379 C-284.69222656 378.34773438 -285.38445312 377.69546875 -286.09765625 377.0234375 C-291.12519767 372.17139547 -293.29330082 369.02113384 -293.5 361.8125 C-293.32264928 354.90353295 -292.01712839 350.8102365 -287 346 C-282.29829656 342.20771695 -277.18836638 339.07388617 -272 336 C-271.38415039 335.62955566 -270.76830078 335.25911133 -270.13378906 334.87744141 C-250.63180757 323.29912445 -228.78230023 317.8442694 -206.140625 321.6484375 C-197.23780774 324.34695983 -190.13772371 330.11830978 -184 337 C-183.34 338.32 -182.68 339.64 -182 341 C-179.03 340.67 -176.06 340.34 -173 340 C-173.28875 339.01 -173.5775 338.02 -173.875 337 C-177.57027365 323.98585221 -177.57027365 323.98585221 -177 317 C-177.66 317.33 -178.32 317.66 -179 318 C-200.97867862 319.8663085 -221.77351032 316.11604754 -239.05859375 301.6640625 C-240.01958984 300.84035156 -240.01958984 300.84035156 -241 300 C-241.58910156 299.55398438 -242.17820313 299.10796875 -242.78515625 298.6484375 C-256.97766223 287.59186108 -264.92034208 269.31945551 -268 252 C-269.67110939 229.10464889 -265.69244315 208.01062868 -250.6875 190.0625 C-244.48598688 182.95164865 -237.31361418 176.53726062 -229 172 C-228.34 172 -227.68 172 -227 172 C-227.6290625 171.23558594 -228.258125 170.47117188 -228.90625 169.68359375 C-245.21324187 149.46074657 -252.83938886 127.14738882 -251 101 C-248.18660577 78.26868956 -236.52139759 57.63719669 -219 43 C-211.10240783 36.90010877 -202.4616671 32.19698565 -193 29 C-191.30423828 28.4121875 -191.30423828 28.4121875 -189.57421875 27.8125 C-166.65786154 20.95900999 -142.70450054 24.33088291 -121.78515625 35.3515625 C-119.38051618 36.77478565 -117.18444232 38.26297357 -115 40 C-114.21689453 38.69289063 -114.21689453 38.69289063 -113.41796875 37.359375 C-100.11958868 15.6444152 -82.20982886 0.24751674 -57 -6 C-38.01432358 -10.44778229 -17.5045144 -8.70280942 0 0 Z M-91.11328125 32.265625 C-95.77026235 37.72740477 -99.13649721 43.59308292 -102.29931641 49.99853516 C-103.94730251 53.29193641 -104.86661619 54.91107746 -108 57 C-112.49702142 57.93240994 -116.46241162 57.84603008 -120.52734375 55.609375 C-122.20677257 54.38893699 -123.86791027 53.14300779 -125.51171875 51.875 C-139.48638546 41.3446389 -157.94936274 38.64757445 -175 40 C-191.5771503 42.78056901 -205.52548035 51.03758739 -217 63 C-217.60199219 63.60585937 -218.20398438 64.21171875 -218.82421875 64.8359375 C-230.87569536 77.80471811 -235.16981428 93.99768704 -235.25 111.1875 C-235.270625 112.27353516 -235.29125 113.35957031 -235.3125 114.47851562 C-235.36181013 124.74118624 -232.88973434 132.99078062 -228.25 142.0625 C-227.90074463 142.75077881 -227.55148926 143.43905762 -227.19165039 144.14819336 C-223.06452313 152.07261407 -217.85370255 158.4526543 -211.3828125 164.58984375 C-208.63481479 167.3921804 -208.81911061 170.02599078 -208.671875 173.83203125 C-209.13048876 176.8621579 -210.14131362 178.56071766 -212 181 C-214.78515625 182.73828125 -214.78515625 182.73828125 -218.0625 184.3125 C-234.60128433 192.83916215 -244.68561155 205.69638002 -251.1015625 222.96484375 C-254.62659843 234.97302689 -254.29150314 248.2723578 -250 260 C-249.7215625 260.83789062 -249.443125 261.67578125 -249.15625 262.5390625 C-246.79467332 269.11483205 -243.23342969 274.47611696 -239 280 C-238.35804688 280.84175781 -237.71609375 281.68351562 -237.0546875 282.55078125 C-226.8029682 294.77098658 -211.56202273 301.23856648 -196 303 C-189.88830248 303.32295112 -183.94097307 303.6043134 -178 302 C-172.68364115 301.66245341 -169.28410018 301.4719175 -165 305 C-162.84990766 308.14779705 -162.69048871 311.25288919 -162.41918945 314.99023438 C-161.11058975 332.95185111 -153.86238743 347.0338361 -140.875 359.60546875 C-127.33877541 370.87952537 -111.74600696 375.10128249 -94.32421875 374.22216797 C-82.93218379 373.13322345 -72.32937671 368.46215797 -63 362 C-62.02353516 361.32710938 -62.02353516 361.32710938 -61.02734375 360.640625 C-56.14917491 356.86254435 -52.76876275 351.89229 -49.2109375 346.90234375 C-43.45916571 339.35187301 -43.45916571 339.35187301 -39.68359375 338.44140625 C-38.94238281 338.48136719 -38.20117188 338.52132813 -37.4375 338.5625 C-36.32181641 338.59537109 -36.32181641 338.59537109 -35.18359375 338.62890625 C-32.68074285 339.05425658 -31.11743808 339.58549961 -29 341 C-27.4296875 343.21484375 -27.4296875 343.21484375 -25.875 345.9375 C-16.8765095 360.54568777 -5.13106255 369.40728204 11 375 C16.1139976 376.18246065 21.02464598 376.18383566 26.25 376.1875 C27.15363281 376.19974609 28.05726563 376.21199219 28.98828125 376.22460938 C45.95235144 376.26122248 60.25343481 369.33625836 72.625 357.9375 C83.6112043 346.56171398 88.26844851 333.04237485 89.08398438 317.6015625 C89.48325892 312.01978505 90.1570702 308.35852861 94 304 C96.93965669 301.92426608 98.81585106 301.83147944 102.3125 302.375 C119.80752565 304.51988498 138.37298123 302.60845984 152.875 291.6875 C154.27548994 290.48745683 155.65042663 289.25703119 157 288 C157.76957031 287.29746094 158.53914063 286.59492188 159.33203125 285.87109375 C170.90430849 274.83616935 178.3078169 260.4859182 179.203125 244.3359375 C179.42142488 225.88959798 173.99176633 209.53604797 161 196 C155.17205641 190.50769714 148.71929594 186.45655615 141.64599609 182.78857422 C138.26227939 180.98132951 136.17466433 179.73557848 135 176 C134.38738239 171.91588258 134.02781062 169.48417076 136.3203125 165.984375 C138.68116161 163.2953361 141.19602892 160.79315533 143.7421875 158.28125 C155.4582048 145.97133321 161.17245047 128.61498738 161.25 112 C161.270625 110.92621094 161.29125 109.85242188 161.3125 108.74609375 C161.39777771 91.02964863 154.79171953 76.07144103 143 63 C142.09507812 61.95585938 142.09507812 61.95585938 141.171875 60.890625 C132.12694715 51.08561918 120.53661705 45.84138622 108 42 C106.89269531 41.63390625 105.78539062 41.2678125 104.64453125 40.890625 C86.5661658 36.47276078 67.60079438 41.69952643 52 51 C50.56136299 52.11812434 49.14103607 53.26068348 47.75 54.4375 C44.07991812 57.3735655 41.01555349 57.67682284 36.39453125 57.69921875 C31.83652589 56.36825144 29.55393101 52.94192675 27.2265625 48.984375 C26.69804687 47.91703125 26.16953125 46.8496875 25.625 45.75 C22.59879303 39.94649485 19.30336124 34.92366556 15 30 C14.46890625 29.38640625 13.9378125 28.7728125 13.390625 28.140625 C6.44008505 20.66052011 -2.57771308 15.71024119 -12 12 C-13.08667969 11.56880859 -13.08667969 11.56880859 -14.1953125 11.12890625 C-42.24015506 0.31456659 -71.42664494 11.15980418 -91.11328125 32.265625 Z " fill="#010101" transform="translate(293,9)"/>
<path d="M0 0 C0.69787628 0.00248749 1.39575256 0.00497498 2.11477661 0.00753784 C13.3928911 0.06941984 24.25462274 0.66063504 35.25 3.3125 C36.68883545 3.65909668 36.68883545 3.65909668 38.15673828 4.01269531 C78.4290877 14.00692593 113.89673555 33.62985732 136.11328125 69.7109375 C142.40420459 80.1967539 146.57534181 90.40963725 149.25 102.3125 C149.42732666 102.97838135 149.60465332 103.6442627 149.78735352 104.33032227 C151.42221753 110.77301068 151.58258843 116.99983646 151.5625 123.625 C151.57861328 124.67623047 151.59472656 125.72746094 151.61132812 126.81054688 C151.62414342 147.66103309 142.50289882 167.75001428 128.0625 182.5625 C98.5838583 211.38606078 52.7201644 220.35386118 12.94140625 220.515625 C11.81339096 220.52132507 10.68537567 220.52702515 9.5231781 220.53289795 C7.15095942 220.54227257 4.77872816 220.54885157 2.40649414 220.55273438 C-1.14786618 220.56239231 -4.70163522 220.59347039 -8.25585938 220.625 C-22.67314932 220.69103827 -36.5383655 219.74671384 -50.75 217.3125 C-51.46729782 217.19223953 -52.18459564 217.07197906 -52.92362976 216.94807434 C-67.42463741 214.49485329 -81.99660106 210.44443058 -95.33984375 204.1953125 C-98.0041569 203.21940525 -99.93453328 203.03478389 -102.75 203.3125 C-104.56476003 204.70835785 -104.56476003 204.70835785 -105.75 206.3125 C-110.3688849 204.99868385 -113.71699445 203.17427157 -117.5625 200.3125 C-118.51769531 199.61125 -119.47289062 198.91 -120.45703125 198.1875 C-122.75 196.3125 -122.75 196.3125 -123.75 194.3125 C-123.585 193.136875 -123.42 191.96125 -123.25 190.75 C-123.20014156 187.67539648 -123.54568165 186.56596396 -125.50390625 184.13671875 C-127.09403112 182.62192975 -128.69779314 181.12137039 -130.3125 179.6328125 C-144.58443355 166.0470296 -150.5937356 145.67177069 -151.14746094 126.57128906 C-151.29194445 115.26281156 -150.11549128 105.09604644 -146.75 94.3125 C-146.44964844 93.32507813 -146.14929688 92.33765625 -145.83984375 91.3203125 C-138.01004082 67.93258945 -122.33566243 48.03812435 -102.75 33.3125 C-101.97527344 32.72210938 -101.20054687 32.13171875 -100.40234375 31.5234375 C-82.54157423 18.46330887 -62.29694474 9.81021998 -40.82666016 4.80957031 C-38.91869437 4.35287876 -37.02645029 3.83176938 -35.13671875 3.3046875 C-23.60030352 0.45080048 -11.82938551 -0.06810864 0 0 Z " fill="#FEDB9B" transform="translate(255.75,104.6875)"/>
<path d="M0 0 C0.83809204 0.83180786 0.83809204 0.83180786 1.69311523 1.68041992 C3.74972373 3.5925924 5.41540657 4.88219342 8 6 C12.4549773 5.79610376 16.46198617 4.42306889 20.6875 3.0625 C39.83496413 -2.42289366 60.04783116 -5.19965572 80 -4 C80.79857422 -3.95214355 81.59714844 -3.90428711 82.41992188 -3.85498047 C92.51311188 -3.20422557 102.4527646 -2.10694681 112.375 -0.125 C113.1985498 0.03653564 114.02209961 0.19807129 114.87060547 0.36450195 C118.79521196 1.17739459 122.52116569 2.13041384 126.27734375 3.53515625 C132.95925787 6.12302943 132.95925787 6.12302943 139.8359375 5.23730469 C143.15794349 3.1931304 146.05159056 0.69447395 149.015625 -1.828125 C164.91568309 -15.15587845 186.82279389 -19.16636202 206.875 -19.25 C208.10347656 -19.270625 209.33195312 -19.29125 210.59765625 -19.3125 C220.48913199 -19.35490718 228.39996483 -18.12015776 236.21484375 -11.78125 C245.61294032 -2.4037182 247.06297002 12.99017835 247.19091797 25.64477539 C247.15911329 47.56047155 243.37539332 68.43691002 231 87 C231.46582097 92.5980239 233.41996319 97.94768695 235.09570312 103.28320312 C241.49033644 124.27219476 241.40566574 147.32825879 234 168 C233.62746094 169.09957031 233.25492187 170.19914063 232.87109375 171.33203125 C224.65910764 193.16389677 207.10182588 210.84235732 187 222 C186.42217773 222.32709961 185.84435547 222.65419922 185.24902344 222.99121094 C151.07710695 242.1207655 111.75581912 246.17540872 73.35742188 246.24023438 C69.90209727 246.24992401 66.44737312 246.28104454 62.9921875 246.3125 C48.744681 246.38043402 35.04092046 245.43047061 21 243 C19.25348145 242.70174316 19.25348145 242.70174316 17.47167969 242.39746094 C14.7786737 241.90002671 12.10950155 241.34922325 9.4375 240.75 C8.03842407 240.44074585 8.03842407 240.44074585 6.61108398 240.12524414 C-27.17080656 232.3416736 -27.17080656 232.3416736 -34 224 C-34.49442439 220.11523694 -34.53291213 217.88818688 -32.5 214.5 C-28.93933185 212.36359911 -25.89252824 213.18037986 -22 214 C-19.59422657 214.8554446 -17.21720253 215.79582967 -14.875 216.8125 C-4.58744976 221.10485189 5.90857589 223.87393496 16.8125 226.125 C17.94788208 226.36307373 17.94788208 226.36307373 19.10620117 226.60595703 C35.13578865 229.77225419 50.89519199 230.3192799 67.20019531 230.26074219 C70.72999415 230.25006054 74.25927943 230.26067333 77.7890625 230.2734375 C95.27828138 230.28537162 113.00085573 230.01411577 130.0625 225.75 C130.96476318 225.53239014 131.86702637 225.31478027 132.79663086 225.09057617 C135.53739842 224.41620908 138.26908716 223.71312706 141 223 C142.27423828 222.67539795 142.27423828 222.67539795 143.57421875 222.34423828 C161.18523547 217.78107368 179.01199625 210.91079624 193 199 C194.48693359 197.78763672 194.48693359 197.78763672 196.00390625 196.55078125 C207.20849353 187.11017125 213.9118589 175.71141637 219 162 C219.33128906 161.26910156 219.66257812 160.53820312 220.00390625 159.78515625 C222.90442602 151.67507549 223.38822468 143.4872559 223.375 134.9375 C223.37338867 133.84421387 223.37177734 132.75092773 223.37011719 131.62451172 C223.22987657 122.26551285 221.80499133 113.90026661 219 105 C218.54947266 103.52080078 218.54947266 103.52080078 218.08984375 102.01171875 C210.40581917 79.02617337 195.21947602 59.51324069 176 45 C175.22398437 44.40832031 174.44796875 43.81664062 173.6484375 43.20703125 C154.0090351 28.85516027 131.54733653 20.46057287 108 15 C107.23993652 14.82065918 106.47987305 14.64131836 105.69677734 14.45654297 C94.79433659 12.00318926 83.8790616 11.72191746 72.75 11.6875 C72.08035217 11.68373352 71.41070435 11.67996704 70.72076416 11.67608643 C32.19634552 11.56618885 -6.64131803 24.85570947 -36 50 C-36.88171875 50.73605469 -37.7634375 51.47210938 -38.671875 52.23046875 C-57.18446378 68.25902372 -69.37953077 89.2909464 -75 113 C-75.18022705 113.67820801 -75.3604541 114.35641602 -75.54614258 115.05517578 C-81.11651467 137.22242559 -76.3247557 160.57909629 -65 180 C-61.46166467 185.35862669 -57.22776626 189.93698205 -52.4375 194.1875 C-49.99728143 197.00313681 -49.55631497 197.62818005 -49.3125 201.125 C-50 205 -50 205 -52.125 207.5625 C-55.75157325 209.37578662 -57.13137032 209.0882019 -61 208 C-79.22324752 194.05988073 -90.00524423 170.2788438 -93 148 C-93.31054721 143.66255444 -93.38125029 139.34770371 -93.375 135 C-93.37338867 133.82244141 -93.37177734 132.64488281 -93.37011719 131.43164062 C-93.18154993 117.84740362 -90.59191109 105.7738953 -85.703125 93.14453125 C-84.66013536 89.96341285 -84.8410822 88.13589523 -86 85 C-87.15127355 82.81213916 -88.36774345 80.67140902 -89.60546875 78.53125 C-96.39121991 66.2142563 -100.59701924 52.06928465 -101 38 C-101.02046387 37.2982666 -101.04092773 36.5965332 -101.06201172 35.87353516 C-101.30793173 26.07535034 -101.26327066 16.5939901 -99 7 C-98.80535156 6.13117188 -98.61070313 5.26234375 -98.41015625 4.3671875 C-96.2370891 -4.0421966 -92.19120843 -11.00163621 -85.00390625 -16.02734375 C-59.00592572 -28.64624658 -22.01964272 -15.30030657 0 0 Z " fill="#030202" transform="translate(183,94)"/>
<path d="M0 0 C0.66 0.33 1.32 0.66 2 1 C0.625 2.5 0.625 2.5 -1 4 C-1.66 4 -2.32 4 -3 4 C-3.17160645 4.54019775 -3.34321289 5.08039551 -3.52001953 5.63696289 C-5.10318995 10.51482517 -6.87974884 15.25539089 -8.85473633 19.98706055 C-13.0819152 30.13977516 -16.50931622 40.2873816 -19 51 C-19.15839355 51.680625 -19.31678711 52.36125 -19.47998047 53.0625 C-22.27753895 65.58978019 -22.69292803 78.20307249 -23 91 C-14.84324671 90.61318552 -14.84324671 90.61318552 -7.875 86.625 C0.59154368 80.23243136 7.36204242 79.2432643 18 80 C19.485 80.495 19.485 80.495 21 81 C20.95359375 80.11957031 20.9071875 79.23914063 20.859375 78.33203125 C20.82328125 77.17058594 20.7871875 76.00914062 20.75 74.8125 C20.70359375 73.66394531 20.6571875 72.51539063 20.609375 71.33203125 C21.07771458 67.33709463 22.11840333 65.75897554 25 63 C28.83318981 62.38395164 30.95125404 62.28155304 34.1953125 64.50390625 C36.75037215 68.03785239 36.5100711 71.31279602 36.375 75.5 C36.37371094 76.25925781 36.37242187 77.01851563 36.37109375 77.80078125 C36.31042639 81.64978797 36.16666137 84.7413413 34 88 C35.175625 89.36125 35.175625 89.36125 36.375 90.75 C39.05904545 93.85784211 40.94843856 96.37458713 41.08203125 100.5859375 C40.2111533 109.59763102 38.15368431 114.62495862 31.109375 120.4609375 C27.11372283 123.37628372 23.09313252 124.74381518 18.31640625 125.86328125 C13.84125117 126.96637043 9.68079608 128.59319966 5.4375 130.375 C4.72142578 130.66632813 4.00535156 130.95765625 3.26757812 131.2578125 C-1.38167315 133.18689219 -5.67710111 135.4210301 -10 138 C-6.47907723 144.79213471 -2.80333484 151.0460989 2 157 C2.65742188 157.84175781 3.31484375 158.68351563 3.9921875 159.55078125 C11.91734289 169.52068313 20.4894189 178.23780548 30.76074219 185.74047852 C33.43517268 187.7051563 35.13235154 189.19852732 37 192 C21.99105652 190.02873434 8.14289393 185.63506932 -5.7890625 179.83984375 C-8.40589392 178.84581768 -10.22417645 178.63476006 -13 179 C-14.81476003 180.39585785 -14.81476003 180.39585785 -16 182 C-20.6188849 180.68618385 -23.96699445 178.86177157 -27.8125 176 C-28.76769531 175.29875 -29.72289062 174.5975 -30.70703125 173.875 C-33 172 -33 172 -34 170 C-33.835 168.824375 -33.67 167.64875 -33.5 166.4375 C-33.45014156 163.36289648 -33.79568165 162.25346396 -35.75390625 159.82421875 C-37.34403112 158.30942975 -38.94779314 156.80887039 -40.5625 155.3203125 C-54.83443355 141.7345296 -60.8437356 121.35927069 -61.39746094 102.25878906 C-61.54194445 90.95031156 -60.36549128 80.78354644 -57 70 C-56.69964844 69.01257813 -56.39929688 68.02515625 -56.08984375 67.0078125 C-46.26969217 37.67489221 -25.21387496 16.80924997 0 0 Z " fill="#F3CF84" transform="translate(166,129)"/>
<path d="M0 0 C3.26232083 3.15708468 6.26858044 6.44976142 9.25 9.875 C23.57584598 25.83740785 42.53421497 33.46810419 63.625 34.625 C66.41636773 34.76223538 69.20761286 34.88441099 72 35 C59.24571965 53.7923527 38.9048319 64.49943827 17 69 C-6.95482548 73.391718 -30.89972384 67.30924157 -51 54 C-58.79372186 48.3497986 -66.8846024 41.91997663 -71 33 C-69.88625 32.97421875 -68.7725 32.9484375 -67.625 32.921875 C-45.31206177 32.19026287 -23.79776252 25.91104464 -7.62109375 9.6015625 C-4.83095347 6.51693514 -2.30830679 3.46246018 0 0 Z " fill="#FAD48E" transform="translate(255,365)"/>
<path d="M0 0 C5.4916933 4.46072486 9.54246603 9.71724184 11.7890625 16.45703125 C12.65670503 26.59849232 11.40594948 34.91846842 5.2890625 43.20703125 C-0.64952298 49.41086373 -7.99195071 52.67718416 -16.51367188 53.06811523 C-24.66378512 53.11973262 -31.71700673 51.78996731 -39.2109375 48.45703125 C-40.20609375 48.02132812 -41.20125 47.585625 -42.2265625 47.13671875 C-53.66471841 41.76958405 -63.08901045 34.10741484 -72.2109375 25.45703125 C-72.98566406 24.791875 -73.76039062 24.12671875 -74.55859375 23.44140625 C-76.2109375 21.45703125 -76.2109375 21.45703125 -76.203125 19.43359375 C-70.5993786 8.27022494 -50.5318676 0.7289214 -39.4609375 -3.10546875 C-26.53702722 -7.1490275 -11.43945005 -7.98336179 0 0 Z " fill="#75CBBC" transform="translate(91.2109375,350.54296875)"/>
<path d="M0 0 C2.37678784 1.74519387 4.3857211 3.33420918 6.234375 5.640625 C6.25153761 8.51250255 5.2373912 9.63687939 3.44140625 11.8671875 C-7.52427555 22.85075785 -19.39802624 30.78956668 -33.765625 36.640625 C-35.07273437 37.18203125 -35.07273437 37.18203125 -36.40625 37.734375 C-45.13611647 40.856314 -55.5253226 41.19997298 -64.265625 38.015625 C-72.37664861 34.15515439 -77.15377799 28.84936821 -80.765625 20.640625 C-83.07460745 13.47685895 -82.88644063 5.07061448 -79.703125 -1.734375 C-75.0472583 -9.79059378 -68.84785005 -15.07079573 -59.9765625 -17.9375 C-38.24312361 -22.08451661 -17.73367412 -11.34514556 0 0 Z " fill="#76CBBC" transform="translate(490.765625,363.359375)"/>
<path d="M0 0 C2.88159667 2.75897554 3.92228542 4.33709463 4.390625 8.33203125 C4.32101562 10.05486328 4.32101562 10.05486328 4.25 11.8125 C4.21390625 12.97394531 4.1778125 14.13539063 4.140625 15.33203125 C4.07101562 16.65267578 4.07101562 16.65267578 4 18 C4.66 17.67 5.32 17.34 6 17 C14.5997013 16.22742006 22.30707702 16.89042551 30 21 C31.7109375 22.53125 31.7109375 22.53125 33.25 24.125 C37.46318407 28.20524379 42.89937105 28.02917864 48.44921875 28.578125 C52.61747772 29.07336369 55.39459763 29.90383583 59 32 C61.18038095 35.27057143 61.63246755 36.20519469 61 40 C59.3125 42.875 59.3125 42.875 56 45 C51.06807848 45.19532362 45.48676068 45.24338034 41 43 C40.7525 44.051875 40.505 45.10375 40.25 46.1875 C39.23318938 49.82738728 37.46333254 52.12611204 35 55 C35 55.66 35 56.32 35 57 C35.73605469 57.38671875 36.47210938 57.7734375 37.23046875 58.171875 C48.68363999 64.28426758 48.68363999 64.28426758 51 67 C51.69821915 69.82808092 51.71631088 72.17519337 51 75 C48.875 77.5625 48.875 77.5625 46 79 C41.06054531 78.6743978 37.85059974 76.95761756 33.6875 74.375 C28.33096095 71.16865177 22.90047518 68.49530749 17.125 66.125 C16.43623779 65.83931152 15.74747559 65.55362305 15.0378418 65.25927734 C10.42099682 63.40809741 5.83240881 62.16904989 1 61 C-5.56744524 58.73226677 -10.19045864 54.80401039 -14 49 C-15.1696819 46.22395496 -15.55797241 44.04507899 -16 41 C-16.2165625 39.515 -16.2165625 39.515 -16.4375 38 C-15.89405704 34.27353397 -14.39814448 32.00080687 -12.2890625 28.9296875 C-11.00989632 27.01481449 -9.98796967 25.07750631 -9 23 C-9.66 22.34 -10.32 21.68 -11 21 C-11.2526603 18.16197848 -11.37028432 15.46384221 -11.375 12.625 C-11.39949219 11.85671875 -11.42398437 11.0884375 -11.44921875 10.296875 C-11.46870881 6.54178974 -11.43893833 4.60900318 -9.1953125 1.49609375 C-5.94965933 -0.71580156 -3.82922755 -0.61541157 0 0 Z " fill="#FA8FA7" transform="translate(321,192)"/>
<path d="M0 0 C3.5 0.5625 3.5 0.5625 5.6953125 2.06640625 C8.25037215 5.60035239 8.0100711 8.87529602 7.875 13.0625 C7.87371094 13.82175781 7.87242187 14.58101562 7.87109375 15.36328125 C7.81042639 19.21228797 7.66666137 22.3038413 5.5 25.5625 C6.675625 26.92375 6.675625 26.92375 7.875 28.3125 C10.55904545 31.42034211 12.44843856 33.93708713 12.58203125 38.1484375 C11.7111533 47.16013102 9.65368431 52.18745862 2.609375 58.0234375 C-1.39439135 60.94470406 -5.42766933 62.30852695 -10.2109375 63.44140625 C-14.51185048 64.503793 -18.53691011 65.99277657 -22.625 67.6875 C-23.35565674 67.98591797 -24.08631348 68.28433594 -24.83911133 68.59179688 C-31.08733094 71.2214847 -36.75148814 74.4987846 -42.44921875 78.15625 C-46.04765094 79.81493833 -47.74368646 79.64574106 -51.5 78.5625 C-53.375 77.5 -53.375 77.5 -54.5 75.5625 C-55.57112429 70.61884942 -55.57112429 70.61884942 -54.5 67.5625 C-49.9818809 63.16625694 -44.22788576 60.12497521 -38.5 57.5625 C-39.51064182 55.53211148 -40.52873569 53.50691636 -41.5703125 51.4921875 C-41.91835937 50.81414062 -42.26640625 50.13609375 -42.625 49.4375 C-42.97820312 48.75429687 -43.33140625 48.07109375 -43.6953125 47.3671875 C-44.5 45.5625 -44.5 45.5625 -44.5 43.5625 C-45.08007812 43.706875 -45.66015625 43.85125 -46.2578125 44 C-55.50680658 46.19778077 -55.50680658 46.19778077 -59.5 45.5625 C-62.4375 43.5 -62.4375 43.5 -64.5 40.5625 C-64.6875 37 -64.6875 37 -63.5 33.5625 C-59.06656425 29.85793981 -55.35090632 29.04009479 -49.75 28.75 C-43.01071712 28.17580447 -39.01814702 26.52750509 -33.64453125 22.25 C-26.7299149 16.80899041 -19.00873516 16.95722746 -10.5 17.5625 C-9.51 17.8925 -8.52 18.2225 -7.5 18.5625 C-7.54640625 17.68207031 -7.5928125 16.80164063 -7.640625 15.89453125 C-7.69476563 14.15236328 -7.69476563 14.15236328 -7.75 12.375 C-7.79640625 11.22644531 -7.8428125 10.07789063 -7.890625 8.89453125 C-7.26734679 3.57796812 -5.3358151 0.85754171 0 0 Z " fill="#FA8FA7" transform="translate(194.5,191.4375)"/>
<path d="M0 0 C0.06731323 1.15786011 0.06731323 1.15786011 0.13598633 2.33911133 C0.34709943 5.83128486 0.57953668 9.32171893 0.8125 12.8125 C0.88275391 14.02744141 0.95300781 15.24238281 1.02539062 16.49414062 C1.10595703 17.65751953 1.18652344 18.82089844 1.26953125 20.01953125 C1.33760986 21.09307861 1.40568848 22.16662598 1.47583008 23.27270508 C2.05133222 26.26708536 2.60505173 27.19303964 5 29 C7.09989652 30.17574711 7.09989652 30.17574711 9 31 C8.85936865 33.29199177 8.71234057 35.58359186 8.5625 37.875 C8.48128906 39.15117187 8.40007812 40.42734375 8.31640625 41.7421875 C8 45 8 45 7 47 C5.9275 47.226875 4.855 47.45375 3.75 47.6875 C-0.59170817 49.20709786 -1.5367151 50.52483465 -3.76171875 54.34375 C-5.74426972 56.9954901 -7.93854199 57.81665725 -11.1484375 58.37109375 C-15.28770068 58.49454546 -18.12211901 58.39741725 -21.4375 55.75 C-24.74257705 52.20308804 -26.28950492 49.74835552 -26.13525391 44.87402344 C-26.11508209 44.07349548 -26.09491028 43.27296753 -26.0741272 42.44818115 C-26.04193085 41.59387512 -26.0097345 40.73956909 -25.9765625 39.859375 C-25.95153656 38.97719299 -25.92651062 38.09501099 -25.90072632 37.18609619 C-25.81867812 34.37366442 -25.72203008 31.56195086 -25.625 28.75 C-25.56674491 26.84117499 -25.50944196 24.93232067 -25.453125 23.0234375 C-25.31312189 18.34854666 -25.16002495 13.67424658 -25 9 C-23.92621094 8.60167969 -22.85242188 8.20335937 -21.74609375 7.79296875 C-20.30986242 7.25790218 -18.87366638 6.72274086 -17.4375 6.1875 C-16.73302734 5.92646484 -16.02855469 5.66542969 -15.30273438 5.39648438 C-11.86016096 4.11146849 -8.46025731 2.78374324 -5.09765625 1.30078125 C-2 0 -2 0 0 0 Z " fill="#EBA550" transform="translate(308,437)"/>
<path d="M0 0 C2.93277934 19.79626055 0.52821224 37.86007315 -8 56 C-8.99 56 -9.98 56 -11 56 C-12.5078125 54.19921875 -12.5078125 54.19921875 -14.125 51.6875 C-21.91249313 40.10442199 -31.05837343 29.69719035 -42 21 C-40.12089904 15.36269713 -33.08669061 12.71952954 -28 10 C-7.88332523 0 -7.88332523 0 0 0 Z " fill="#FB8FA8" transform="translate(414,109)"/>
<path d="M0 0 C15.24526625 3.59510172 29.44577658 9.51458675 42 19 C40.43672077 23.04004089 37.55983256 25.41576083 34.375 28.1875 C26.74955078 35.01518887 20.31393464 42.18700628 14.640625 50.73828125 C12.94538291 53.07529356 11.09020122 55.01430884 9 57 C5.29817509 50.25739035 3.07776351 43.39168964 1 36 C0.77054687 35.27296875 0.54109375 34.5459375 0.3046875 33.796875 C-2.6317665 23.2918142 -1.58067245 10.66953905 0 0 Z " fill="#FB8FA8" transform="translate(98,109)"/>
<path d="M0 0 C5.11069057 1.64028108 9.97917224 3.65371343 14.90234375 5.78125 C18.22164263 7.08720366 21.56650574 8.04065995 25 9 C25.24250588 14.58602391 25.45733448 20.1721849 25.64697266 25.76025391 C25.71528151 27.6596285 25.79104575 29.55875062 25.87451172 31.45751953 C25.99343283 34.19270506 26.08519302 36.9276884 26.171875 39.6640625 C26.21439392 40.50804596 26.25691284 41.35202942 26.30072021 42.22158813 C26.43953574 47.6885671 25.62895591 50.64693201 22 55 C19.08965647 57.76394798 17.05781773 58.45075109 13.0625 58.5 C9.42755623 58.36636236 8.18426779 58.12153833 5.0625 56.0625 C-1.50305908 46.31363955 -1.16197193 35.00707233 -1.125 23.6875 C-1.12886719 22.51509766 -1.13273438 21.34269531 -1.13671875 20.13476562 C-1.12915395 13.36048796 -0.84460675 6.72318514 0 0 Z " fill="#EBA550" transform="translate(204,437)"/>
<path d="M0 0 C1.21236328 -0.00257812 2.42472656 -0.00515625 3.67382812 -0.0078125 C15.35067476 0.11740838 25.50572475 2.74098647 36.1875 7.3125 C36.97253906 7.63025391 37.75757813 7.94800781 38.56640625 8.27539062 C44.15673834 10.63482598 48.74624488 13.66323498 53.4375 17.5 C49.60409238 20.45346994 45.58193215 22.81329077 41.375 25.1875 C40.65505859 25.60322266 39.93511719 26.01894531 39.19335938 26.44726562 C38.49919922 26.83978516 37.80503906 27.23230469 37.08984375 27.63671875 C36.46070068 27.99467529 35.83155762 28.35263184 35.18334961 28.72143555 C33.4375 29.5 33.4375 29.5 30.4375 29.5 C28.10751016 28.03231312 25.87060896 26.52487889 23.625 24.9375 C10.63019827 16.01711171 -3.40213222 9.75780542 -18.5625 5.5 C-13.98180398 -1.34397135 -7.60085928 -0.17391462 0 0 Z " fill="#E8A34F" transform="translate(121.5625,89.5)"/>
<path d="M0 0 C1.17111328 -0.020625 2.34222656 -0.04125 3.54882812 -0.0625 C4.67869141 -0.06765625 5.80855469 -0.0728125 6.97265625 -0.078125 C7.9975415 -0.0874707 9.02242676 -0.09681641 10.07836914 -0.10644531 C13.39059445 0.30648688 15.26046926 1.28841609 17.9375 3.25 C18.4325 4.24 18.4325 4.24 18.9375 5.25 C17.82375 5.5903125 16.71 5.930625 15.5625 6.28125 C0.48199845 11.0185542 -12.94367675 17.3916306 -26.0625 26.25 C-28.0625 27.58333333 -30.0625 28.91666667 -32.0625 30.25 C-39.0625 26.25 -46.0625 22.25 -53.0625 18.25 C-49.29597271 14.08509002 -45.59974694 11.62013056 -40.5625 9.1875 C-39.8627002 8.84388428 -39.16290039 8.50026855 -38.44189453 8.14624023 C-25.80310362 2.10490391 -13.89045352 0.06136037 0 0 Z " fill="#E8A44F" transform="translate(390.0625,89.75)"/>
<path d="M0 0 C3.36591866 1.44253657 5.51047079 3.33264727 8 6 C6.17191407 11.4842578 -0.07833248 13.46090651 -5 16 C-16.91215189 21.44650984 -29.3870186 22.19476606 -42.3125 22.375 C-53.13948952 22.64386863 -64.31802365 23.09717123 -74.18359375 28.109375 C-77.14804652 29.56291313 -79.77446622 29.29866053 -83 29 C-85 26 -85 26 -84.9453125 23.5078125 C-83.29389931 19.12679074 -79.60226055 18.20549574 -75.53125 16.35546875 C-65.16126107 12.37495309 -55.04008635 11.81586229 -44.0625 11.5 C-20.38373556 10.99124275 -20.38373556 10.99124275 0 0 Z " fill="#E7A34F" transform="translate(177,416)"/>
<path d="M0 0 C0.98355469 -0.020625 1.96710938 -0.04125 2.98046875 -0.0625 C3.92277344 -0.06765625 4.86507812 -0.0728125 5.8359375 -0.078125 C6.68462402 -0.0874707 7.53331055 -0.09681641 8.40771484 -0.10644531 C11.14361278 0.33337092 12.0114523 1.02375327 13.625 3.25 C14.0625 6.6875 14.0625 6.6875 13.625 10.25 C11.75791495 12.61497439 10.30438569 13.91030715 7.625 15.25 C5.35706835 15.47562518 3.08333146 15.64377362 0.80859375 15.78515625 C-0.21811432 15.85002983 -0.21811432 15.85002983 -1.26556396 15.91621399 C-3.48922943 16.05427784 -5.71323125 16.1845399 -7.9375 16.3125 C-8.68776459 16.356026 -9.43802917 16.399552 -10.21102905 16.44439697 C-28.26881333 17.48004011 -28.26881333 17.48004011 -35.6875 17.625 C-36.92113281 17.65335937 -38.15476562 17.68171875 -39.42578125 17.7109375 C-43.03861107 17.1462833 -44.21213588 16.15127535 -46.375 13.25 C-46.875 10.25 -46.875 10.25 -46.375 7.25 C-44.5079009 4.94724444 -43.01852259 3.57176129 -40.375 2.25 C-38.96080223 2.11046822 -37.54106022 2.0246039 -36.12109375 1.96875 C-34.8381543 1.91267578 -34.8381543 1.91267578 -33.52929688 1.85546875 C-32.18448242 1.80326172 -32.18448242 1.80326172 -30.8125 1.75 C-25.83049529 1.55057209 -20.8841354 1.34820671 -15.93359375 0.734375 C-10.62544618 0.10512208 -5.34080486 0.02867546 0 0 Z " fill="#020404" transform="translate(465.375,364.75)"/>
<path d="M0 0 C0.95592041 -0.00080566 1.91184082 -0.00161133 2.89672852 -0.00244141 C4.44058228 0.02390381 4.44058228 0.02390381 6.015625 0.05078125 C7.07515381 0.06061035 8.13468262 0.07043945 9.22631836 0.08056641 C16.78184944 0.20014955 24.29868903 0.60837487 31.828125 1.23828125 C32.77204102 1.31651123 33.71595703 1.39474121 34.68847656 1.4753418 C40.43678271 2.01729235 46.14974279 2.61059751 51.265625 5.48828125 C52.7301377 8.23424257 52.25471512 10.49750257 51.8828125 13.5234375 C51.265625 15.36328125 51.265625 15.36328125 48.265625 17.36328125 C45.32861328 17.5871582 45.32861328 17.5871582 41.7109375 17.5390625 C41.05441193 17.53127274 40.39788635 17.52348297 39.72146606 17.51545715 C32.29348523 17.39943745 24.87234432 17.07837734 17.45507812 16.67358398 C15.10852421 16.54907801 12.76152931 16.44359953 10.4140625 16.33789062 C8.90358354 16.25767485 7.39316365 16.17633713 5.8828125 16.09375 C4.84373245 16.05135445 4.84373245 16.05135445 3.78366089 16.00810242 C-0.47824375 15.74781911 -3.31766161 14.94960455 -6.734375 12.36328125 C-8.25929498 9.31344129 -7.97000048 6.72094435 -7.734375 3.36328125 C-5.50479297 0.2558794 -3.71887219 -0.01314466 0 0 Z " fill="#020403" transform="translate(40.734375,364.63671875)"/>
<path d="M0 0 C3.35304475 0.96613154 4.50187942 1.54560974 7.0625 3.625 C10.5152838 6.28813369 13.15475261 6.7396678 17.47265625 6.49609375 C21.99841448 5.61009875 25.43406466 3.31593534 28.6875 0.0625 C32.24350891 -0.40132725 34.03740088 -0.36519679 37.0625 1.625 C39.32076454 5.01239681 39.24866268 7.0642159 38.6875 11.0625 C35.42676431 17.28754086 28.07761127 19.93246291 21.6875 22.0625 C11.63960405 22.91142196 4.13450159 21.76879914 -3.8125 15.4375 C-6.87277805 12.53023585 -7.23634339 11.88499143 -7.625 7.6875 C-7.3125 4.0625 -7.3125 4.0625 -5.75 1.5625 C-3.3125 0.0625 -3.3125 0.0625 0 0 Z " fill="#050403" transform="translate(240.3125,201.9375)"/>
<path d="M0 0 C0.68231186 -0.00287018 1.36462372 -0.00574036 2.06761169 -0.00869751 C3.51423978 -0.01073854 4.96089544 -0.00520581 6.4074707 0.00732422 C8.58935897 0.0232065 10.76934566 0.00756975 12.95117188 -0.01171875 C28.73122444 -0.03927348 28.73122444 -0.03927348 35.05859375 3.3984375 C37.01947562 5.61657954 37.96132708 6.92426248 38.55859375 9.8359375 C38.05859375 12.3984375 38.05859375 12.3984375 36.37109375 15.2734375 C31.97113334 18.09605361 29.55821851 17.48943617 24.484375 16.83984375 C20.84847579 16.40501164 17.26252122 16.32976538 13.6015625 16.30078125 C12.44615967 16.2848291 11.29075684 16.26887695 10.1003418 16.25244141 C7.76211344 16.22504092 5.42355125 16.21779866 3.08520508 16.23193359 C-4.93714957 16.07680355 -4.93714957 16.07680355 -7.83203125 14.12133789 C-10.18216673 11.46051913 -10.94140625 9.76851397 -10.94140625 6.2109375 C-8.81701075 0.23607516 -6.12656271 0.01643664 0 0 Z " fill="#090605" transform="translate(343.94140625,219.6015625)"/>
<path d="M0 0 C1.37321822 -0.01664705 2.74634678 -0.04405138 4.11914062 -0.08203125 C6.12041052 -0.13689324 8.12256899 -0.15555358 10.12451172 -0.17333984 C11.31061035 -0.19315918 12.49670898 -0.21297852 13.71875 -0.23339844 C17.87407006 0.52182703 19.36103453 2.06523584 21.92919922 5.35009766 C22.00241059 8.9374548 21.46042476 10.65930814 19.27758789 13.49780273 C16.16746882 15.9509136 14.22618191 15.87564596 10.29248047 15.92431641 C8.99246094 15.95203125 7.69244141 15.97974609 6.35302734 16.00830078 C4.98259096 16.01891672 3.61214768 16.02867652 2.24169922 16.03759766 C-0.42903276 16.07635033 -3.09943585 16.1255687 -5.77001953 16.17431641 C-7.03136719 16.19284668 -8.29271484 16.21137695 -9.59228516 16.23046875 C-12.55713216 16.33243219 -15.39786087 16.58822747 -18.33251953 16.99462891 C-22.07080078 17.35009766 -22.07080078 17.35009766 -25.19580078 15.35009766 C-27.07080078 12.35009766 -27.07080078 12.35009766 -27.25830078 8.78759766 C-26.07080078 5.35009766 -26.07080078 5.35009766 -23.44580078 2.97509766 C-16.20997943 -0.50881633 -7.88534509 0.06998267 0 0 Z " fill="#080505" transform="translate(157.07080078125,219.64990234375)"/>
<path d="M0 0 C2.65690142 0.91138896 5.19632392 2.02068323 7.75 3.1875 C8.44520752 3.49921143 9.14041504 3.81092285 9.85668945 4.13208008 C15.73380975 6.80312852 21.45385923 9.68989134 27 13 C28.051875 13.61875 29.10375 14.2375 30.1875 14.875 C32.54428377 17.6381258 32.72444911 19.52207571 32.484375 23.08984375 C32 25 32 25 29.875 27.5625 C26.24867712 29.37566144 24.89094711 28.988102 21 28 C17.94921875 26.3984375 17.94921875 26.3984375 14.6875 24.375 C8.53810434 20.65924873 2.23272566 17.86956058 -4.48950195 15.34716797 C-9.79782551 13.30326174 -9.79782551 13.30326174 -12 10 C-12.4375 6.5625 -12.4375 6.5625 -12 3 C-8.19719762 -1.60945743 -5.55588359 -1.15914118 0 0 Z " fill="#050403" transform="translate(340,242)"/>
<path d="M0 0 C1.9375 1.125 1.9375 1.125 3 3 C3.76313704 8.99607672 3.76313704 8.99607672 1.46484375 12.01953125 C-1.70238142 14.56435401 -5.11117387 15.84942845 -8.875 17.25 C-16.0832342 20.0361807 -22.45200524 23.4230836 -28.94921875 27.59375 C-32.54765094 29.25243833 -34.24368646 29.08324106 -38 28 C-39.875 26.9375 -39.875 26.9375 -41 25 C-42.04664443 20.16933341 -42.04664443 20.16933341 -41 17 C-34.04587452 9.19823236 -21.40647976 5.17876151 -12 1 C-11.06027344 0.57976562 -10.12054688 0.15953125 -9.15234375 -0.2734375 C-5.85724386 -1.38575797 -3.33048718 -0.80178395 0 0 Z " fill="#050303" transform="translate(181,242)"/>
<path d="M0 0 C0.20753906 0.92039062 0.41507813 1.84078125 0.62890625 2.7890625 C3.61137582 15.04339354 8.1251349 25.97744442 16 36 C-2.62610542 31.79269148 -19.30509794 19.70308882 -30 4 C-30 3.67 -30 3.34 -30 3 C-28.80503906 2.95101563 -27.61007813 2.90203125 -26.37890625 2.8515625 C-17.61586257 2.45294942 -8.55916532 0 0 0 Z " fill="#EEC778" transform="translate(214,395)"/>
<path d="M0 0 C2.30275556 1.8670991 3.67823871 3.35647741 5 6 C5.08639869 8.40838678 5.11567764 10.78733881 5.09765625 13.1953125 C5.0962413 13.90275604 5.09482635 14.61019958 5.09336853 15.33908081 C5.087766 17.60109669 5.07521318 19.86301398 5.0625 22.125 C5.05748532 23.65755065 5.05292236 25.19010286 5.04882812 26.72265625 C5.03779577 30.48180888 5.02052952 34.24088772 5 38 C7.97 38 10.94 38 14 38 C14 38.33 14 38.66 14 39 C8.18110883 39.12066825 2.43801453 38.93028731 -3.3671875 38.49609375 C-5.23673096 38.35772095 -5.23673096 38.35772095 -7.14404297 38.21655273 C-8.08650879 38.14509033 -9.02897461 38.07362793 -10 38 C-10.09900135 33.23118124 -10.17152928 28.4629627 -10.21972656 23.69335938 C-10.23982144 22.07150857 -10.26710254 20.44973003 -10.30175781 18.828125 C-10.3503727 16.4946102 -10.37298889 14.16205443 -10.390625 11.828125 C-10.41127014 11.10506165 -10.43191528 10.38199829 -10.45318604 9.63702393 C-10.45471504 6.1936019 -10.25064519 4.33539285 -8.16308594 1.54199219 C-5.21409694 -0.56024422 -3.54550713 -0.59091786 0 0 Z " fill="#6984CD" transform="translate(259,52)"/>
<path d="M0 0 C2.421875 2.34375 2.421875 2.34375 4.75 5.5 C9.18954272 11.2832466 14.0718769 15.71157053 20 20 C14.95067106 25.04932894 3.99715725 25.42646252 -3 26 C-6.3 26 -9.6 26 -13 26 C-12.34 17.75 -11.68 9.5 -11 1 C-3.57009346 -0.48598131 -3.57009346 -0.48598131 0 0 Z " fill="#D9953F" transform="translate(129,364)"/>
<path d="M0 0 C2.64 0.33 5.28 0.66 8 1 C8.06058594 2.05058594 8.12117188 3.10117187 8.18359375 4.18359375 C8.61546473 11.48282152 9.09263954 18.74111635 10 26 C-0.23133756 26.19591923 -9.37543823 25.69638967 -19 22 C-15.78897601 18.14677121 -12.53571004 14.4957942 -8.9375 11 C-5.45840354 7.58100309 -2.70313463 4.05470195 0 0 Z " fill="#D8953F" transform="translate(386,364)"/>
<path d="M0 0 C0.66 4.62 1.32 9.24 2 14 C-0.70647467 14.67511172 -3.41477185 15.34027341 -6.125 16 C-6.88554688 16.19078125 -7.64609375 16.3815625 -8.4296875 16.578125 C-12.68119206 17.60435024 -16.59578214 18.43191438 -21 18 C-23.9375 15.875 -23.9375 15.875 -26 13 C-26.07094732 9.52358142 -25.55605365 7.75588543 -23.5 4.9609375 C-19.9303019 2.16095555 -16.32712499 1.56263572 -11.9375 0.6875 C-11.12216797 0.50638672 -10.30683594 0.32527344 -9.46679688 0.13867188 C-3.41680552 -1.13893517 -3.41680552 -1.13893517 0 0 Z " fill="#6984CD" transform="translate(92,246)"/>
<path d="M0 0 C2.94412836 0.53935955 5.83525233 1.14283445 8.75 1.8125 C9.96816406 2.08030273 9.96816406 2.08030273 11.2109375 2.35351562 C22.05723312 4.80011488 22.05723312 4.80011488 24.375 7.75 C25.24273921 10.87386117 24.9220483 12.90455213 24 16 C21.97258673 17.92515339 20.73075319 18.93705122 17.9140625 19.1796875 C10.51928796 18.1954001 3.27023544 16.66565913 -4 15 C-3.5253725 12.6865641 -3.04517721 10.37426981 -2.5625 8.0625 C-2.29566406 6.77472656 -2.02882813 5.48695313 -1.75390625 4.16015625 C-1 1 -1 1 0 0 Z " fill="#6984CC" transform="translate(421,245)"/>
<path d="M0 0 C5.11069057 1.64028108 9.97917224 3.65371343 14.90234375 5.78125 C18.18980223 7.07467629 21.60317461 8.02947846 25 9 C25 15.6 25 22.2 25 29 C24.67 29 24.34 29 24 29 C24 26.69 24 24.38 24 22 C22.824375 21.79375 21.64875 21.5875 20.4375 21.375 C13.30767795 19.82106442 6.71964303 16.78471693 0 14 C0 21.59 0 29.18 0 37 C-0.33 37 -0.66 37 -1 37 C-1.02935775 32.70834802 -1.04691802 28.41672236 -1.0625 24.125 C-1.07087891 22.92101562 -1.07925781 21.71703125 -1.08789062 20.4765625 C-1.10662365 13.58280854 -0.87608826 6.84079737 0 0 Z " fill="#D2913E" transform="translate(204,437)"/>
<path d="M0 0 C1.12513633 8.01659634 1.09579384 15.92138585 1 24 C0.67 24 0.34 24 0 24 C0 20.7 0 17.4 0 14 C-0.97839844 14.40992188 -1.95679688 14.81984375 -2.96484375 15.2421875 C-9.91988034 18.11505502 -16.55102059 20.69316151 -24 22 C-24 24.31 -24 26.62 -24 29 C-24.33 29 -24.66 29 -25 29 C-25 22.4 -25 15.8 -25 9 C-17.4375 6.1875 -17.4375 6.1875 -15.09936523 5.32104492 C-11.72504863 4.0606751 -8.39385071 2.75445685 -5.09765625 1.30078125 C-2 0 -2 0 0 0 Z " fill="#D3913E" transform="translate(308,437)"/>
<path d="M0 0 C0.70149608 2.87222001 1.38645333 5.74678151 2.0625 8.625 C2.26166016 9.43324219 2.46082031 10.24148438 2.66601562 11.07421875 C3.73464616 15.68620314 4.33988415 19.33201652 3 24 C0.74149315 26.50945206 -0.66569197 26.944282 -4 27.5 C-7 27 -7 27 -9.046875 24.9765625 C-11.42622369 21.35043509 -12.31846365 18.06691358 -13.25 13.875 C-13.42273438 13.15957031 -13.59546875 12.44414062 -13.7734375 11.70703125 C-14.4718856 8.74139845 -15 6.05609382 -15 3 C-12.87562952 2.49733206 -10.75048274 1.9979439 -8.625 1.5 C-7.44164062 1.2215625 -6.25828125 0.943125 -5.0390625 0.65625 C-2 0 -2 0 0 0 Z " fill="#6983CC" transform="translate(332,331)"/>
<path d="M0 0 C2.12570312 0.47603774 4.25054427 0.95592598 6.375 1.4375 C8.15003906 1.83775391 8.15003906 1.83775391 9.9609375 2.24609375 C13 3 13 3 15 4 C14.46060437 6.90188825 13.89473459 9.79417331 13.3125 12.6875 C13.08916992 13.91243164 13.08916992 13.91243164 12.86132812 15.16210938 C11.76763807 20.45900043 10.52003374 23.62877967 6 27 C2.375 27.125 2.375 27.125 -1 26 C-3.21834355 23.78165645 -3.96437622 22.24428773 -4.0546875 19.08984375 C-3.51227402 12.5926736 -1.68846175 6.27598046 0 0 Z " fill="#6984CC" transform="translate(180,331)"/>
<path d="M0 0 C2.04356299 1.53518167 2.88407245 2.41904984 3.38818359 4.9453125 C3.39156738 5.66460937 3.39495117 6.38390625 3.3984375 7.125 C3.40230469 7.91390625 3.40617187 8.7028125 3.41015625 9.515625 C3.39855469 10.33546875 3.38695312 11.1553125 3.375 12 C3.38660156 12.81984375 3.39820313 13.6396875 3.41015625 14.484375 C3.40628906 15.27328125 3.40242188 16.0621875 3.3984375 16.875 C3.39336182 17.95394531 3.39336182 17.95394531 3.38818359 19.0546875 C2.89147402 21.54385848 1.96431236 22.44068811 0 24 C-1.9375 24.3984375 -1.9375 24.3984375 -4 24.375 C-4.680625 24.38273437 -5.36125 24.39046875 -6.0625 24.3984375 C-8 24 -8 24 -9.72265625 23.00390625 C-11.79104249 19.75900674 -11.47189922 16.28699785 -11.4375 12.5625 C-11.45748047 11.79873047 -11.47746094 11.03496094 -11.49804688 10.24804688 C-11.49479564 6.51237463 -11.42363113 4.58868221 -9.1953125 1.4921875 C-6.0136137 -0.67046187 -3.75343525 -0.47770994 0 0 Z " fill="#020201" transform="translate(321,192)"/>
<path d="M0 0 C2.43138149 1.6526472 3.79079006 2.92452356 4.36450195 5.8737793 C4.50307492 8.11691319 4.49626793 10.31604843 4.4375 12.5625 C4.44458984 13.33013672 4.45167969 14.09777344 4.45898438 14.88867188 C4.39677404 20.37753798 4.39677404 20.37753798 2.72265625 23.00390625 C0.66249375 24.19515668 -0.62635804 24.4019732 -3 24.375 C-3.680625 24.38273437 -4.36125 24.39046875 -5.0625 24.3984375 C-7.5936397 23.87792087 -8.38483478 22.99381612 -10 21 C-10.38818359 19.0546875 -10.38818359 19.0546875 -10.3984375 16.875 C-10.40230469 16.08609375 -10.40617188 15.2971875 -10.41015625 14.484375 C-10.39855469 13.66453125 -10.38695312 12.8446875 -10.375 12 C-10.38660156 11.18015625 -10.39820313 10.3603125 -10.41015625 9.515625 C-10.40435547 8.33226562 -10.40435547 8.33226562 -10.3984375 7.125 C-10.39505371 6.40570313 -10.39166992 5.68640625 -10.38818359 4.9453125 C-9.27066543 -0.65492947 -4.90650262 -0.60255295 0 0 Z " fill="#020201" transform="translate(198,192)"/>
<path d="M0 0 C1.49821059 3.37097383 2 5.20442119 2 9 C-12.28710938 15.015625 -12.28710938 15.015625 -18 14 C-20 11 -20 11 -19.9765625 8.51953125 C-18.25351024 4.07405642 -14.21777471 3.08072782 -10.1015625 1.16015625 C-6.36120412 -0.23894506 -3.91673484 -0.53410021 0 0 Z " fill="#F4D097" transform="translate(112,431)"/>
<path d="M0 0 C4.9240432 4.7652031 9.44259642 9.88657333 14 15 C13.67 15.66 13.34 16.32 13 17 C7.74469407 18.34751434 2.38420602 18.09576651 -3 18 C-2.6919856 15.37440156 -2.37879818 12.74960194 -2.0625 10.125 C-1.97548828 9.37863281 -1.88847656 8.63226563 -1.79882812 7.86328125 C-1.11328125 2.2265625 -1.11328125 2.2265625 0 0 Z " fill="#E9A44F" transform="translate(119,372)"/>
<path d="M0 0 C0.33 0 0.66 0 1 0 C1.50509208 2.24886238 2.00389179 4.49913869 2.5 6.75 C2.7784375 8.00296875 3.056875 9.2559375 3.34375 10.546875 C4 14 4 14 4 18 C-2.09781001 18.22084624 -7.21642935 18.01167675 -13 16 C-12.154375 15.030625 -11.30875 14.06125 -10.4375 13.0625 C-7.28005659 9.39385147 -4.33700875 5.5824906 -1.41796875 1.72265625 C-0.95003906 1.15417969 -0.48210937 0.58570313 0 0 Z " fill="#EAA54F" transform="translate(392,372)"/>
<path d="M0 0 C3.36591866 1.44253657 5.51047079 3.33264727 8 6 C6.85629945 9.43110164 6.13496691 9.91496564 3.1875 11.8125 C2.50042969 12.27269531 1.81335938 12.73289062 1.10546875 13.20703125 C-1 14 -1 14 -3.1640625 13.26171875 C-5.31833553 11.78122899 -6.48149197 10.11270683 -8 8 C-8.99 7.34 -9.98 6.68 -11 6 C-10.28972656 5.65066406 -9.57945312 5.30132812 -8.84765625 4.94140625 C-7.92855469 4.48636719 -7.00945312 4.03132813 -6.0625 3.5625 C-4.68771484 2.88380859 -4.68771484 2.88380859 -3.28515625 2.19140625 C-1.09471096 1.19474606 -1.09471096 1.19474606 0 0 Z " fill="#D7943F" transform="translate(177,416)"/>
<path d="M0 0 C2.33333333 4.66666667 4.66666667 9.33333333 7 14 C2.63016007 17.03461106 2.63016007 17.03461106 -0.0625 16.88671875 C-2 16 -2 16 -3.046875 13.890625 C-3.39492187 12.58351562 -3.39492187 12.58351562 -3.75 11.25 C-4.11351562 9.95835937 -4.11351562 9.95835937 -4.484375 8.640625 C-4.99596791 6.02064917 -5.09574357 3.66167137 -5 1 C-2 0 -2 0 0 0 Z " fill="#FBD799" transform="translate(150,235)"/>
</svg>
